<?xml version="1.0" encoding="UTF-8" standalone="no"?>
<!-- Created with Inkscape (http://www.inkscape.org/) -->

<svg
   xmlns:dc="http://purl.org/dc/elements/1.1/"
   xmlns:cc="http://creativecommons.org/ns#"
   xmlns:rdf="http://www.w3.org/1999/02/22-rdf-syntax-ns#"
   xmlns:svg="http://www.w3.org/2000/svg"
   xmlns="http://www.w3.org/2000/svg"
   xmlns:sodipodi="http://sodipodi.sourceforge.net/DTD/sodipodi-0.dtd"
   xmlns:inkscape="http://www.inkscape.org/namespaces/inkscape"
   width="744.09448819"
   height="1052.3622047"
   id="svg3046"
   version="1.1"
   inkscape:version="0.48.0 r9654"
   sodipodi:docname="expCDF.svg">
  <sodipodi:namedview
     id="base"
     pagecolor="#ffffff"
     bordercolor="#666666"
     borderopacity="1.0"
     inkscape:pageopacity="0.0"
     inkscape:pageshadow="2"
     inkscape:zoom="1.4"
     inkscape:cx="312.80975"
     inkscape:cy="662.21372"
     inkscape:document-units="px"
     inkscape:current-layer="layer1"
     showgrid="false"
     inkscape:window-width="1680"
     inkscape:window-height="973"
     inkscape:window-x="0"
     inkscape:window-y="24"
     inkscape:window-maximized="1" />
  <defs
     id="defs3048">
    <marker
       style="overflow:visible"
       id="Arrow2Mstart"
       refX="0.0"
       refY="0.0"
       orient="auto"
       inkscape:stockid="Arrow2Mstart">
      <path
         transform="scale(0.6) translate(0,0)"
         d="M 8.7185878,4.0337352 L -2.2072895,0.016013256 L 8.7185884,-4.0017078 C 6.9730900,-1.6296469 6.9831476,1.6157441 8.7185878,4.0337352 z "
         style="font-size:12.0;fill-rule:evenodd;stroke-width:0.62500000;stroke-linejoin:round"
         id="path3869" />
    </marker>
    <marker
       style="overflow:visible"
       id="Arrow1Mstart"
       refX="0.0"
       refY="0.0"
       orient="auto"
       inkscape:stockid="Arrow1Mstart">
      <path
         transform="scale(0.4) translate(10,0)"
         style="fill-rule:evenodd;stroke:#000000;stroke-width:1.0pt;marker-start:none"
         d="M 0.0,0.0 L 5.0,-5.0 L -12.5,0.0 L 5.0,5.0 L 0.0,0.0 z "
         id="path3851" />
    </marker>
    <marker
       style="overflow:visible"
       id="Arrow2Mstart-1"
       refX="0"
       refY="0"
       orient="auto"
       inkscape:stockid="Arrow2Mstart">
      <path
         transform="scale(0.6,0.6)"
         d="M 8.7185878,4.0337352 -2.2072895,0.01601326 8.7185884,-4.0017078 c -1.7454984,2.3720609 -1.7354408,5.6174519 -6e-7,8.035443 z"
         style="font-size:12px;fill-rule:evenodd;stroke-width:0.625;stroke-linejoin:round"
         id="path3869-0"
         inkscape:connector-curvature="0" />
    </marker>
    <clipPath
       clipPathUnits="userSpaceOnUse"
       id="clipPath6017">
      <path
         d="m 929.168,5795.84 4464.162,0 0,-3522.51 -4464.162,0 0,3522.51 z"
         id="path6019" />
    </clipPath>
    <clipPath
       clipPathUnits="userSpaceOnUse"
       id="clipPath5803">
      <path
         d="m 705.832,5891.67 4754.998,0 0,-3739.17 -4754.998,0 0,3739.17 z"
         id="path5805" />
    </clipPath>
    <clipPath
       clipPathUnits="userSpaceOnUse"
       id="clipPath6711">
      <path
         d="m 929.168,5795.84 4464.162,0 0,-3522.51 -4464.162,0 0,3522.51 z"
         id="path6713" />
    </clipPath>
    <clipPath
       clipPathUnits="userSpaceOnUse"
       id="clipPath6487">
      <path
         d="m 705.832,5891.67 4754.998,0 0,-3739.17 -4754.998,0 0,3739.17 z"
         id="path6489" />
    </clipPath>
    <clipPath
       clipPathUnits="userSpaceOnUse"
       id="clipPath3333">
      <path
         d="m 929.168,5795.84 4464.162,0 0,-3522.51 -4464.162,0 0,3522.51 z"
         id="path3335" />
    </clipPath>
    <clipPath
       clipPathUnits="userSpaceOnUse"
       id="clipPath3099">
      <path
         d="m 761.668,5891.67 4699.162,0 0,-3739.17 -4699.162,0 0,3739.17 z"
         id="path3101" />
    </clipPath>
    <clipPath
       clipPathUnits="userSpaceOnUse"
       id="clipPath3813">
      <path
         d="m 929.168,5795.84 4464.162,0 0,-3522.51 -4464.162,0 0,3522.51 z"
         id="path3815" />
    </clipPath>
    <clipPath
       clipPathUnits="userSpaceOnUse"
       id="clipPath3629">
      <path
         d="m 789.168,5891.67 4671.662,0 0,-3739.17 -4671.662,0 0,3739.17 z"
         id="path3631" />
    </clipPath>
    <clipPath
       clipPathUnits="userSpaceOnUse"
       id="clipPath4137">
      <path
         d="m 929.168,5795.84 4464.162,0 0,-3522.51 -4464.162,0 0,3522.51 z"
         id="path4139" />
    </clipPath>
    <clipPath
       clipPathUnits="userSpaceOnUse"
       id="clipPath3953">
      <path
         d="m 789.168,5891.67 4671.662,0 0,-3739.17 -4671.662,0 0,3739.17 z"
         id="path3955" />
    </clipPath>
    <clipPath
       clipPathUnits="userSpaceOnUse"
       id="clipPath5524">
      <path
         d="m 929.168,5795.84 4464.162,0 0,-3522.51 -4464.162,0 0,3522.51 z"
         id="path5526" />
    </clipPath>
    <clipPath
       clipPathUnits="userSpaceOnUse"
       id="clipPath5340">
      <path
         d="m 789.168,5891.67 4645.002,0 0,-3739.17 -4645.002,0 0,3739.17 z"
         id="path5342" />
    </clipPath>
    <clipPath
       clipPathUnits="userSpaceOnUse"
       id="clipPath7111">
      <path
         d="m 929.168,5795.84 4464.162,0 0,-3522.51 -4464.162,0 0,3522.51 z"
         id="path7113" />
    </clipPath>
    <clipPath
       clipPathUnits="userSpaceOnUse"
       id="clipPath6857">
      <path
         d="m 761.668,5891.67 4699.162,0 0,-3739.17 -4699.162,0 0,3739.17 z"
         id="path6859" />
    </clipPath>
  </defs>
  <metadata
     id="metadata3051">
    <rdf:RDF>
      <cc:Work
         rdf:about="">
        <dc:format>image/svg+xml</dc:format>
        <dc:type
           rdf:resource="http://purl.org/dc/dcmitype/StillImage" />
        <dc:title />
      </cc:Work>
    </rdf:RDF>
  </metadata>
  <g
     id="layer1"
     inkscape:groupmode="layer"
     inkscape:label="Layer 1">
    <path
       inkscape:connector-curvature="0"
       id="path3054"
       d="m 154.28571,371.17055 2.85715,221.33449"
       style="fill:none;stroke:#000000;stroke-width:1.14132106;stroke-linecap:butt;stroke-linejoin:miter;stroke-miterlimit:4;stroke-opacity:1;stroke-dasharray:none;marker-start:url(#Arrow2Mstart)" />
    <path
       inkscape:connector-curvature="0"
       id="path3054-1"
       d="m 357.305,590.21932 -221.41402,2.85715"
       style="fill:none;stroke:#000000;stroke-width:0.8776083;stroke-linecap:butt;stroke-linejoin:miter;stroke-miterlimit:4;stroke-opacity:1;stroke-dasharray:none;marker-start:url(#Arrow2Mstart)" />
    <path
       inkscape:connector-curvature="0"
       id="path5210"
       d="m 157.69001,568.44165 c -0.24433,-12.53656 -0.54667,-28.01697 -0.67188,-34.4009 l -0.22764,-11.60714 1.8369,0.0141 c 11.3926,0.0878 27.24463,5.52628 58.26547,19.98977 40.36845,18.82183 57.63835,26.16998 76.12666,32.39107 18.02299,6.06451 37.19712,10.71018 52.26619,12.66349 3.83036,0.4965 6.96429,1.11675 6.96429,1.37833 0,0.48728 -41.77389,1.05563 -139.02217,1.89147 l -55.0936,0.47352 -0.44422,-22.79376 z"
       style="opacity:0.15163933;fill:#ffffff;fill-opacity:1;fill-rule:nonzero;stroke:none" />
    <path
       inkscape:connector-curvature="0"
       id="path5212"
       d="m 157.69001,568.44165 c -0.24433,-12.53656 -0.54667,-28.01697 -0.67188,-34.4009 l -0.22764,-11.60714 1.8369,0.0141 c 11.3926,0.0878 27.24463,5.52628 58.26547,19.98977 40.36845,18.82183 57.63835,26.16998 76.12666,32.39107 17.75909,5.97571 36.75586,10.59859 51.93149,12.63757 3.64626,0.48991 6.76721,1.11344 6.93543,1.38564 0.312,0.50481 -40.38602,1.06544 -138.65861,1.91008 l -55.0936,0.47352 -0.44422,-22.79376 z"
       style="opacity:0.15163933;fill:#ffffff;fill-opacity:1;fill-rule:nonzero;stroke:none" />
    <path
       inkscape:connector-curvature="0"
       id="path5214"
       d="m 157.69001,568.44165 c -0.24433,-12.53656 -0.54667,-28.01697 -0.67188,-34.4009 l -0.22764,-11.60714 1.8369,0.0141 c 11.3926,0.0878 27.24463,5.52628 58.26547,19.98977 40.36845,18.82183 57.63835,26.16998 76.12666,32.39107 17.75909,5.97571 36.75586,10.59859 51.93149,12.63757 3.64626,0.48991 6.76721,1.11344 6.93543,1.38564 0.312,0.50481 -40.38602,1.06544 -138.65861,1.91008 l -55.0936,0.47352 -0.44422,-22.79376 z"
       style="opacity:0.15163933;fill:#ffffff;fill-opacity:1;fill-rule:nonzero;stroke:none" />
    <g
       style="stroke:#000000;stroke-width:20;stroke-miterlimit:4;stroke-opacity:1;stroke-dasharray:none"
       transform="matrix(0.0452162,0,0,-0.05152143,115.36936,708.51041)"
       clip-path="url(#clipPath7111)"
       id="g7109">
      <path
         id="path7115"
         style="fill:none;stroke:#000000;stroke-width:20;stroke-linecap:butt;stroke-linejoin:round;stroke-miterlimit:4;stroke-opacity:1;stroke-dasharray:none"
         d="m 5125,5764.17 9.17,0 0.83,0.83 23.33,0 0.84,0.83 23.33,0 0.83,0.84 24.17,0 0.83,0.83 25,0 0.84,0.83 25.83,0 0.83,0.84 26.67,0 0.83,0.83 27.5,0 1.67,0.83 27.5,0 0.83,0.84 29.17,0 0.83,0.83 16.67,0"
         inkscape:connector-curvature="0" />
      <path
         id="path7117"
         style="fill:none;stroke:#000000;stroke-width:20;stroke-linecap:butt;stroke-linejoin:round;stroke-miterlimit:4;stroke-opacity:1;stroke-dasharray:none"
         d="m 4858.33,5753.34 13.34,0 0.83,0.83 15.83,0 0.84,0.83 18.33,0 0.83,0.84 16.67,0 0.83,0.83 18.34,0 0.83,0.83 18.33,0 0.84,0.84 19.16,0 0.84,0.83 18.33,0 1.67,0.83 19.16,0 0.84,0.84 20.83,0 0.83,0.83 20.84,0 0.83,0.83 20.83,0 0.84,0.84 21.66,0 0.84,0.83 13.33,0"
         inkscape:connector-curvature="0" />
      <path
         id="path7119"
         style="fill:none;stroke:#000000;stroke-width:20;stroke-linecap:butt;stroke-linejoin:round;stroke-miterlimit:4;stroke-opacity:1;stroke-dasharray:none"
         d="m 4591.67,5738.34 9.16,0 0.84,0.83 12.5,0 1.66,0.83 12.5,0 0.84,0.84 12.5,0 0.83,0.83 12.5,0 0.83,0.83 13.34,0 0.83,0.84 12.5,0 0.83,0.83 13.34,0 0.83,0.83 14.17,0 0.83,0.84 13.33,0 0.84,0.83 15,0 0.83,0.83 14.17,0 0.83,0.84 14.17,0 0.83,0.83 15,0 0.83,0.83 15.84,0 0.83,0.84 15.83,0 0.84,0.83 15,0 0.83,0.83 16.67,0 0.83,0.84 3.33,0"
         inkscape:connector-curvature="0" />
      <path
         id="path7121"
         style="fill:none;stroke:#000000;stroke-width:20;stroke-linecap:butt;stroke-linejoin:round;stroke-miterlimit:4;stroke-opacity:1;stroke-dasharray:none"
         d="m 4324.17,5717.5 0.83,0 0.83,0.83 9.17,0 0.83,0.84 9.17,0 0.83,0.83 9.17,0 0.83,0.83 9.17,0 0.83,0.84 8.34,0 0.83,0.83 9.17,0 0.83,0.83 10,0 0.83,0.84 9.17,0 0.83,0.83 10,0 0.84,0.83 9.16,0 1.67,0.84 9.17,0 0.83,0.83 10,0 0.83,0.83 10,0 0.84,0.84 10,0 0.83,0.83 10.83,0 0.84,0.83 10.83,0 0.83,0.84 10.84,0 0.83,0.83 10.83,0 0.84,0.83 10.83,0 0.83,0.84 10,0 1.67,0.83 10.83,0 1.67,0.83 10.83,0 0.84,0.84 11.66,0 0.84,0.83 11.66,0 0.84,0.83 2.5,0"
         inkscape:connector-curvature="0" />
      <path
         id="path7123"
         style="fill:none;stroke:#000000;stroke-width:20;stroke-linecap:butt;stroke-linejoin:round;stroke-miterlimit:4;stroke-opacity:1;stroke-dasharray:none"
         d="m 4057.5,5690.84 6.67,0 0.83,0.83 5.83,0 0.84,0.83 6.66,0 0.84,0.84 5.83,0 0.83,0.83 6.67,0 0.83,0.83 6.67,0 1.67,0.84 5.83,0 0.83,0.83 6.67,0 0.83,0.83 6.67,0 0.83,0.84 6.67,0 0.83,0.83 6.67,0 1.67,0.83 6.66,0 0.84,0.84 6.66,0 0.84,0.83 6.66,0 0.84,0.83 7.5,0 0.83,0.84 7.5,0 0.83,0.83 6.67,0 0.83,0.83 7.5,0 0.84,0.84 7.5,0 0.83,0.83 7.5,0 0.83,0.83 7.5,0 0.84,0.84 8.33,0 0.83,0.83 6.67,0 0.83,0.83 8.34,0 0.83,0.84 8.33,0 0.84,0.83 6.66,0 0.84,0.83 8.33,0 0.83,0.84 8.34,0 0.83,0.83 8.33,0 1.67,0.83 7.5,0 0.83,0.84 8.34,0 0.83,0.83 9.17,0 0.83,0.83 6.67,0"
         inkscape:connector-curvature="0" />
      <path
         id="path7125"
         style="fill:none;stroke:#000000;stroke-width:20;stroke-linecap:butt;stroke-linejoin:round;stroke-miterlimit:4;stroke-opacity:1;stroke-dasharray:none"
         d="m 3790.83,5653.34 0.84,0 0.83,0.83 4.17,0 0.83,0.83 5,0 0.83,0.84 4.17,0 0.83,0.83 5,0 0.84,0.83 4.16,0 0.84,0.84 4.16,0 0.84,0.83 5,0 0.83,0.83 4.17,0 0.83,0.84 5,0 0.83,0.83 4.17,0 0.83,0.83 5,0 0.84,0.84 5,0 0.83,0.83 4.17,0 1.66,0.83 4.17,0 0.83,0.84 5,0 0.84,0.83 5,0 0.83,0.83 5,0 0.83,0.84 5,0 0.84,0.83 5,0 0.83,0.83 5,0 0.83,0.84 5,0 0.84,0.83 5.83,0 0.83,0.83 4.17,0 0.83,0.84 5.84,0 0.83,0.83 5,0 0.83,0.83 5.84,0 0.83,0.84 5,0 0.83,0.83 5.84,0 0.83,0.83 5,0 0.83,0.84 5.84,0 0.83,0.83 5,0 0.83,0.83 5.84,0 0.83,0.84 5,0 0.83,0.83 6.67,0 0.83,0.83 5,0 0.84,0.84 5.83,0 0.83,0.83 5.84,0 0.83,0.83 5.83,0 0.84,0.84 5.83,0 0.83,0.83 5.84,0 0.83,0.83 5.83,0 0.84,0.84 6.66,0 0.84,0.83 5,0 0.83,0.83 6.67,0 0.83,0.84"
         inkscape:connector-curvature="0" />
      <path
         id="path7127"
         style="fill:none;stroke:#000000;stroke-width:20;stroke-linecap:butt;stroke-linejoin:round;stroke-miterlimit:4;stroke-opacity:1;stroke-dasharray:none"
         d="m 3523.33,5604.17 3.34,0 0.83,0.83 3.33,0 0.84,0.83 2.5,0 0.83,0.84 4.17,0 0.83,0.83 2.5,0 0.83,0.83 2.5,0 0.84,0.84 4.16,0 0.84,0.83 2.5,0 0.83,0.83 3.33,0 0.84,0.84 3.33,0 0.83,0.83 3.34,0 0.83,0.83 2.5,0 0.83,0.84 4.17,0 0.83,0.83 3.34,0 0.83,0.83 2.5,0 0.83,0.84 4.17,0 0.83,0.83 3.34,0 0.83,0.83 2.5,0 0.83,0.84 4.17,0 0.83,0.83 3.34,0 0.83,0.83 2.5,0 0.83,0.84 4.17,0 0.83,0.83 3.34,0 0.83,0.83 3.33,0 0.84,0.84 4.16,0 0.84,0.83 3.33,0 0.83,0.83 2.5,0 0.84,0.84 4.16,0 0.84,0.83 3.33,0 0.83,0.83 3.34,0 0.83,0.84 4.17,0 0.83,0.83 3.33,0 0.84,0.83 3.33,0 0.83,0.84 4.17,0 0.83,0.83 3.34,0 0.83,0.83 5,0 0.83,0.84 3.34,0 0.83,0.83 3.33,0 0.84,0.83 4.16,0 0.84,0.84 3.33,0 0.83,0.83 3.34,0 0.83,0.83 5,0 0.83,0.84 3.34,0 0.83,0.83 3.33,0 1.67,0.83 4.17,0 0.83,0.84 3.33,0 0.84,0.83 5,0 0.83,0.83 3.33,0 0.84,0.84 4.16,0 0.84,0.83 4.16,0 0.84,0.83 4.16,0 0.84,0.84 4.16,0 0.84,0.83 4.16,0 0.84,0.83 3.33,0 0.83,0.84 5,0 0.84,0.83 4.16,0 0.84,0.83 4.16,0 0.84,0.84 4.16,0 0.84,0.83 4.16,0 0.84,0.83 4.16,0"
         inkscape:connector-curvature="0" />
      <path
         id="path7129"
         style="fill:none;stroke:#000000;stroke-width:20;stroke-linecap:butt;stroke-linejoin:round;stroke-miterlimit:4;stroke-opacity:1;stroke-dasharray:none"
         d="m 3256.67,5536.67 0.83,0 0.83,0.83 1.67,0 1.67,0.83 1.66,0 0.84,0.84 1.66,0 0.84,0.83 2.5,0 0.83,0.83 1.67,0 0.83,0.84 2.5,0 0.83,0.83 1.67,0 0.83,0.83 2.5,0 0.84,0.84 1.66,0 0.84,0.83 2.5,0 0.83,0.83 2.5,0 0.83,0.84 1.67,0 0.83,0.83 1.67,0 0.83,0.83 3.34,0 0.83,0.84 1.67,0 0.83,0.83 2.5,0 0.83,0.83 1.67,0 0.83,0.84 1.67,0 1.67,0.83 2.5,0 0.83,0.83 1.67,0 0.83,0.84 2.5,0 0.83,0.83 1.67,0 1.67,0.83 2.5,0 0.83,0.84 1.67,0 0.83,0.83 2.5,0 0.83,0.83 1.67,0 1.67,0.84 2.5,0 0.83,0.83 1.67,0 0.83,0.83 2.5,0 0.83,0.84 1.67,0 1.67,0.83 2.5,0 0.83,0.83 1.67,0 0.83,0.84 2.5,0 0.83,0.83 1.67,0 1.67,0.83 2.5,0 0.83,0.84 2.5,0 0.83,0.83 1.67,0 0.83,0.83 3.34,0 0.83,0.84 2.5,0 0.83,0.83 1.67,0 0.83,0.83 2.5,0 0.84,0.84 3.33,0 0.83,0.83 2.5,0 0.84,0.83 1.66,0 0.84,0.84 2.5,0 0.83,0.83 3.33,0 0.84,0.83 2.5,0 0.83,0.84 1.67,0 0.83,0.83 2.5,0 1.67,0.83 2.5,0 0.83,0.84 2.5,0 0.83,0.83 2.5,0 0.84,0.83 3.33,0 0.83,0.84 1.67,0 0.83,0.83 2.5,0 0.84,0.83 2.5,0 0.83,0.84 3.33,0 0.84,0.83 2.5,0 0.83,0.83 2.5,0 0.83,0.84 2.5,0 1.67,0.83 2.5,0 0.83,0.83 2.5,0 0.84,0.84 2.5,0 0.83,0.83 3.33,0 0.84,0.83 2.5,0 0.83,0.84 2.5,0 0.83,0.83 2.5,0 1.67,0.83 2.5,0 0.83,0.84 3.34,0 0.83,0.83 2.5,0 0.83,0.83 3.34,0 0.83,0.84 2.5,0 0.83,0.83 2.5,0 0.84,0.83 3.33,0 0.83,0.84 3.34,0 0.83,0.83 2.5,0 0.83,0.83 2.5,0 1.67,0.84 2.5,0 0.83,0.83 3.34,0 0.83,0.83 2.5,0 0.83,0.84"
         inkscape:connector-curvature="0" />
      <path
         id="path7131"
         style="fill:none;stroke:#000000;stroke-width:20;stroke-linecap:butt;stroke-linejoin:round;stroke-miterlimit:4;stroke-opacity:1;stroke-dasharray:none"
         d="m 2990,5446.67 1.67,0 0.83,0.83 0.83,0 0.84,0.83 0.83,0 0.83,0.84 2.5,0 0.84,0.83 0.83,0 0.83,0.83 1.67,0 0.83,0.84 0.84,0 0.83,0.83 0.83,0 0.84,0.83 1.66,0 0.84,0.84 1.66,0 0.84,0.83 1.66,0 0.84,0.83 0.83,0 0.83,0.84 1.67,0 0.83,0.83 0.84,0 0.83,0.83 1.67,0 1.66,0.84 0.84,0 0.83,0.83 1.67,0 0.83,0.83 0.83,0 0.84,0.84 1.66,0 0.84,0.83 0.83,0 0.83,0.83 2.5,0 0.84,0.84 0.83,0 0.83,0.83 1.67,0 0.83,0.83 0.84,0 0.83,0.84 1.67,0 0.83,0.83 0.83,0 0.84,0.83 2.5,0 0.83,0.84 0.83,0 0.84,0.83 1.66,0 0.84,0.83 0.83,0 0.83,0.84 1.67,0 0.83,0.83 2.5,0 0.84,0.83 0.83,0 0.83,0.84 1.67,0 0.83,0.83 0.84,0 0.83,0.83 1.67,0 0.83,0.84 0.83,0 0.84,0.83 2.5,0 0.83,0.83 1.67,0 0.83,0.84 0.83,0 0.84,0.83 1.66,0 0.84,0.83 1.66,0 0.84,0.84 1.66,0 0.84,0.83 1.66,0 0.84,0.83 1.66,0 0.84,0.84 0.83,0 0.83,0.83 1.67,0 0.83,0.83 2.5,0 0.84,0.84 0.83,0 0.83,0.83 1.67,0 0.83,0.83 1.67,0 0.83,0.84 0.84,0 0.83,0.83 1.67,0 1.66,0.83 1.67,0 0.83,0.84 1.67,0 0.83,0.83 0.84,0 0.83,0.83 1.67,0 0.83,0.84 1.67,0 1.66,0.83 1.67,0 0.83,0.83 0.84,0 0.83,0.84 1.67,0 0.83,0.83 1.67,0 0.83,0.83 1.67,0 1.66,0.84 1.67,0 0.83,0.83 0.84,0 0.83,0.83 1.67,0 0.83,0.84 1.67,0 0.83,0.83 1.67,0 1.66,0.83 1.67,0 0.83,0.84 1.67,0 0.83,0.83 0.84,0 0.83,0.83 1.67,0 0.83,0.84 1.67,0 1.66,0.83 1.67,0 0.83,0.83 1.67,0 0.83,0.84 1.67,0 0.83,0.83 1.67,0 0.83,0.83 1.67,0 1.67,0.84 1.66,0 0.84,0.83 1.66,0 0.84,0.83 1.66,0 0.84,0.84 0.83,0 0.83,0.83 1.67,0 1.67,0.83 1.66,0 0.84,0.84 1.66,0 0.84,0.83 1.66,0 0.84,0.83 1.66,0 0.84,0.84 2.5,0 0.83,0.83 1.67,0 0.83,0.83 1.67,0 0.83,0.84 1.67,0 0.83,0.83 1.67,0 0.83,0.83 3.33,0 0.84,0.84 1.66,0 0.84,0.83 1.66,0 0.84,0.83 1.66,0 0.84,0.84 2.5,0 0.83,0.83 1.67,0 0.83,0.83 1.67,0 0.83,0.84 1.67,0 0.83,0.83 1.67,0 0.83,0.83 2.5,0 0.83,0.84 2.5,0 0.84,0.83 1.66,0 0.84,0.83 1.66,0 0.84,0.84 2.5,0 0.83,0.83 1.67,0 0.83,0.83 2.5,0 0.83,0.84 0.84,0"
         inkscape:connector-curvature="0" />
      <path
         id="path7133"
         style="fill:none;stroke:#000000;stroke-width:20;stroke-linecap:butt;stroke-linejoin:round;stroke-miterlimit:4;stroke-opacity:1;stroke-dasharray:none"
         d="m 2723.33,5324.17 0.84,0.83 0.83,0 0.83,0.83 0.84,0.84 0.83,0 0.83,0.83 0.84,0 0.83,0.83 0.83,0 0.84,0.84 0.83,0 0.83,0.83 1.67,0.83 0.83,0 0.84,0.84 0.83,0 0.83,0.83 0.84,0 0.83,0.83 0.83,0 0.84,0.84 0.83,0.83 0.83,0 0.84,0.83 0.83,0 0.83,0.84 1.67,0 0.83,0.83 0.84,0 0.83,0.83 0.83,0.84 0.84,0 0.83,0.83 0.83,0 0.84,0.83 0.83,0 0.83,0.84 0.84,0 0.83,0.83 0.83,0 1.67,0.83 0.83,0.84 0.84,0 0.83,0.83 0.83,0 0.84,0.83 0.83,0 0.83,0.84 0.84,0 0.83,0.83 0.83,0 0.84,0.83 0.83,0 0.83,0.84 1.67,0.83 0.83,0 0.84,0.83 0.83,0 0.83,0.84 0.84,0 0.83,0.83 0.83,0 0.84,0.83 0.83,0 0.83,0.84 0.84,0 0.83,0.83 0.83,0 1.67,0.83 0.83,0.84 0.84,0 0.83,0.83 0.83,0 0.84,0.83 0.83,0 0.83,0.84 0.84,0 0.83,0.83 0.83,0 0.84,0.83 0.83,0 0.83,0.84 1.67,0 0.83,0.83 0.84,0 0.83,0.83 0.83,0 0.84,0.84 0.83,0 0.83,0.83 0.84,0.83 0.83,0 0.83,0.84 0.84,0 0.83,0.83 0.83,0 1.67,0.83 0.83,0 0.84,0.84 0.83,0 0.83,0.83 0.84,0 0.83,0.83 0.83,0 0.84,0.84 0.83,0 0.83,0.83 0.84,0 0.83,0.83 0.83,0 1.67,0.84 0.83,0 0.84,0.83 0.83,0 0.83,0.83 0.84,0 0.83,0.84 0.83,0 0.84,0.83 0.83,0 0.83,0.83 0.84,0 0.83,0.84 0.83,0 1.67,0.83 0.83,0 0.84,0.83 0.83,0 0.83,0.84 0.84,0 0.83,0.83 0.83,0 0.84,0.83 0.83,0 0.83,0.84 0.84,0 0.83,0.83 0.83,0 1.67,0.83 0.83,0 0.84,0.84 0.83,0 0.83,0.83 0.84,0 0.83,0.83 0.83,0 0.84,0.84 0.83,0 0.83,0.83 0.84,0 0.83,0.83 0.83,0 1.67,0.84 0.83,0 0.84,0.83 0.83,0 0.83,0.83 0.84,0 0.83,0.84 1.67,0 0.83,0.83 0.83,0 0.84,0.83 0.83,0 0.83,0.84 1.67,0 0.83,0.83 0.84,0 0.83,0.83 0.83,0 0.84,0.84 0.83,0 0.83,0.83 0.84,0 0.83,0.83 0.83,0 0.84,0.84 0.83,0 0.83,0.83 2.5,0 0.84,0.83 0.83,0 0.83,0.84 0.84,0 0.83,0.83 0.83,0 0.84,0.83 0.83,0 0.83,0.84 0.84,0 0.83,0.83 0.83,0 0.84,0.83 1.66,0 0.84,0.84 1.66,0 0.84,0.83 0.83,0 0.83,0.83 0.84,0 0.83,0.84 0.83,0 0.84,0.83 0.83,0 0.83,0.83 0.84,0 1.66,0.84 1.67,0 0.83,0.83 0.84,0 0.83,0.83 0.83,0 0.84,0.84 0.83,0 0.83,0.83 0.84,0 0.83,0.83 1.67,0 1.66,0.84 0.84,0 0.83,0.83 0.83,0 0.84,0.83 0.83,0 0.83,0.84 0.84,0 0.83,0.83 1.67,0 0.83,0.83 0.83,0 0.84,0.84 1.66,0 0.84,0.83 0.83,0 0.83,0.83 1.67,0 0.83,0.84 0.84,0 0.83,0.83 0.83,0 0.84,0.83 0.83,0 0.83,0.84 2.5,0 0.84,0.83 0.83,0 0.83,0.83 0.84,0 0.83,0.84 1.67,0 0.83,0.83 0.83,0 0.84,0.83 0.83,0 0.83,0.84 0.84,0 1.66,0.83 1.67,0 0.83,0.83 0.84,0 0.83,0.84 0.83,0 0.84,0.83 1.66,0 0.84,0.83 0.83,0 0.83,0.84 0.84,0 1.66,0.83 1.67,0 0.83,0.83 0.84,0 0.83,0.84 0.83,0 0.84,0.83 1.66,0 0.84,0.83 0.83,0 0.83,0.84 2.5,0 0.84,0.83 0.83,0 0.83,0.83 0.84,0 0.83,0.84"
         inkscape:connector-curvature="0" />
      <path
         id="path7135"
         style="fill:none;stroke:#000000;stroke-width:20;stroke-linecap:butt;stroke-linejoin:round;stroke-miterlimit:4;stroke-opacity:1;stroke-dasharray:none"
         d="m 2455.83,5160 0.84,0.83 0.83,0 1.67,0.84 0.83,0.83 0.83,0.83 0.84,0 0.83,0.84 0.83,0.83 0.84,0.83 0.83,0.84 0.83,0 0.84,0.83 0.83,0.83 0.83,0.84 0.84,0 0.83,0.83 1.67,0.83 0.83,0.84 0.83,0 0.84,0.83 0.83,0.83 0.83,0.84 0.84,0 0.83,0.83 0.83,0.83 0.84,0.84 0.83,0 0.83,0.83 0.84,0.83 0.83,0 1.67,0.84 0.83,0.83 0.83,0.83 0.84,0 0.83,0.84 0.83,0.83 0.84,0.83 0.83,0 0.83,0.84 0.84,0.83 0.83,0.83 0.83,0 0.84,0.84 0.83,0.83 1.67,0.83 0.83,0 0.83,0.84 0.84,0.83 0.83,0 0.83,0.83 0.84,0.84 0.83,0.83 0.83,0 0.84,0.83 0.83,0.84 0.83,0.83 0.84,0 0.83,0.83 1.67,0.84 0.83,0 0.83,0.83 0.84,0.83 0.83,0.84 0.83,0 0.84,0.83 0.83,0.83 0.83,0 0.84,0.84 0.83,0.83 0.83,0.83 0.84,0 0.83,0.84 1.67,0.83 0.83,0 0.83,0.83 0.84,0.84 0.83,0.83 0.83,0 0.84,0.83 0.83,0.84 0.83,0 0.84,0.83 0.83,0.83 0.83,0 0.84,0.84 0.83,0.83 1.67,0.83 0.83,0 0.83,0.84 0.84,0.83 0.83,0 0.83,0.83 0.84,0.84 0.83,0 0.83,0.83 0.84,0.83 0.83,0.84 0.83,0 0.84,0.83 0.83,0.83 1.67,0 0.83,0.84 0.83,0.83 0.84,0 0.83,0.83 0.83,0.84 0.84,0 0.83,0.83 0.83,0.83 0.84,0 0.83,0.84 0.83,0.83 0.84,0.83 0.83,0 1.67,0.84 0.83,0.83 0.83,0 0.84,0.83 0.83,0.84 0.83,0 0.84,0.83 0.83,0.83 0.83,0 0.84,0.84 0.83,0.83 0.83,0 0.84,0.83 0.83,0.84 1.67,0 0.83,0.83 0.83,0.83 0.84,0 0.83,0.84 0.83,0.83 0.84,0 0.83,0.83 0.83,0.84 0.84,0 0.83,0.83 0.83,0.83 0.84,0 0.83,0.84 1.67,0.83 0.83,0 0.83,0.83 0.84,0.84 0.83,0 0.83,0.83 0.84,0.83 0.83,0 0.83,0.84 0.84,0.83 0.83,0 0.83,0.83 0.84,0.84 0.83,0 1.67,0.83 0.83,0.83 0.83,0 0.84,0.84 0.83,0 0.83,0.83 0.84,0.83 0.83,0 0.83,0.84 0.84,0.83 0.83,0 0.83,0.83 0.84,0.84 0.83,0 0.83,0.83 1.67,0.83 0.83,0 0.84,0.84 0.83,0.83 0.83,0 0.84,0.83 0.83,0 0.83,0.84 0.84,0.83 0.83,0 0.83,0.83 0.84,0.84 0.83,0 0.83,0.83 1.67,0.83 0.83,0 0.84,0.84 0.83,0 0.83,0.83 0.84,0.83 0.83,0 0.83,0.84 0.84,0.83 0.83,0 0.83,0.83 0.84,0 0.83,0.84 0.83,0.83 1.67,0 0.83,0.83 0.84,0.84 0.83,0 0.83,0.83 0.84,0 0.83,0.83 0.83,0.84 0.84,0 0.83,0.83 0.83,0.83 0.84,0 0.83,0.84 0.83,0 1.67,0.83 0.83,0.83 0.84,0 0.83,0.84 0.83,0 0.84,0.83 0.83,0.83 0.83,0 0.84,0.84 0.83,0.83 0.83,0 0.84,0.83 0.83,0 0.83,0.84 1.67,0.83 0.83,0 0.84,0.83 0.83,0 0.83,0.84 0.84,0.83 0.83,0 0.83,0.83 0.84,0 0.83,0.84 0.83,0.83 0.84,0 0.83,0.83 0.83,0 1.67,0.84 0.83,0.83 0.84,0 0.83,0.83 0.83,0 0.84,0.84 0.83,0.83 0.83,0 0.84,0.83 0.83,0 0.83,0.84 0.84,0.83 0.83,0 0.83,0.83 1.67,0 0.83,0.84 0.84,0.83 0.83,0 0.83,0.83 0.84,0 0.83,0.84 0.83,0.83 0.84,0 0.83,0.83 0.83,0 0.84,0.84 0.83,0 0.83,0.83 1.67,0.83 0.83,0 0.84,0.84 0.83,0 0.83,0.83 0.84,0.83 0.83,0 0.83,0.84 0.84,0 0.83,0.83 0.83,0 0.84,0.83 0.83,0.84 0.83,0 1.67,0.83 0.83,0 0.84,0.83 0.83,0 0.83,0.84 0.84,0.83 0.83,0 0.83,0.83 0.84,0 0.83,0.84 0.83,0 0.84,0.83 0.83,0.83 0.83,0 1.67,0.84 0.83,0"
         inkscape:connector-curvature="0" />
      <path
         id="path7137"
         style="fill:none;stroke:#000000;stroke-width:20;stroke-linecap:butt;stroke-linejoin:round;stroke-miterlimit:4;stroke-opacity:1;stroke-dasharray:none"
         d="m 2189.17,4938.34 0.83,0.83 0.83,0.83 0.84,0.84 0.83,0.83 0.83,0.83 0.84,0.84 1.66,0.83 0.84,0.83 0.83,0.84 0.83,0.83 0.84,0.83 0.83,0.84 0.83,0.83 0.84,0.83 0.83,0.84 0.83,0.83 0.84,0.83 0.83,0.84 0.83,0.83 0.84,0.83 1.66,0.84 0.84,0.83 0.83,0.83 0.83,0.84 0.84,0.83 0.83,0.83 0.83,0.84 0.84,0.83 0.83,0.83 0.83,0.84 0.84,0.83 0.83,0.83 0.83,0.84 0.84,0.83 1.66,0.83 0.84,0.84 0.83,0.83 0.83,0.83 0.84,0.84 0.83,0.83 0.83,0.83 0.84,0.84 0.83,0.83 0.83,0.83 0.84,0.84 0.83,0.83 0.83,0.83 0.84,0.84 1.66,0.83 0.84,0.83 0.83,0.84 0.83,0.83 0.84,0.83 0.83,0.84 0.83,0.83 0.84,0.83 0.83,0.84 0.83,0.83 0.84,0.83 0.83,0.84 0.83,0.83 0.84,0.83 1.66,0.84 0.84,0.83 0.83,0.83 0.83,0.84 0.84,0.83 0.83,0.83 0.83,0 0.84,0.84 0.83,0.83 0.83,0.83 0.84,0.84 0.83,0.83 0.83,0.83 0.84,0.84 1.66,0.83 0.84,0.83 0.83,0.84 0.83,0.83 0.84,0.83 0.83,0.84 0.83,0.83 0.84,0.83 0.83,0.84 0.83,0.83 0.84,0.83 0.83,0.84 0.83,0 0.84,0.83 1.66,0.83 0.84,0.84 0.83,0.83 0.83,0.83 0.84,0.84 0.83,0.83 0.83,0.83 0.84,0.84 0.83,0.83 0.83,0.83 0.84,0.84 0.83,0.83 0.83,0.83 0.84,0.84 1.66,0 0.84,0.83 0.83,0.83 0.83,0.84 0.84,0.83 0.83,0.83 0.83,0.84 0.84,0.83 0.83,0.83 0.83,0.84 0.84,0.83 0.83,0.83 0.83,0.84 0.84,0 1.66,0.83 0.84,0.83 0.83,0.84 0.83,0.83 0.84,0.83 0.83,0.84 0.83,0.83 0.84,0.83 0.83,0.84 0.83,0.83 0.84,0 0.83,0.83 0.83,0.84 0.84,0.83 1.66,0.83 0.84,0.84 0.83,0.83 0.83,0.83 0.84,0.84 0.83,0.83 0.83,0 0.84,0.83 0.83,0.84 0.83,0.83 0.84,0.83 0.83,0.84 0.83,0.83 0.84,0.83 1.66,0.84 0.84,0 0.83,0.83 0.83,0.83 0.84,0.84 0.83,0.83 0.83,0.83 0.84,0.84 0.83,0.83 0.83,0.83 0.84,0 0.83,0.84 0.83,0.83 0.84,0.83 0.83,0.84 1.67,0.83 0.83,0.83 0.83,0.84 0.84,0 0.83,0.83 0.83,0.83 0.84,0.84 0.83,0.83 0.83,0.83 0.84,0.84 0.83,0.83 0.83,0 0.84,0.83 0.83,0.84 1.67,0.83 0.83,0.83 0.83,0.84 0.84,0.83 0.83,0 0.83,0.83 0.84,0.84 0.83,0.83 0.83,0.83 0.84,0.84 0.83,0.83 0.83,0 0.84,0.83 0.83,0.84 1.67,0.83 0.83,0.83 0.83,0.84 0.84,0.83 0.83,0 0.83,0.83 0.84,0.84 0.83,0.83 0.83,0.83 0.84,0.84 0.83,0 0.83,0.83 0.84,0.83 0.83,0.84 1.67,0.83 0.83,0.83 0.83,0.84 0.84,0 0.83,0.83 0.83,0.83 0.84,0.84 0.83,0.83 0.83,0.83 0.84,0 0.83,0.84 0.83,0.83 0.84,0.83 0.83,0.84 1.67,0.83 0.83,0 0.83,0.83 0.84,0.84 0.83,0.83 0.83,0.83 0.84,0 0.83,0.84 0.83,0.83 0.84,0.83 0.83,0.84 0.83,0.83 0.84,0 0.83,0.83 1.67,0.84 0.83,0.83 0.83,0.83 0.84,0 0.83,0.84 0.83,0.83 0.84,0.83 0.83,0.84 0.83,0.83 0.84,0 0.83,0.83 0.83,0.84 0.84,0.83 0.83,0.83 1.67,0 0.83,0.84 0.83,0.83 0.84,0.83 0.83,0.84 0.83,0 0.84,0.83 0.83,0.83 0.83,0.84 0.84,0.83 0.83,0 0.83,0.83 0.84,0.84 0.83,0.83 1.67,0.83 0.83,0 0.83,0.84 0.84,0.83 0.83,0.83 0.83,0.84 0.84,0 0.83,0.83 0.83,0.83 0.84,0.84 0.83,0 0.83,0.83 0.84,0.83 0.83,0.84 1.67,0.83 0.83,0 0.83,0.83 0.84,0.84 0.83,0.83 0.83,0 0.84,0.83 0.83,0.84 0.83,0.83 0.84,0.83 0.83,0 0.83,0.84 0.84,0.83 0.83,0.83 1.67,0 0.83,0.84 0.83,0.83 0.84,0.83 0.83,0.84 0.83,0 0.84,0.83 0.83,0.83 0.83,0.84 0.84,0 0.83,0.83 0.83,0.83"
         inkscape:connector-curvature="0" />
      <path
         id="path7139"
         style="fill:none;stroke:#000000;stroke-width:20;stroke-linecap:butt;stroke-linejoin:round;stroke-miterlimit:4;stroke-opacity:1;stroke-dasharray:none"
         d="m 1922.5,4639.17 0.83,0.83 0.84,1.67 0.83,0.83 0.83,0.83 0.84,1.67 0.83,0.83 0.83,1.67 0.84,0.83 0.83,0.84 0.83,1.66 1.67,0.84 0.83,1.66 0.84,0.84 0.83,0.83 0.83,1.67 0.84,0.83 0.83,0.83 0.83,1.67 0.84,0.83 0.83,0.84 0.83,1.66 0.84,0.84 0.83,1.66 0.83,0.84 1.67,0.83 0.83,1.67 0.84,0.83 0.83,0.83 0.83,1.67 0.84,0.83 0.83,0.84 0.83,1.66 0.84,0.84 0.83,0.83 0.83,1.67 0.84,0.83 0.83,0.83 0.83,1.67 1.67,0.83 0.83,0.84 0.84,1.66 0.83,0.84 0.83,0.83 0.84,1.67 0.83,0.83 0.83,0.83 0.84,1.67 0.83,0.83 0.83,0.84 0.84,1.66 0.83,0.84 0.83,0.83 1.67,1.67 0.83,0.83 0.84,0.83 0.83,1.67 0.83,0.83 0.84,0.84 0.83,1.66 0.83,0.84 0.84,0.83 0.83,0.83 0.83,1.67 0.84,0.83 0.83,0.84 0.83,1.66 1.67,0.84 0.83,0.83 0.84,1.67 0.83,0.83 0.83,0.83 0.84,0.84 0.83,1.66 0.83,0.84 0.84,0.83 0.83,1.67 0.83,0.83 0.84,0.83 0.83,0.84 0.83,1.66 1.67,0.84 0.83,0.83 0.84,1.67 0.83,0.83 0.83,0.83 0.84,0.84 0.83,1.66 0.83,0.84 0.84,0.83 0.83,0.83 0.83,1.67 0.84,0.83 0.83,0.84 0.83,1.66 1.67,0.84 0.83,0.83 0.84,0.83 0.83,1.67 0.83,0.83 0.84,0.84 0.83,0.83 0.83,1.67 0.84,0.83 0.83,0.83 0.83,0.84 0.84,1.66 0.83,0.84 0.83,0.83 1.67,0.83 0.83,1.67 0.84,0.83 0.83,0.84 0.83,0.83 0.84,1.67 0.83,0.83 0.83,0.83 0.84,0.84 0.83,1.66 0.83,0.84 0.84,0.83 0.83,0.83 0.83,0.84 1.67,1.66 0.83,0.84 0.84,0.83 0.83,0.83 0.83,1.67 0.84,0.83 0.83,0.84 0.83,0.83 0.84,0.83 0.83,1.67 0.83,0.83 0.84,0.84 0.83,0.83 0.83,1.67 1.67,0.83 0.83,0.83 0.84,0.84 0.83,0.83 0.83,1.67 0.84,0.83 0.83,0.83 0.83,0.84 0.84,0.83 0.83,1.67 0.83,0.83 0.84,0.83 0.83,0.84 0.83,0.83 0.84,1.67 1.66,0.83 0.84,0.83 0.83,0.84 0.83,0.83 0.84,1.67 0.83,0.83 0.83,0.83 0.84,0.84 0.83,0.83 0.83,0.83 0.84,1.67 0.83,0.83 0.83,0.84 0.84,0.83 1.66,0.83 0.84,1.67 0.83,0.83 0.83,0.84 0.84,0.83 0.83,0.83 0.83,0.84 0.84,1.66 0.83,0.84 0.83,0.83 0.84,0.83 0.83,0.84 0.83,0.83 0.84,1.67 1.66,0.83 0.84,0.83 0.83,0.84 0.83,0.83 0.84,0.83 0.83,0.84 0.83,1.66 0.84,0.84 0.83,0.83 0.83,0.83 0.84,0.84 0.83,0.83 0.83,1.67 0.84,0.83 1.66,0.83 0.84,0.84 0.83,0.83 0.83,0.83 0.84,0.84 0.83,1.66 0.83,0.84 0.84,0.83 0.83,0.83 0.83,0.84 0.84,0.83 0.83,0.83 0.83,0.84 0.84,1.66 1.66,0.84 0.84,0.83 0.83,0.83 0.83,0.84 0.84,0.83 0.83,0.83 0.83,0.84 0.84,1.66 0.83,0.84 0.83,0.83 0.84,0.83 0.83,0.84 0.83,0.83 0.84,0.83 1.66,0.84 0.84,1.66 0.83,0.84 0.83,0.83 0.84,0.83 0.83,0.84 0.83,0.83 0.84,0.83 0.83,0.84 0.83,0.83 0.84,0.83 0.83,1.67 0.83,0.83 0.84,0.84 1.66,0.83 0.84,0.83 0.83,0.84 0.83,0.83 0.84,0.83 0.83,0.84 0.83,0.83 0.84,1.67 0.83,0.83 0.83,0.83 0.84,0.84 0.83,0.83 0.83,0.83 0.84,0.84 1.66,0.83 0.84,0.83 0.83,0.84 0.83,0.83 0.84,0.83 0.83,0.84 0.83,1.66 0.84,0.84 0.83,0.83 0.83,0.83 0.84,0.84 0.83,0.83 0.83,0.83 0.84,0.84 1.66,0.83 0.84,0.83 0.83,0.84 0.83,0.83 0.84,0.83 0.83,0.84 0.83,1.66 0.84,0.84 0.83,0.83 0.83,0.83 0.84,0.84 0.83,0.83 0.83,0.83 0.84,0.84 1.66,0.83 0.84,0.83 0.83,0.84 0.83,0.83 0.84,0.83 0.83,0.84 0.83,0.83 0.84,0.83 0.83,0.84 0.83,0.83 0.84,0.83 0.83,0.84 0.83,1.66 0.84,0.84 1.66,0.83 0.84,0.83 0.83,0.84 0.83,0.83 0.84,0.83 0.83,0.84 0.83,0.83 0.84,0.83"
         inkscape:connector-curvature="0" />
      <path
         id="path7141"
         style="fill:none;stroke:#000000;stroke-width:20;stroke-linecap:butt;stroke-linejoin:round;stroke-miterlimit:4;stroke-opacity:1;stroke-dasharray:none"
         d="m 1655,4235.84 1.67,1.66 0.83,1.67 0.83,1.67 0.84,1.66 0.83,0.84 0.83,1.66 0.84,1.67 0.83,1.67 0.83,1.66 0.84,1.67 0.83,1.67 0.83,0.83 0.84,1.67 0.83,1.66 1.67,1.67 0.83,1.67 0.83,1.66 0.84,0.84 0.83,1.66 0.83,1.67 0.84,1.67 0.83,1.66 0.83,1.67 0.84,0.83 0.83,1.67 0.83,1.67 0.84,1.66 0.83,1.67 1.67,1.67 0.83,0.83 0.83,1.67 0.84,1.66 0.83,1.67 0.83,1.67 0.84,0.83 0.83,1.67 0.83,1.66 0.84,1.67 0.83,1.67 0.83,0.83 0.84,1.67 0.83,1.66 1.67,1.67 0.83,1.67 0.83,0.83 0.84,1.67 0.83,1.66 0.83,1.67 0.84,1.67 0.83,0.83 0.83,1.67 0.84,1.66 0.83,1.67 0.83,0.83 0.84,1.67 0.83,1.67 1.67,1.66 0.83,1.67 0.83,0.83 0.84,1.67 0.83,1.67 0.83,1.66 0.84,0.84 0.83,1.66 0.83,1.67 0.84,1.67 0.83,0.83 0.83,1.67 0.84,1.66 0.83,1.67 1.67,0.83 0.83,1.67 0.83,1.67 0.84,1.66 0.83,0.84 0.83,1.66 0.84,1.67 0.83,1.67 0.83,0.83 0.84,1.67 0.83,1.66 0.83,0.84 0.84,1.66 0.83,1.67 1.67,1.67 0.83,0.83 0.83,1.67 0.84,1.66 0.83,0.84 0.83,1.66 0.84,1.67 0.83,1.67 0.83,0.83 0.84,1.67 0.83,1.66 0.83,0.84 0.84,1.66 0.83,1.67 1.67,1.67 0.83,0.83 0.83,1.67 0.84,1.66 0.83,0.84 0.83,1.66 0.84,1.67 0.83,0.83 0.83,1.67 0.84,1.67 0.83,0.83 0.83,1.67 0.84,1.66 0.83,0.84 1.67,1.66 0.83,1.67 0.83,0.83 0.84,1.67 0.83,1.67 0.83,0.83 0.84,1.67 0.83,1.66 0.83,0.84 0.84,1.66 0.83,1.67 0.83,0.83 0.84,1.67 0.83,1.67 0.83,0.83 1.67,1.67 0.83,1.66 0.84,0.84 0.83,1.66 0.83,1.67 0.84,0.83 0.83,1.67 0.83,0.83 0.84,1.67 0.83,1.67 0.83,0.83 0.84,1.67 0.83,1.66 0.83,0.84 1.67,1.66 0.83,1.67 0.84,0.83 0.83,1.67 0.83,0.83 0.84,1.67 0.83,1.67 0.83,0.83 0.84,1.67 0.83,0.83 0.83,1.67 0.84,1.66 0.83,0.84 0.83,1.66 1.67,0.84 0.83,1.66 0.84,1.67 0.83,0.83 0.83,1.67 0.84,0.83 0.83,1.67 0.83,1.67 0.84,0.83 0.83,1.67 0.83,0.83 0.84,1.67 0.83,1.66 0.83,0.84 1.67,1.66 0.83,0.84 0.84,1.66 0.83,0.84 0.83,1.66 0.84,1.67 0.83,0.83 0.83,1.67 0.84,0.83 0.83,1.67 0.83,0.83 0.84,1.67 0.83,1.67 0.83,0.83 1.67,1.67 0.83,0.83 0.84,1.67 0.83,0.83 0.83,1.67 0.84,0.83 0.83,1.67 0.83,1.66 0.84,0.84 0.83,1.66 0.83,0.84 0.84,1.66 0.83,0.84 0.83,1.66 1.67,0.84 0.83,1.66 0.84,0.84 0.83,1.66 0.83,1.67 0.84,0.83 0.83,1.67 0.83,0.83 0.84,1.67 0.83,0.83 0.83,1.67 0.84,0.83 0.83,1.67 0.83,0.83 1.67,1.67 0.83,0.83 0.84,1.67 0.83,0.83 0.83,1.67 0.84,0.83 0.83,1.67 0.83,0.83 0.84,1.67 0.83,0.83 0.83,1.67 0.84,0.83 0.83,1.67 0.83,0.83 1.67,1.67 0.83,0.83 0.84,1.67 0.83,0.83 0.83,1.67 0.84,0.83 0.83,1.67 0.83,0.83 0.84,1.67 0.83,0.83 0.83,1.67 0.84,0.83 0.83,1.67 0.83,0.83 1.67,1.67 0.83,0.83 0.84,1.67 0.83,0.83 0.83,0.84 0.84,1.66 0.83,0.84 0.83,1.66 0.84,0.84 0.83,1.66 0.83,0.84 0.84,1.66 0.83,0.84 0.83,1.66 1.67,0.84 0.83,0.83 0.84,1.67 0.83,0.83 0.83,1.67 0.84,0.83 0.83,1.67 0.83,0.83 0.84,1.67 0.83,0.83 0.83,0.83 0.84,1.67 0.83,0.83 0.83,1.67 1.67,0.83 0.83,1.67 0.84,0.83 0.83,1.67 0.83,0.83 0.84,0.84 0.83,1.66 0.83,0.84 0.84,1.66 0.83,0.84 0.83,0.83 0.84,1.67 0.83,0.83 0.83,1.67 1.67,0.83 0.83,1.67 0.84,0.83 0.83,0.83 0.83,1.67 0.84,0.83 0.83,1.67 0.83,0.83 0.84,0.84 0.83,1.66 0.83,0.84 0.84,1.66 0.83,0.84 0.83,0.83 1.67,1.67 0.83,0.83 0.84,1.67 0.83,0.83"
         inkscape:connector-curvature="0" />
      <path
         id="path7143"
         style="fill:none;stroke:#000000;stroke-width:20;stroke-linecap:butt;stroke-linejoin:round;stroke-miterlimit:4;stroke-opacity:1;stroke-dasharray:none"
         d="m 1388.33,3691.67 0.84,2.5 0.83,2.5 0.83,1.66 0.84,2.5 1.66,1.67 0.84,2.5 0.83,1.67 0.83,2.5 0.84,1.66 0.83,2.5 0.83,1.67 0.84,2.5 0.83,1.67 0.83,2.5 0.84,1.66 0.83,2.5 0.83,1.67 0.84,2.5 1.66,1.67 0.84,1.66 0.83,2.5 0.83,1.67 0.84,2.5 0.83,1.67 0.83,2.5 0.84,1.66 0.83,2.5 0.83,1.67 0.84,2.5 0.83,1.67 0.83,2.5 0.84,1.66 1.66,1.67 0.84,2.5 0.83,1.67 0.83,2.5 0.84,1.66 0.83,2.5 0.83,1.67 0.84,1.67 0.83,2.5 0.83,1.66 0.84,2.5 0.83,1.67 0.83,2.5 0.84,1.67 1.66,1.66 0.84,2.5 0.83,1.67 0.83,2.5 0.84,1.67 0.83,1.66 0.83,2.5 0.84,1.67 0.83,2.5 0.83,1.67 0.84,1.66 0.83,2.5 0.83,1.67 0.84,2.5 1.66,1.67 0.84,1.66 0.83,2.5 0.83,1.67 0.84,1.67 0.83,2.5 0.83,1.66 0.84,1.67 0.83,2.5 0.83,1.67 0.84,2.5 0.83,1.66 0.83,1.67 0.84,2.5 1.66,1.67 0.84,1.66 0.83,2.5 0.83,1.67 0.84,1.67 0.83,2.5 0.83,1.66 0.84,1.67 0.83,2.5 0.83,1.67 0.84,1.66 0.83,2.5 0.83,1.67 0.84,1.67 1.66,1.66 0.84,2.5 0.83,1.67 0.83,1.67 0.84,2.5 0.83,1.66 0.83,1.67 0.84,2.5 0.83,1.67 0.83,1.66 0.84,1.67 0.83,2.5 0.83,1.67 0.84,1.66 1.66,2.5 0.84,1.67 0.83,1.67 0.83,1.66 0.84,2.5 0.83,1.67 0.83,1.67 0.84,1.66 0.83,2.5 0.83,1.67 0.84,1.67 0.83,2.5 0.83,1.66 0.84,1.67 0.83,1.67 1.67,2.5 0.83,1.66 0.83,1.67 0.84,1.67 0.83,1.66 0.83,2.5 0.84,1.67 0.83,1.67 0.83,1.66 0.84,2.5 0.83,1.67 0.83,1.67 0.84,1.66 0.83,1.67 1.67,2.5 0.83,1.67 0.83,1.66 0.84,1.67 0.83,2.5 0.83,1.67 0.84,1.66 0.83,1.67 0.83,1.67 0.84,2.5 0.83,1.66 0.83,1.67 0.84,1.67 0.83,1.66 1.67,1.67 0.83,2.5 0.83,1.67 0.84,1.66 0.83,1.67 0.83,1.67 0.84,2.5 0.83,1.66 0.83,1.67 0.84,1.67 0.83,1.66 0.83,1.67 0.84,1.67 0.83,2.5 1.67,1.66 0.83,1.67 0.83,1.67 0.84,1.66 0.83,1.67 0.83,2.5 0.84,1.67 0.83,1.66 0.83,1.67 0.84,1.67 0.83,1.66 0.83,1.67 0.84,1.67 0.83,2.5 1.67,1.66 0.83,1.67 0.83,1.67 0.84,1.66 0.83,1.67 0.83,1.67 0.84,1.66 0.83,2.5 0.83,1.67 0.84,1.67 0.83,1.66 0.83,1.67 0.84,1.67 0.83,1.66 1.67,1.67 0.83,1.67 0.83,1.66 0.84,1.67 0.83,2.5 0.83,1.67 0.84,1.66 0.83,1.67 0.83,1.67 0.84,1.66 0.83,1.67 0.83,1.67 0.84,1.66 0.83,1.67 1.67,1.67 0.83,1.66 0.83,1.67 0.84,1.67 0.83,2.5 0.83,1.66 0.84,1.67 0.83,1.67 0.83,1.66 0.84,1.67 0.83,1.67 0.83,1.66 0.84,1.67 0.83,1.67 1.67,1.66 0.83,1.67 0.83,1.67 0.84,1.66 0.83,1.67 0.83,1.67 0.84,1.66 0.83,1.67 0.83,1.67 0.84,1.66 0.83,1.67 0.83,1.67 0.84,1.66 0.83,1.67 1.67,1.67 0.83,1.66 0.83,1.67 0.84,1.67 0.83,1.66 0.83,1.67 0.84,1.67 0.83,1.66 0.83,1.67 0.84,1.67 0.83,1.66 0.83,1.67 0.84,1.67 0.83,1.66 1.67,1.67 0.83,1.67 0.83,1.66 0.84,1.67 0.83,1.67 0.83,1.66 0.84,1.67 0.83,1.67 0.83,1.66 0.84,1.67 0.83,1.67 0.83,1.66 0.84,1.67 0.83,1.67 1.67,1.66 0.83,1.67 0.83,1.67 0.84,1.66 0.83,0.84 0.83,1.66 0.84,1.67 0.83,1.67 0.83,1.66 0.84,1.67 0.83,1.67 0.83,1.66 0.84,1.67 0.83,1.67 1.67,1.66 0.83,1.67 0.83,1.67 0.84,1.66 0.83,0.84 0.83,1.66 0.84,1.67 0.83,1.67 0.83,1.66 0.84,1.67 0.83,1.67 0.83,1.66 0.84,1.67 0.83,1.67 1.67,1.66 0.83,0.84 0.83,1.66 0.84,1.67 0.83,1.67 0.83,1.66 0.84,1.67 0.83,1.67 0.83,1.66 0.84,1.67 0.83,0.83 0.83,1.67 0.84,1.67 0.83,1.66"
         inkscape:connector-curvature="0" />
      <path
         id="path7145"
         style="fill:none;stroke:#000000;stroke-width:20;stroke-linecap:butt;stroke-linejoin:round;stroke-miterlimit:4;stroke-opacity:1;stroke-dasharray:none"
         d="m 1121.67,2958.33 0.83,3.34 0.83,2.5 0.84,3.33 0.83,2.5 0.83,2.5 0.84,3.33 0.83,2.5 0.83,3.34 1.67,2.5 0.83,2.5 0.84,3.33 0.83,2.5 0.83,2.5 0.84,3.33 0.83,2.5 0.83,3.34 0.84,2.5 0.83,2.5 0.83,3.33 0.84,2.5 0.83,2.5 0.83,3.33 1.67,2.5 0.83,2.5 0.84,3.34 0.83,2.5 0.83,2.5 0.84,2.5 0.83,3.33 0.83,2.5 0.84,2.5 0.83,3.33 0.83,2.5 0.84,2.5 0.83,3.34 0.83,2.5 1.67,2.5 0.83,2.5 0.84,3.33 0.83,2.5 0.83,2.5 0.84,3.33 0.83,2.5 0.83,2.5 0.84,2.5 0.83,3.34 0.83,2.5 0.84,2.5 0.83,2.5 0.83,3.33 1.67,2.5 0.83,2.5 0.84,2.5 0.83,2.5 0.83,3.33 0.84,2.5 0.83,2.5 0.83,2.5 0.84,3.34 0.83,2.5 0.83,2.5 0.84,2.5 0.83,2.5 0.83,3.33 1.67,2.5 0.83,2.5 0.84,2.5 0.83,2.5 0.83,2.5 0.84,3.33 0.83,2.5 0.83,2.5 0.84,2.5 0.83,2.5 0.83,2.5 0.84,3.34 0.83,2.5 0.83,2.5 1.67,2.5 0.83,2.5 0.84,2.5 0.83,3.33 0.83,2.5 0.84,2.5 0.83,2.5 0.83,2.5 0.84,2.5 0.83,2.5 0.83,2.5 0.84,3.33 0.83,2.5 0.83,2.5 1.67,2.5 0.83,2.5 0.84,2.5 0.83,2.5 0.83,2.5 0.84,2.5 0.83,2.5 0.83,2.5 0.84,3.34 0.83,2.5 0.83,2.5 0.84,2.5 0.83,2.5 0.83,2.5 0.84,2.5 1.66,2.5 0.84,2.5 0.83,2.5 0.83,2.5 0.84,2.5 0.83,2.5 0.83,2.5 0.84,2.5 0.83,2.5 0.83,2.5 0.84,2.5 0.83,2.5 0.83,3.33 0.84,2.5 1.66,2.5 0.84,2.5 0.83,2.5 0.83,2.5 0.84,2.5 0.83,2.5 0.83,2.5 0.84,2.5 0.83,2.5 0.83,2.5 0.84,2.5 0.83,2.5 0.83,1.67 0.84,2.5 1.66,2.5 0.84,2.5 0.83,2.5 0.83,2.5 0.84,2.5 0.83,2.5 0.83,2.5 0.84,2.5 0.83,2.5 0.83,2.5 0.84,2.5 0.83,2.5 0.83,2.5 0.84,2.5 1.66,2.5 0.84,2.5 0.83,2.5 0.83,2.5 0.84,1.66 0.83,2.5 0.83,2.5 0.84,2.5 0.83,2.5 0.83,2.5 0.84,2.5 0.83,2.5 0.83,2.5 0.84,2.5 1.66,2.5 0.84,1.67 0.83,2.5 0.83,2.5 0.84,2.5 0.83,2.5 0.83,2.5 0.84,2.5 0.83,2.5 0.83,1.67 0.84,2.5 0.83,2.5 0.83,2.5 0.84,2.5 1.66,2.5 0.84,2.5 0.83,1.66 0.83,2.5 0.84,2.5 0.83,2.5 0.83,2.5 0.84,2.5 0.83,1.67 0.83,2.5 0.84,2.5 0.83,2.5 0.83,2.5 0.84,1.67 1.66,2.5 0.84,2.5 0.83,2.5 0.83,2.5 0.84,2.5 0.83,1.66 0.83,2.5 0.84,2.5 0.83,2.5 0.83,1.67 0.84,2.5 0.83,2.5 0.83,2.5 0.84,2.5 1.66,1.67 0.84,2.5 0.83,2.5 0.83,2.5 0.84,1.66 0.83,2.5 0.83,2.5 0.84,2.5 0.83,1.67 0.83,2.5 0.84,2.5 0.83,2.5 0.83,1.67 0.84,2.5 1.66,2.5 0.84,2.5 0.83,1.66 0.83,2.5 0.84,2.5 0.83,2.5 0.83,1.67 0.84,2.5 0.83,2.5 0.83,1.67 0.84,2.5 0.83,2.5 0.83,1.66 0.84,2.5 1.66,2.5 0.84,2.5 0.83,1.67 0.83,2.5 0.84,2.5 0.83,1.67 0.83,2.5 0.84,2.5 0.83,1.66 0.83,2.5 0.84,2.5 0.83,1.67 0.83,2.5 0.84,2.5 1.66,1.67 0.84,2.5 0.83,2.5 0.83,1.66 0.84,2.5 0.83,2.5 0.83,1.67 0.84,2.5 0.83,2.5 0.83,1.67 0.84,2.5 0.83,1.66 0.83,2.5 0.84,2.5 1.66,1.67 0.84,2.5 0.83,2.5 0.83,1.67 0.84,2.5 0.83,1.66 0.83,2.5 0.84,2.5 0.83,1.67 0.83,2.5 0.84,1.67 0.83,2.5 0.83,2.5 0.84,1.66 1.66,2.5 0.84,1.67 0.83,2.5 0.83,1.67 0.84,2.5 0.83,2.5 0.83,1.66 0.84,2.5 0.83,1.67 0.83,2.5 0.84,1.67 0.83,2.5 0.83,2.5 0.84,1.66 1.66,2.5 0.84,1.67 0.83,2.5 0.83,1.67 0.84,2.5 0.83,1.66 0.83,2.5 0.84,1.67 0.83,2.5 0.83,1.67"
         inkscape:connector-curvature="0" />
      <path
         id="path7147"
         style="fill:none;stroke:#000000;stroke-width:20;stroke-linecap:butt;stroke-linejoin:round;stroke-miterlimit:4;stroke-opacity:1;stroke-dasharray:none"
         d="m 930,2278.33 0.832,3.34 0.836,3.33 0.832,3.33 0.832,4.17 0.836,3.33 0.832,3.34 0.832,3.33 0.836,3.33 0.832,4.17 0.832,3.33 0.836,3.34 0.832,3.33 0.832,3.33 1.668,3.34 0.832,4.16 0.836,3.34 0.832,3.33 0.832,3.33 0.836,3.34 0.832,3.33 0.832,3.33 0.836,4.17 0.832,3.33 0.832,3.34 0.836,3.33 0.832,3.33 0.832,3.34 1.668,3.33 0.832,3.33 0.836,3.34 0.832,4.16 0.832,3.34 0.836,3.33 0.832,3.33 0.832,3.34 0.836,3.33 0.832,3.33 0.832,3.34 0.836,3.33 0.832,3.33 0.832,3.34 1.668,3.33 0.832,3.33 0.836,3.34 0.832,3.33 0.832,4.17 0.836,3.33 0.832,3.33 0.832,3.34 0.836,3.33 0.832,3.33 0.832,3.34 0.836,3.33 0.832,3.33 0.832,3.34 1.668,3.33 0.832,3.33 0.836,3.34 0.832,3.33 0.832,3.33 0.836,3.34 0.832,3.33 0.832,2.5 0.836,3.33 0.832,3.34 0.832,3.33 0.836,3.33 0.832,3.34 0.832,3.33 1.668,3.33 0.832,3.34 0.836,3.33 0.832,3.33 0.832,3.34 0.836,3.33 0.832,3.33 0.832,3.34 0.836,3.33 0.832,2.5 0.83,3.33 0.84,3.34 0.83,3.33 0.83,3.33 1.67,3.34 0.83,3.33 0.84,3.33 0.83,2.5 0.83,3.34 0.84,3.33 0.83,3.33 0.83,3.34 0.84,3.33 0.83,3.33 0.83,2.5 0.84,3.34 0.83,3.33 0.83,3.33 1.67,3.34 0.83,3.33 0.84,2.5 0.83,3.33 0.83,3.34 0.84,3.33 0.83,3.33 0.83,3.34 0.84,2.5 0.83,3.33 0.83,3.33 0.84,3.34 0.83,2.5 0.83,3.33 1.67,3.33 0.83,3.34 0.84,3.33 0.83,2.5 0.83,3.33 0.84,3.34 0.83,3.33 0.83,2.5 0.84,3.33 0.83,3.34 0.83,3.33 0.84,2.5 0.83,3.33 0.83,3.34 1.67,3.33 0.83,2.5 0.84,3.33 0.83,3.34 0.83,2.5 0.84,3.33 0.83,3.33 0.83,2.5 0.84,3.34 0.83,3.33 0.83,3.33 0.84,2.5 0.83,3.34 0.83,3.33 1.67,2.5 0.83,3.33 0.84,3.34 0.83,2.5 0.83,3.33 0.84,3.33 0.83,2.5 0.83,3.34 0.84,3.33 0.83,2.5 0.83,3.33 0.84,2.5 0.83,3.34 0.83,3.33 1.67,2.5 0.83,3.33 0.84,3.34 0.83,2.5 0.83,3.33 0.84,2.5 0.83,3.33 0.83,3.34 0.84,2.5 0.83,3.33 0.83,2.5 0.84,3.33 0.83,2.5 0.83,3.34 1.67,3.33 0.83,2.5 0.84,3.33 0.83,2.5 0.83,3.34 0.84,2.5 0.83,3.33 0.83,3.33 0.84,2.5 0.83,3.34 0.83,2.5 0.84,3.33 0.83,2.5 0.83,3.33 1.67,2.5 0.83,3.34 0.84,2.5 0.83,3.33 0.83,2.5 0.84,3.33 0.83,2.5 0.83,3.34 0.84,2.5 0.83,3.33 0.83,2.5 0.84,3.33 0.83,2.5 0.83,3.34 1.67,2.5 0.83,3.33 0.84,2.5 0.83,3.33 0.83,2.5 0.84,2.5 0.83,3.34 0.83,2.5 0.84,3.33 0.83,2.5 0.83,3.33 0.84,2.5 0.83,3.34 0.83,2.5 1.67,2.5 0.83,3.33 0.84,2.5 0.83,3.33 0.83,2.5 0.84,2.5"
         inkscape:connector-curvature="0" />
    </g>
    <g
       id="g8171"
       transform="matrix(0.29336962,0,0,0.29336962,74.633537,283.5397)">
      <g
         word-spacing="normal"
         letter-spacing="normal"
         font-size-adjust="none"
         font-stretch="normal"
         font-weight="normal"
         font-variant="normal"
         font-style="normal"
         stroke-miterlimit="10.433"
         xml:space="preserve"
         transform="matrix(1.0629921,0,0,-1.0629921,-186.02362,789.27165)"
         id="content"
         style="font-style:normal;font-variant:normal;font-weight:normal;font-stretch:normal;letter-spacing:normal;word-spacing:normal;text-anchor:start;fill:none;stroke:#000000;stroke-linecap:butt;stroke-linejoin:miter;stroke-miterlimit:10.43299961;stroke-opacity:1;stroke-dasharray:none;stroke-dashoffset:0"><path
           id="path8174"
           d="m 471.09,422.19 h 4.84 c 3.73,0 4.13,-0.8 4.13,-2.24 0,-0.35 0,-0.95 -0.35,-2.44 -0.1,-0.25 -0.15,-0.45 -0.15,-0.55 0,-0.4 0.3,-0.6 0.6,-0.6 0.5,0 0.5,0.15 0.75,1.05 l 2.73,10.8 c 0.16,0.56 0.16,0.65 0.16,0.8 0,0.1 -0.1,0.55 -0.6,0.55 -0.5,0 -0.55,-0.25 -0.75,-1.04 -1.04,-3.89 -2.19,-4.79 -6.43,-4.79 h -4.53 l 3.19,12.66 c 0.45,1.74 0.5,1.94 2.69,1.94 h 6.58 c 6.12,0 7.27,-1.65 7.27,-5.48 0,-1.15 0,-1.35 -0.15,-2.69 -0.1,-0.65 -0.1,-0.75 -0.1,-0.9 0,-0.25 0.15,-0.6 0.6,-0.6 0.54,0 0.59,0.3 0.7,1.25 l 0.99,8.62 c 0.15,1.34 -0.1,1.34 -1.35,1.34 h -24.4 c -1,0 -1.5,0 -1.5,-0.99 0,-0.55 0.45,-0.55 1.4,-0.55 1.84,0 3.23,0 3.23,-0.9 0,-0.2 0,-0.3 -0.25,-1.19 l -6.57,-26.35 c -0.5,-1.95 -0.6,-2.35 -4.53,-2.35 -0.85,0 -1.4,0 -1.4,-0.94 0,-0.6 0.6,-0.6 0.75,-0.6 h 14 c 0.45,0 1.04,0 1.04,0.95 0,0.39 -0.29,0.5 -0.29,0.55 -0.16,0.04 -0.25,0.04 -1.4,0.04 -1.1,0 -1.35,0 -2.59,0.1 -1.44,0.15 -1.6,0.35 -1.6,1 0,0.1 0,0.4 0.2,1.15 z"
           inkscape:connector-curvature="0"
           style="fill:#000000;stroke-width:0" /><path
           id="path8176"
           d="m 511.49,394.04 0,0.03 0,0.03 -0.01,0.01 0,0.02 0,0.01 -0.01,0.02 0,0.02 -0.01,0.01 -0.01,0.02 -0.01,0.02 -0.01,0.03 -0.01,0.02 -0.02,0.02 -0.02,0.03 -0.02,0.03 -0.02,0.03 -0.03,0.03 -0.03,0.04 -0.01,0.02 -0.02,0.02 -0.02,0.02 -0.02,0.02 -0.02,0.02 -0.02,0.03 -0.02,0.02 -0.02,0.02 -0.02,0.03 -0.03,0.02 -0.02,0.03 -0.03,0.03 -0.02,0.03 -0.03,0.03 -0.03,0.03 -0.03,0.03 -0.03,0.03 -0.03,0.03 -0.04,0.04 -0.03,0.03 -0.04,0.04 -0.03,0.03 -0.04,0.04 -0.04,0.04 c -6.23,6.28 -7.82,15.69 -7.82,23.31 0,8.67 1.89,17.34 8.02,23.57 0.65,0.59 0.65,0.69 0.65,0.84 0,0.35 -0.2,0.5 -0.5,0.5 -0.5,0 -4.98,-3.39 -7.92,-9.72 -2.54,-5.47 -3.14,-11 -3.14,-15.19 0,-3.88 0.55,-9.91 3.29,-15.54 2.99,-6.12 7.27,-9.36 7.77,-9.36 0.3,0 0.5,0.15 0.5,0.49 z"
           inkscape:connector-curvature="0"
           style="fill:#000000;stroke-width:0" /><path
           id="path8178"
           d="m 530.64,421.04 0.03,0.13 0.03,0.15 0.05,0.17 0.04,0.18 0.06,0.19 0.06,0.21 0.06,0.21 0.07,0.23 0.08,0.23 0.09,0.24 0.1,0.25 0.1,0.24 0.11,0.25 0.12,0.25 0.13,0.25 0.14,0.25 0.15,0.24 0.15,0.24 0.17,0.23 0.18,0.22 0.18,0.22 0.2,0.2 0.21,0.19 0.22,0.18 0.23,0.16 0.25,0.14 0.12,0.07 0.13,0.06 0.13,0.05 0.14,0.05 0.14,0.05 0.14,0.04 0.14,0.03 0.15,0.03 0.15,0.02 0.16,0.02 0.16,0.01 0.16,0 c 0.25,0 1.45,0 2.49,-0.65 -1.4,-0.25 -2.39,-1.49 -2.39,-2.68 0,-0.8 0.55,-1.75 1.89,-1.75 1.1,0 2.69,0.9 2.69,2.89 0,2.59 -2.94,3.29 -4.63,3.29 -2.89,0 -4.64,-2.64 -5.23,-3.79 -1.24,3.29 -3.94,3.79 -5.38,3.79 -5.18,0 -8.02,-6.43 -8.02,-7.67 0,-0.5 0.5,-0.5 0.6,-0.5 0.39,0 0.54,0.1 0.64,0.54 1.7,5.29 4.99,6.53 6.68,6.53 0.94,0 2.69,-0.45 2.69,-3.33 0,-1.55 -0.85,-4.89 -2.69,-11.86 -0.8,-3.09 -2.54,-5.18 -4.73,-5.18 -0.3,0 -1.45,0 -2.49,0.65 1.24,0.25 2.34,1.29 2.34,2.69 0,1.34 -1.1,1.74 -1.85,1.74 -1.49,0 -2.73,-1.3 -2.73,-2.89 0,-2.29 2.48,-3.29 4.68,-3.29 3.28,0 5.08,3.49 5.22,3.79 0.61,-1.85 2.4,-3.79 5.39,-3.79 5.13,0 7.97,6.43 7.97,7.67 0,0.5 -0.45,0.5 -0.6,0.5 -0.45,0 -0.55,-0.2 -0.65,-0.55 -1.64,-5.33 -5.03,-6.52 -6.62,-6.52 -1.94,0 -2.74,1.59 -2.74,3.29 0,1.09 0.3,2.19 0.85,4.38 z"
           inkscape:connector-curvature="0"
           style="fill:#000000;stroke-width:0" /><path
           id="path8180"
           d="m 556.4,418.45 -0.01,0.37 0,0.39 -0.01,0.39 -0.01,0.41 -0.04,0.84 -0.06,0.88 -0.09,0.92 -0.1,0.94 -0.14,0.98 -0.16,1 -0.2,1.02 -0.23,1.04 -0.27,1.05 -0.3,1.06 -0.35,1.06 -0.39,1.07 -0.22,0.53 -0.22,0.54 -0.24,0.53 -0.25,0.53 c -2.99,6.12 -7.27,9.36 -7.77,9.36 -0.3,0 -0.5,-0.2 -0.5,-0.5 0,-0.15 0,-0.25 0.94,-1.15 4.89,-4.92 7.73,-12.85 7.73,-23.26 0,-8.52 -1.85,-17.28 -8.02,-23.56 -0.65,-0.6 -0.65,-0.69 -0.65,-0.85 0,-0.29 0.2,-0.49 0.5,-0.49 0.5,0 4.98,3.38 7.92,9.71 2.54,5.48 3.14,11.01 3.14,15.19 z"
           inkscape:connector-curvature="0"
           style="fill:#000000;stroke-width:0" /><path
           id="path8182"
           d="m 610.22,422.29 0.14,0 0.15,0 0.15,0.01 0.07,0 0.07,0 0.07,0.01 0.08,0.01 0.07,0.01 0.07,0.01 0.06,0.02 0.07,0.01 0.07,0.02 0.06,0.02 0.06,0.03 0.06,0.03 0.05,0.03 0.06,0.03 0.05,0.04 0.04,0.04 0.05,0.05 0.03,0.05 0.02,0.03 0.02,0.02 0.02,0.03 0.01,0.03 0.02,0.03 0.01,0.04 0.01,0.03 0.01,0.04 0.01,0.03 0.01,0.04 0.01,0.04 0,0.04 0.01,0.04 0,0.04 0,0.05 0,0.05 c 0,0.99 -0.94,0.99 -1.64,0.99 h -29.84 c -0.7,0 -1.64,0 -1.64,-0.99 0,-1 0.94,-1 1.69,-1 z"
           inkscape:connector-curvature="0"
           style="fill:#000000;stroke-width:0" /><path
           id="path8184"
           d="m 610.27,412.62 0.13,0.01 0.14,0 0.14,0 0.07,0.01 0.07,0 0.07,0.01 0.07,0.01 0.07,0.01 0.07,0.01 0.06,0.01 0.07,0.02 0.06,0.02 0.06,0.02 0.06,0.02 0.06,0.03 0.06,0.03 0.05,0.04 0.05,0.04 0.04,0.04 0.05,0.04 0.02,0.03 0.02,0.03 0.01,0.02 0.02,0.03 0.02,0.03 0.01,0.03 0.02,0.03 0.01,0.03 0.01,0.04 0.01,0.03 0.01,0.04 0.01,0.04 0.01,0.04 0,0.04 0.01,0.04 0,0.04 0,0.05 0,0.04 c 0,1 -0.94,1 -1.69,1 h -29.74 c -0.75,0 -1.69,0 -1.69,-1 0,-1 0.94,-1 1.64,-1 z"
           inkscape:connector-curvature="0"
           style="fill:#000000;stroke-width:0" /><path
           id="path8186"
           d="m 642.65,437.88 0,0.05 -0.01,0.06 0,0.05 0,0.05 0,0.05 0,0.05 0,0.04 0,0.05 0,0.04 0,0.04 0,0.04 0,0.04 0,0.04 -0.01,0.04 0,0.03 0,0.04 -0.01,0.03 0,0.03 -0.01,0.06 -0.01,0.05 -0.02,0.05 -0.01,0.05 -0.02,0.04 -0.02,0.04 -0.03,0.04 -0.03,0.03 -0.03,0.02 -0.03,0.03 -0.04,0.02 -0.05,0.02 -0.02,0.01 -0.03,0.01 -0.02,0 -0.03,0.01 -0.03,0.01 -0.03,0 -0.03,0.01 -0.03,0 -0.03,0.01 -0.04,0 -0.04,0 -0.03,0 -0.04,0.01 -0.04,0 -0.04,0 -0.05,0 -0.04,0 -0.05,0 -0.05,0.01 -0.05,0 -0.05,0 -0.05,0 c -3.09,-3.19 -7.47,-3.19 -9.07,-3.19 v -1.55 c 1,0 3.94,0 6.53,1.3 v -25.81 c 0,-1.79 -0.15,-2.39 -4.63,-2.39 h -1.6 V 406 h 16.14 v 1.54 h -1.59 c -4.49,0 -4.63,0.55 -4.63,2.39 z"
           inkscape:connector-curvature="0"
           style="fill:#000000;stroke-width:0" /><path
           id="path8188"
           d="m 696.83,417.46 0.16,0 0.16,0 0.15,0 0.08,0.01 0.08,0 0.07,0.01 0.08,0.01 0.07,0.01 0.07,0.01 0.07,0.01 0.07,0.02 0.06,0.02 0.07,0.02 0.06,0.03 0.05,0.02 0.06,0.04 0.05,0.03 0.05,0.04 0.05,0.04 0.04,0.05 0.04,0.05 0.01,0.02 0.02,0.03 0.02,0.03 0.01,0.03 0.02,0.03 0.01,0.04 0.01,0.03 0.01,0.03 0.01,0.04 0.01,0.04 0,0.04 0.01,0.04 0,0.04 0.01,0.04 0,0.05 0,0.04 c 0,1 -0.9,1 -1.74,1 h -26.95 c -0.85,0 -1.75,0 -1.75,-1 0,-0.99 0.9,-0.99 1.75,-0.99 z"
           inkscape:connector-curvature="0"
           style="fill:#000000;stroke-width:0" /><path
           id="path8190"
           d="m 719.53,417.51 0.05,1.04 c 0.3,7.43 4.48,8.67 6.18,8.67 5.13,0 5.63,-6.72 5.63,-8.67 h -11.81 l -0.05,-1.04 h 13.9 c 1.09,0 1.24,0 1.24,1.04 0,4.93 -2.69,9.77 -8.91,9.77 -5.78,0 -10.36,-5.14 -10.36,-11.36 0,-6.67 5.22,-11.51 10.95,-11.51 6.08,0 8.32,5.53 8.32,6.48 0,0.5 -0.4,0.6 -0.65,0.6 -0.44,0 -0.54,-0.3 -0.64,-0.7 -1.75,-5.13 -6.23,-5.13 -6.73,-5.13 -2.49,0 -4.48,1.49 -5.63,3.34 -1.49,2.39 -1.49,5.67 -1.49,7.47 z"
           inkscape:connector-curvature="0"
           style="fill:#000000;stroke-width:0" /><path
           id="path8192"
           d="m 750.3,417.71 0.28,0.36 0.29,0.37 0.3,0.38 0.3,0.38 0.62,0.78 0.3,0.38 0.31,0.38 0.3,0.38 0.3,0.36 0.29,0.36 0.28,0.34 0.14,0.16 0.13,0.16 0.13,0.15 0.13,0.15 0.13,0.14 0.12,0.14 0.11,0.13 0.12,0.13 c 1.54,1.79 3.59,2.54 5.93,2.59 v 1.54 h -8.87 v -1.54 c 1.04,-0.11 1.45,-0.75 1.45,-1.55 0,-0.79 -0.5,-1.44 -0.75,-1.74 l -3.09,-3.89 -3.89,5.04 c -0.44,0.49 -0.44,0.59 -0.44,0.89 0,0.75 0.74,1.2 1.74,1.25 v 1.54 h -10.11 v -1.54 c 3.48,0 3.53,-0.05 5.88,-3.04 l 4.93,-6.43 -4.69,-5.93 c -2.39,-2.89 -5.32,-2.99 -6.37,-2.99 V 406 h 8.87 v 1.54 c -1.1,0.16 -1.45,0.8 -1.45,1.55 0,1.09 1.45,2.74 4.48,6.32 l 3.79,-4.98 c 0.4,-0.54 1.05,-1.34 1.05,-1.64 0,-0.45 -0.45,-1.2 -1.8,-1.25 V 406 h 10.16 v 1.54 c -2.68,0 -3.58,0.1 -4.73,1.55 z"
           inkscape:connector-curvature="0"
           style="fill:#000000;stroke-width:0" /><path
           id="path8194"
           d="m 770.57,424.73 v 3.29 l -7.17,-0.55 v -1.54 c 3.53,0 3.88,-0.31 3.88,-2.5 v -23.31 c 0,-2.24 -0.55,-2.24 -3.88,-2.24 v -1.54 h 11.2 v 1.54 c -3.33,0 -3.88,0 -3.88,2.24 v 8.37 0.45 l 0.69,0.65 c -0.69,1.04 -0.69,1.09 -0.69,2.09 h 0 v 11.11 c 1.44,2.54 3.88,3.98 6.43,3.98 3.63,0 6.67,-4.38 6.67,-10.01 0,-6.03 -3.49,-10.21 -7.17,-10.21 -2,0 -3.89,0.99 -5.24,3.04 l -0.69,-0.65 c 0.25,-0.8 2.34,-3.49 6.12,-3.49 5.93,0 11.11,4.88 11.11,11.31 0,6.33 -4.83,11.26 -10.41,11.26 -3.88,0 -5.98,-2.2 -6.97,-3.29 z"
           inkscape:connector-curvature="0"
           style="fill:#000000;stroke-width:0" /><path
           id="path8196"
           d="m 806.49,394.04 0,0.03 0,0.03 -0.01,0.01 0,0.02 0,0.01 -0.01,0.02 0,0.02 -0.01,0.01 -0.01,0.02 -0.01,0.02 -0.01,0.03 -0.01,0.02 -0.02,0.02 -0.02,0.03 -0.02,0.03 -0.02,0.03 -0.03,0.03 -0.03,0.04 -0.01,0.02 -0.02,0.02 -0.02,0.02 -0.02,0.02 -0.02,0.02 -0.02,0.03 -0.02,0.02 -0.02,0.02 -0.02,0.03 -0.03,0.02 -0.02,0.03 -0.03,0.03 -0.02,0.03 -0.03,0.03 -0.03,0.03 -0.03,0.03 -0.03,0.03 -0.03,0.03 -0.04,0.04 -0.03,0.03 -0.04,0.04 -0.03,0.03 -0.04,0.04 -0.04,0.04 c -6.23,6.28 -7.82,15.69 -7.82,23.31 0,8.67 1.9,17.34 8.02,23.57 0.65,0.59 0.65,0.69 0.65,0.84 0,0.35 -0.2,0.5 -0.5,0.5 -0.5,0 -4.98,-3.39 -7.92,-9.72 -2.54,-5.47 -3.14,-11 -3.14,-15.19 0,-3.88 0.55,-9.91 3.29,-15.54 2.99,-6.12 7.27,-9.36 7.77,-9.36 0.3,0 0.5,0.15 0.5,0.49 z"
           inkscape:connector-curvature="0"
           style="fill:#000000;stroke-width:0" /><path
           id="path8198"
           d="m 841.83,417.46 0.16,0 0.16,0 0.15,0 0.08,0.01 0.08,0 0.07,0.01 0.08,0.01 0.07,0.01 0.07,0.01 0.07,0.01 0.07,0.02 0.06,0.02 0.07,0.02 0.06,0.03 0.05,0.02 0.06,0.04 0.05,0.03 0.05,0.04 0.05,0.04 0.04,0.05 0.04,0.05 0.01,0.02 0.02,0.03 0.02,0.03 0.01,0.03 0.02,0.03 0.01,0.04 0.01,0.03 0.01,0.03 0.01,0.04 0.01,0.04 0,0.04 0.01,0.04 0,0.04 0.01,0.04 0,0.05 0,0.04 c 0,1 -0.9,1 -1.74,1 h -26.95 c -0.85,0 -1.75,0 -1.75,-1 0,-0.99 0.9,-0.99 1.75,-0.99 z"
           inkscape:connector-curvature="0"
           style="fill:#000000;stroke-width:0" /><path
           id="path8200"
           d="m 865.78,420.55 0.2,-0.5 0.19,-0.51 0.39,-1.05 0.4,-1.08 0.39,-1.1 0.39,-1.1 0.38,-1.09 0.38,-1.07 0.18,-0.52 0.18,-0.51 0.18,-0.5 0.17,-0.49 0.17,-0.47 0.17,-0.46 0.16,-0.43 0.15,-0.42 0.15,-0.4 0.14,-0.37 0.13,-0.34 0.13,-0.32 0.12,-0.29 0.11,-0.27 0.11,-0.23 0.1,-0.19 0.09,-0.17 0.08,-0.12 c 0.79,-1.1 1.29,-1.1 2.63,-1.1 h 1.1 c 0.5,0.05 0.55,0.35 0.55,0.5 0,0.15 -0.1,0.25 -0.25,0.45 -0.5,0.55 -0.8,1.3 -1.15,2.29 l -10.16,28.35 c -1.04,2.88 -3.74,3.53 -6.08,3.53 -0.25,0 -0.89,0 -0.89,-0.55 0,-0.4 0.39,-0.5 0.45,-0.5 1.64,-0.29 1.99,-0.59 3.23,-3.98 l 4.83,-13.55 -13.75,-13.65 c -0.59,-0.6 -0.89,-0.89 -0.89,-1.54 0,-0.85 0.7,-1.45 1.49,-1.45 0.8,0 1.25,0.55 1.65,1.05 z"
           inkscape:connector-curvature="0"
           style="fill:#000000;stroke-width:0" /><path
           id="path8202"
           d="m 893.64,421.04 0.03,0.13 0.03,0.15 0.05,0.17 0.04,0.18 0.06,0.19 0.06,0.21 0.06,0.21 0.07,0.23 0.08,0.23 0.09,0.24 0.1,0.25 0.1,0.24 0.11,0.25 0.12,0.25 0.13,0.25 0.14,0.25 0.15,0.24 0.15,0.24 0.17,0.23 0.18,0.22 0.18,0.22 0.2,0.2 0.21,0.19 0.22,0.18 0.23,0.16 0.25,0.14 0.12,0.07 0.13,0.06 0.13,0.05 0.14,0.05 0.14,0.05 0.14,0.04 0.14,0.03 0.15,0.03 0.15,0.02 0.16,0.02 0.16,0.01 0.16,0 c 0.25,0 1.45,0 2.49,-0.65 -1.4,-0.25 -2.39,-1.49 -2.39,-2.68 0,-0.8 0.55,-1.75 1.89,-1.75 1.1,0 2.69,0.9 2.69,2.89 0,2.59 -2.94,3.29 -4.63,3.29 -2.89,0 -4.64,-2.64 -5.23,-3.79 -1.24,3.29 -3.94,3.79 -5.38,3.79 -5.18,0 -8.02,-6.43 -8.02,-7.67 0,-0.5 0.5,-0.5 0.6,-0.5 0.39,0 0.54,0.1 0.64,0.54 1.7,5.29 4.99,6.53 6.68,6.53 0.94,0 2.69,-0.45 2.69,-3.33 0,-1.55 -0.85,-4.89 -2.69,-11.86 -0.8,-3.09 -2.54,-5.18 -4.73,-5.18 -0.3,0 -1.45,0 -2.49,0.65 1.24,0.25 2.34,1.29 2.34,2.69 0,1.34 -1.1,1.74 -1.85,1.74 -1.49,0 -2.73,-1.3 -2.73,-2.89 0,-2.29 2.48,-3.29 4.68,-3.29 3.28,0 5.08,3.49 5.22,3.79 0.61,-1.85 2.4,-3.79 5.39,-3.79 5.13,0 7.97,6.43 7.97,7.67 0,0.5 -0.45,0.5 -0.6,0.5 -0.45,0 -0.55,-0.2 -0.65,-0.55 -1.64,-5.33 -5.03,-6.52 -6.62,-6.52 -1.94,0 -2.74,1.59 -2.74,3.29 0,1.09 0.3,2.19 0.85,4.38 z"
           inkscape:connector-curvature="0"
           style="fill:#000000;stroke-width:0" /><path
           id="path8204"
           d="m 920.4,418.45 -0.01,0.37 0,0.39 -0.01,0.39 -0.01,0.41 -0.04,0.84 -0.06,0.88 -0.09,0.92 -0.1,0.94 -0.14,0.98 -0.16,1 -0.2,1.02 -0.23,1.04 -0.27,1.05 -0.3,1.06 -0.35,1.06 -0.39,1.07 -0.22,0.53 -0.22,0.54 -0.24,0.53 -0.25,0.53 c -2.99,6.12 -7.27,9.36 -7.77,9.36 -0.3,0 -0.5,-0.2 -0.5,-0.5 0,-0.15 0,-0.25 0.94,-1.15 4.89,-4.92 7.73,-12.85 7.73,-23.26 0,-8.52 -1.85,-17.28 -8.02,-23.56 -0.65,-0.6 -0.65,-0.69 -0.65,-0.85 0,-0.29 0.2,-0.49 0.5,-0.49 0.5,0 4.98,3.38 7.92,9.71 2.54,5.48 3.14,11.01 3.14,15.19 z"
           inkscape:connector-curvature="0"
           style="fill:#000000;stroke-width:0" /><path
           id="path8206"
           d="m 935.11,406.05 0,0.31 -0.01,0.29 -0.02,0.29 -0.02,0.28 -0.04,0.27 -0.03,0.26 -0.05,0.26 -0.05,0.24 -0.06,0.24 -0.07,0.23 -0.07,0.22 -0.07,0.21 -0.09,0.2 -0.09,0.19 -0.09,0.18 -0.1,0.18 -0.11,0.16 -0.11,0.15 -0.12,0.15 -0.12,0.13 -0.13,0.13 -0.13,0.11 -0.14,0.1 -0.15,0.1 -0.15,0.08 -0.15,0.07 -0.16,0.06 -0.16,0.05 -0.17,0.04 -0.17,0.03 -0.17,0.02 -0.18,0 c -1.65,0 -2.65,-1.24 -2.65,-2.64 0,-1.34 1,-2.64 2.65,-2.64 0.59,0 1.24,0.2 1.74,0.65 0.15,0.1 0.2,0.15 0.25,0.15 0.05,0 0.1,-0.05 0.1,-0.75 0,-3.69 -1.75,-6.67 -3.39,-8.32 -0.55,-0.55 -0.55,-0.65 -0.55,-0.8 0,-0.34 0.25,-0.54 0.5,-0.54 0.55,0 4.53,3.83 4.53,9.66 z"
           inkscape:connector-curvature="0"
           style="fill:#000000;stroke-width:0" /><path
           id="path8208"
           d="m 964.78,420.55 0.2,-0.5 0.19,-0.51 0.39,-1.05 0.4,-1.08 0.39,-1.1 0.39,-1.1 0.38,-1.09 0.38,-1.07 0.18,-0.52 0.18,-0.51 0.18,-0.5 0.17,-0.49 0.17,-0.47 0.17,-0.46 0.16,-0.43 0.15,-0.42 0.15,-0.4 0.14,-0.37 0.13,-0.34 0.13,-0.32 0.12,-0.29 0.11,-0.27 0.11,-0.23 0.1,-0.19 0.09,-0.17 0.08,-0.12 c 0.79,-1.1 1.29,-1.1 2.63,-1.1 h 1.1 c 0.5,0.05 0.55,0.35 0.55,0.5 0,0.15 -0.1,0.25 -0.25,0.45 -0.5,0.55 -0.8,1.3 -1.15,2.29 l -10.16,28.35 c -1.04,2.88 -3.74,3.53 -6.08,3.53 -0.25,0 -0.89,0 -0.89,-0.55 0,-0.4 0.39,-0.5 0.45,-0.5 1.64,-0.29 1.99,-0.59 3.23,-3.98 l 4.83,-13.55 -13.75,-13.65 c -0.59,-0.6 -0.89,-0.89 -0.89,-1.54 0,-0.85 0.7,-1.45 1.49,-1.45 0.8,0 1.25,0.55 1.65,1.05 z"
           inkscape:connector-curvature="0"
           style="fill:#000000;stroke-width:0" /><path
           id="path8210"
           d="m 1024.2,422.29 0.2,0 0.1,0 0.2,0.01 0,0 0.1,0 0.1,0.01 0,0.01 0.1,0.01 0.1,0.01 0.1,0.02 0,0.01 0.1,0.02 0,0.02 0.1,0.03 0.1,0.03 0,0.03 0.1,0.03 0,0.04 0.1,0.04 0,0.05 0.1,0.05 0,0.03 0,0.02 0,0.03 0,0.03 0,0.03 0,0.04 0.1,0.03 0,0.04 0,0.03 0,0.04 0,0.04 0,0.04 0,0.04 0,0.04 0,0.05 0,0.05 c 0,0.99 -0.9,0.99 -1.6,0.99 h -29.87 c -0.7,0 -1.64,0 -1.64,-0.99 0,-1 0.94,-1 1.69,-1 z"
           inkscape:connector-curvature="0"
           style="fill:#000000;stroke-width:0" /><path
           id="path8212"
           d="m 1024.3,412.62 0.1,0.01 0.1,0 0.2,0 0.1,0.01 0,0 0.1,0.01 0.1,0.01 0,0.01 0.1,0.01 0.1,0.01 0,0.02 0.1,0.02 0.1,0.02 0,0.02 0.1,0.03 0,0.03 0.1,0.04 0,0.04 0.1,0.04 0,0.04 0,0.03 0.1,0.03 0,0.02 0,0.03 0,0.03 0,0.03 0,0.03 0,0.03 0.1,0.04 0,0.03 0,0.04 0,0.04 0,0.04 0,0.04 0,0.04 0,0.04 0,0.05 0,0.04 c 0,1 -0.9,1 -1.7,1 h -29.72 c -0.75,0 -1.69,0 -1.69,-1 0,-1 0.94,-1 1.64,-1 z"
           inkscape:connector-curvature="0"
           style="fill:#000000;stroke-width:0" /><path
           id="path8214"
           d="m 1057.6,437.88 0,0.05 0,0.06 0,0.05 0,0.05 0,0.05 0,0.05 0,0.04 0,0.05 0,0.04 0,0.04 0,0.04 0,0.04 0,0.04 0,0.04 0,0.03 0,0.04 0,0.03 0,0.03 0,0.06 0,0.05 0,0.05 0,0.05 -0.1,0.04 0,0.04 0,0.04 0,0.03 -0.1,0.02 0,0.03 0,0.02 -0.1,0.02 0,0.01 0,0.01 -0.1,0 0,0.01 0,0.01 0,0 -0.1,0.01 0,0 0,0.01 -0.1,0 0,0 0,0 -0.1,0.01 0,0 -0.1,0 0,0 -0.1,0 0,0 0,0.01 -0.1,0 0,0 -0.1,0 c -3.1,-3.19 -7.5,-3.19 -9.1,-3.19 v -1.55 c 1,0 4,0 6.6,1.3 v -25.81 c 0,-1.79 -0.2,-2.39 -4.7,-2.39 h -1.6 V 406 h 16.2 v 1.54 h -1.6 c -4.5,0 -4.7,0.55 -4.7,2.39 z"
           inkscape:connector-curvature="0"
           style="fill:#000000;stroke-width:0" /></g>    </g>
    <path
       inkscape:connector-curvature="0"
       id="path5216-6"
       d="m 86.207798,598.96935 c -0.24433,-12.53656 -0.54667,-28.01697 -0.67188,-34.4009 l -0.22764,-11.60714 1.8369,0.0141 c 11.3926,0.0878 27.244632,5.52628 58.265472,19.98977 40.36845,18.82183 57.63835,26.16998 76.12666,32.39107 17.75909,5.97571 36.75586,10.59859 51.93149,12.63757 3.64626,0.48991 6.76721,1.11344 6.93543,1.38564 0.312,0.50481 -40.38602,1.06544 -138.65861,1.91008 l -55.093602,0.47352 -0.44422,-22.79376 z"
       style="opacity:0.15163933;fill:#ffffff;fill-opacity:1;fill-rule:nonzero;stroke:none" />
    <path
       style="fill:none;stroke:#000000;stroke-width:0.84949964px;stroke-linecap:butt;stroke-linejoin:miter;stroke-opacity:1"
       d="m 150.03182,405.79076 c 9.27836,0 9.27836,0 9.27836,0"
       id="path8336"
       inkscape:connector-curvature="0" />
    <g
       transform="matrix(0.33761376,0,0,0.33761376,38.545937,289.07632)"
       id="g8425">
      <g
         style="font-style:normal;font-variant:normal;font-weight:normal;font-stretch:normal;letter-spacing:normal;word-spacing:normal;text-anchor:start;fill:none;stroke:#000000;stroke-linecap:butt;stroke-linejoin:miter;stroke-miterlimit:10.43299961;stroke-opacity:1;stroke-dasharray:none;stroke-dashoffset:0"
         id="g8427"
         transform="matrix(1.0629921,0,0,-1.0629921,-186.02362,789.27165)"
         xml:space="preserve"
         stroke-miterlimit="10.433"
         font-style="normal"
         font-variant="normal"
         font-weight="normal"
         font-stretch="normal"
         font-size-adjust="none"
         letter-spacing="normal"
         word-spacing="normal"><path
           style="fill:#000000;stroke-width:0"
           inkscape:connector-curvature="0"
           d="m 470.64,437.88 0,0.05 0,0.06 0,0.05 0,0.05 0,0.05 0,0.05 0,0.04 0,0.05 0,0.04 0,0.04 0,0.04 0,0.04 0,0.04 -0.01,0.04 0,0.03 0,0.04 -0.01,0.03 0,0.03 -0.01,0.06 -0.01,0.05 -0.02,0.05 -0.01,0.05 -0.02,0.04 -0.02,0.04 -0.03,0.04 -0.03,0.03 -0.03,0.02 -0.03,0.03 -0.04,0.02 -0.05,0.02 -0.02,0.01 -0.03,0.01 -0.02,0 -0.03,0.01 -0.03,0.01 -0.03,0 -0.03,0.01 -0.03,0 -0.03,0.01 -0.04,0 -0.04,0 -0.03,0 -0.04,0.01 -0.04,0 -0.04,0 -0.05,0 -0.04,0 -0.05,0 -0.05,0.01 -0.05,0 -0.05,0 -0.05,0 c -3.09,-3.19 -7.47,-3.19 -9.07,-3.19 v -1.55 c 1,0 3.94,0 6.53,1.3 v -25.81 c 0,-1.79 -0.15,-2.39 -4.63,-2.39 h -1.6 V 406 h 16.14 v 1.54 h -1.59 c -4.49,0 -4.64,0.55 -4.64,2.39 z"
           id="path8429" /></g>    </g>
    <g
       id="g8609"
       transform="matrix(0.37933094,0,0,0.37933094,245.63671,470.23138)">
      <g
         word-spacing="normal"
         letter-spacing="normal"
         font-size-adjust="none"
         font-stretch="normal"
         font-weight="normal"
         font-variant="normal"
         font-style="normal"
         stroke-miterlimit="10.433"
         xml:space="preserve"
         transform="matrix(1.0629921,0,0,-1.0629921,-186.02362,789.27165)"
         id="g8611"
         style="font-style:normal;font-variant:normal;font-weight:normal;font-stretch:normal;letter-spacing:normal;word-spacing:normal;text-anchor:start;fill:none;stroke:#000000;stroke-linecap:butt;stroke-linejoin:miter;stroke-miterlimit:10.43299961;stroke-opacity:1;stroke-dasharray:none;stroke-dashoffset:0"><path
           id="path8613"
           d="m 472.64,421.04 0.03,0.13 0.03,0.15 0.05,0.17 0.04,0.18 0.06,0.19 0.06,0.21 0.06,0.21 0.07,0.23 0.08,0.23 0.09,0.24 0.1,0.25 0.1,0.24 0.11,0.25 0.12,0.25 0.13,0.25 0.14,0.25 0.15,0.24 0.15,0.24 0.17,0.23 0.18,0.22 0.18,0.22 0.2,0.2 0.21,0.19 0.22,0.18 0.23,0.16 0.25,0.14 0.12,0.07 0.13,0.06 0.13,0.05 0.14,0.05 0.14,0.05 0.14,0.04 0.14,0.03 0.15,0.03 0.15,0.02 0.16,0.02 0.16,0.01 0.16,0 c 0.25,0 1.45,0 2.49,-0.65 -1.4,-0.25 -2.39,-1.49 -2.39,-2.68 0,-0.8 0.54,-1.75 1.89,-1.75 1.1,0 2.69,0.9 2.69,2.89 0,2.59 -2.94,3.29 -4.63,3.29 -2.89,0 -4.64,-2.64 -5.23,-3.79 -1.25,3.29 -3.94,3.79 -5.38,3.79 -5.18,0 -8.02,-6.43 -8.02,-7.67 0,-0.5 0.5,-0.5 0.6,-0.5 0.39,0 0.54,0.1 0.64,0.54 1.7,5.29 4.98,6.53 6.68,6.53 0.95,0 2.69,-0.45 2.69,-3.33 0,-1.55 -0.85,-4.89 -2.69,-11.86 -0.8,-3.09 -2.54,-5.18 -4.73,-5.18 -0.3,0 -1.45,0 -2.49,0.65 1.24,0.25 2.34,1.29 2.34,2.69 0,1.34 -1.1,1.74 -1.85,1.74 -1.49,0 -2.73,-1.3 -2.73,-2.89 0,-2.29 2.48,-3.29 4.68,-3.29 3.28,0 5.08,3.49 5.23,3.79 0.6,-1.85 2.39,-3.79 5.38,-3.79 5.13,0 7.97,6.43 7.97,7.67 0,0.5 -0.45,0.5 -0.6,0.5 -0.45,0 -0.55,-0.2 -0.65,-0.55 -1.64,-5.33 -5.03,-6.52 -6.62,-6.52 -1.95,0 -2.74,1.59 -2.74,3.29 0,1.09 0.29,2.19 0.85,4.38 z"
           inkscape:connector-curvature="0"
           style="fill:#000000;stroke-width:0" /></g>    </g>
  </g>
</svg>
