<?xml version="1.0" encoding="UTF-8" standalone="no"?>
<!-- Created with Inkscape (http://www.inkscape.org/) -->

<svg
   xmlns:ns0="http://www.iki.fi/pav/software/textext/"
   xmlns:dc="http://purl.org/dc/elements/1.1/"
   xmlns:cc="http://creativecommons.org/ns#"
   xmlns:rdf="http://www.w3.org/1999/02/22-rdf-syntax-ns#"
   xmlns:svg="http://www.w3.org/2000/svg"
   xmlns="http://www.w3.org/2000/svg"
   xmlns:sodipodi="http://sodipodi.sourceforge.net/DTD/sodipodi-0.dtd"
   xmlns:inkscape="http://www.inkscape.org/namespaces/inkscape"
   width="744.09448819"
   height="1052.3622047"
   id="svg2"
   version="1.1"
   inkscape:version="0.48.0 r9654"
   sodipodi:docname="nchoosekPlain.svg">
  <sodipodi:namedview
     id="base"
     pagecolor="#ffffff"
     bordercolor="#666666"
     borderopacity="1.0"
     inkscape:pageopacity="0.0"
     inkscape:pageshadow="2"
     inkscape:zoom="0.7"
     inkscape:cx="319.33182"
     inkscape:cy="662.15421"
     inkscape:document-units="px"
     inkscape:current-layer="svg2"
     showgrid="false"
     inkscape:object-paths="true"
     inkscape:snap-bbox="true"
     inkscape:snap-global="true"
     inkscape:window-width="1280"
     inkscape:window-height="723"
     inkscape:window-x="0"
     inkscape:window-y="24"
     inkscape:window-maximized="1" />
  <defs
     id="defs4">
    <filter
       color-interpolation-filters="sRGB"
       inkscape:menu-tooltip="Under a cracked glass"
       inkscape:menu="Textures"
       inkscape:label="Cracked glass"
       id="filter6921">
      <feTurbulence
         type="fractalNoise"
         result="result1"
         numOctaves="5"
         seed="50"
         baseFrequency="0.1"
         id="feTurbulence6923" />
      <feGaussianBlur
         result="result7"
         stdDeviation="4"
         id="feGaussianBlur6925" />
      <feDisplacementMap
         xChannelSelector="G"
         scale="20"
         in="SourceGraphic"
         result="result5"
         in2="result7"
         id="feDisplacementMap6927" />
      <feComposite
         in="result5"
         operator="in"
         result="result2"
         in2="result1"
         id="feComposite6929" />
      <feGaussianBlur
         result="result6"
         stdDeviation="1"
         id="feGaussianBlur6931" />
      <feSpecularLighting
         in="result6"
         specularExponent="35"
         specularConstant="3.5"
         result="result4"
         surfaceScale="-3"
         id="feSpecularLighting6933">
        <feDistantLight
           azimuth="225"
           elevation="45"
           id="feDistantLight6935" />
      </feSpecularLighting>
      <feComposite
         result="result91"
         operator="arithmetic"
         in="result4"
         k3="0.7"
         k1="1.7"
         in2="result2"
         id="feComposite6937" />
      <feBlend
         mode="multiply"
         result="fbSourceGraphic"
         in2="result91"
         id="feBlend6939" />
      <feComposite
         operator="arithmetic"
         result="result2"
         in="fbSourceGraphic"
         in2="fbSourceGraphic"
         id="feComposite6941" />
      <feComposite
         k3="2"
         k2="2"
         operator="arithmetic"
         result="result4"
         in="result2"
         in2="fbSourceGraphic"
         id="feComposite6943" />
      <feBlend
         in="result4"
         mode="screen"
         in2="result4"
         id="feBlend6945" />
    </filter>
    <filter
       color-interpolation-filters="sRGB"
       inkscape:menu-tooltip="Under a cracked glass"
       inkscape:menu="Textures"
       inkscape:label="Cracked glass"
       id="filter6921-2">
      <feTurbulence
         type="fractalNoise"
         result="result1"
         numOctaves="5"
         seed="50"
         baseFrequency="0.1"
         id="feTurbulence6923-8" />
      <feGaussianBlur
         result="result7"
         stdDeviation="4"
         id="feGaussianBlur6925-3" />
      <feDisplacementMap
         xChannelSelector="G"
         scale="20"
         in="SourceGraphic"
         result="result5"
         in2="result7"
         id="feDisplacementMap6927-8"
         yChannelSelector="A" />
      <feComposite
         in="result5"
         operator="in"
         result="result2"
         in2="result1"
         id="feComposite6929-0" />
      <feGaussianBlur
         result="result6"
         stdDeviation="1"
         id="feGaussianBlur6931-4" />
      <feSpecularLighting
         in="result6"
         specularExponent="35"
         specularConstant="3.5"
         result="result4"
         surfaceScale="-3"
         id="feSpecularLighting6933-0">
        <feDistantLight
           azimuth="225"
           elevation="45"
           id="feDistantLight6935-9" />
      </feSpecularLighting>
      <feComposite
         result="result91"
         operator="arithmetic"
         in="result4"
         k3="0.7"
         k1="1.7"
         in2="result2"
         id="feComposite6937-1"
         k2="0"
         k4="0" />
      <feBlend
         mode="multiply"
         result="fbSourceGraphic"
         in2="result91"
         id="feBlend6939-9" />
      <feComposite
         operator="arithmetic"
         result="result2"
         in="fbSourceGraphic"
         in2="fbSourceGraphic"
         id="feComposite6941-6"
         k1="0"
         k2="0"
         k3="0"
         k4="0" />
      <feComposite
         k3="2"
         k2="2"
         operator="arithmetic"
         result="result4"
         in="result2"
         in2="fbSourceGraphic"
         id="feComposite6943-2"
         k1="0"
         k4="0" />
      <feBlend
         in="result4"
         mode="screen"
         in2="result4"
         id="feBlend6945-5" />
    </filter>
    <filter
       id="filter3514"
       inkscape:label="Cracked glass"
       inkscape:menu="Textures"
       inkscape:menu-tooltip="Under a cracked glass"
       color-interpolation-filters="sRGB">
      <feTurbulence
         id="feTurbulence3516"
         baseFrequency="0.1"
         seed="50"
         numOctaves="5"
         result="result1"
         type="fractalNoise" />
      <feGaussianBlur
         id="feGaussianBlur3518"
         stdDeviation="4"
         result="result7" />
      <feDisplacementMap
         id="feDisplacementMap3520"
         in2="result7"
         result="result5"
         in="SourceGraphic"
         scale="20"
         xChannelSelector="G" />
      <feComposite
         id="feComposite3522"
         in2="result1"
         result="result2"
         operator="in"
         in="result5" />
      <feGaussianBlur
         id="feGaussianBlur3524"
         stdDeviation="1"
         result="result6" />
      <feSpecularLighting
         id="feSpecularLighting3526"
         surfaceScale="-3"
         result="result4"
         specularConstant="3.5"
         specularExponent="35"
         in="result6">
        <feDistantLight
           id="feDistantLight3528"
           elevation="45"
           azimuth="225" />
      </feSpecularLighting>
      <feComposite
         id="feComposite3530"
         in2="result2"
         k1="1.7"
         k3="0.7"
         in="result4"
         operator="arithmetic"
         result="result91" />
      <feBlend
         id="feBlend3532"
         in2="result91"
         result="fbSourceGraphic"
         mode="multiply" />
      <feComposite
         id="feComposite3534"
         in2="fbSourceGraphic"
         in="fbSourceGraphic"
         result="result2"
         operator="arithmetic" />
      <feComposite
         id="feComposite3536"
         in2="fbSourceGraphic"
         in="result2"
         result="result4"
         operator="arithmetic"
         k2="2"
         k3="2" />
      <feBlend
         id="feBlend3538"
         in2="result4"
         mode="screen"
         in="result4" />
    </filter>
  </defs>
  <metadata
     id="metadata7">
    <rdf:RDF>
      <cc:Work
         rdf:about="">
        <dc:format>image/svg+xml</dc:format>
        <dc:type
           rdf:resource="http://purl.org/dc/dcmitype/StillImage" />
        <dc:title></dc:title>
      </cc:Work>
    </rdf:RDF>
  </metadata>
  <g
     inkscape:label="Layer 1"
     inkscape:groupmode="layer"
     id="layer1">
    <rect
       style="fill:#f4d7d7;fill-opacity:1;stroke:#828284;stroke-width:4.5432229;stroke-miterlimit:4;stroke-opacity:1;stroke-dasharray:none"
       id="rect3028-1-2"
       width="361.09372"
       height="75.444893"
       x="2.3103261"
       y="99.934181" />
    <path
       transform="matrix(0.81801169,0,0,0.77663859,-75.985076,-172.72536)"
       sodipodi:type="arc"
       style="fill:#0000ff;fill-opacity:1"
       id="path2987-5"
       sodipodi:cx="260"
       sodipodi:cy="398.07648"
       sodipodi:rx="28.571428"
       sodipodi:ry="28.571428"
       d="m 288.57143,398.07648 a 28.571428,28.571428 0 1 1 -57.14286,0 28.571428,28.571428 0 1 1 57.14286,0 z" />
    <path
       transform="matrix(0.81801169,0,0,0.77663859,-162.22688,-172.72536)"
       sodipodi:type="arc"
       style="fill:#0000ff;fill-opacity:1;stroke:#000000;stroke-width:0.1;stroke-linecap:round;stroke-linejoin:round;stroke-miterlimit:4;stroke-opacity:1;stroke-dasharray:none;stroke-dashoffset:0"
       id="path2987"
       sodipodi:cx="260"
       sodipodi:cy="398.07648"
       sodipodi:rx="28.571428"
       sodipodi:ry="28.571428"
       d="m 288.57143,398.07648 a 28.571428,28.571428 0 1 1 -57.14286,0 28.571428,28.571428 0 1 1 57.14286,0 z" />
    <path
       transform="matrix(0.81801169,0,0,0.77663859,10.256727,-172.72536)"
       sodipodi:type="arc"
       style="fill:#ff0000"
       id="path2987-5-8"
       sodipodi:cx="260"
       sodipodi:cy="398.07648"
       sodipodi:rx="28.571428"
       sodipodi:ry="28.571428"
       d="m 288.57143,398.07648 a 28.571428,28.571428 0 1 1 -57.14286,0 28.571428,28.571428 0 1 1 57.14286,0 z" />
    <path
       transform="matrix(0.81801169,0,0,0.77663859,95.329934,-172.72536)"
       sodipodi:type="arc"
       style="fill:#00ff00"
       id="path2987-5-5"
       sodipodi:cx="260"
       sodipodi:cy="398.07648"
       sodipodi:rx="28.571428"
       sodipodi:ry="28.571428"
       d="m 288.57143,398.07648 a 28.571428,28.571428 0 1 1 -57.14286,0 28.571428,28.571428 0 1 1 57.14286,0 z" />
    <rect
       style="fill:#f4d7d7;fill-opacity:1;stroke:#828284;stroke-width:4.5432229;stroke-miterlimit:4;stroke-opacity:1;stroke-dasharray:none"
       id="rect3028-1-2-7"
       width="361.09372"
       height="75.444893"
       x="2.3103261"
       y="181.35927" />
    <path
       transform="matrix(0.81801169,0,0,0.77663859,-75.985076,-91.300278)"
       sodipodi:type="arc"
       style="fill:#0000ff;fill-opacity:1"
       id="path2987-5-6"
       sodipodi:cx="260"
       sodipodi:cy="398.07648"
       sodipodi:rx="28.571428"
       sodipodi:ry="28.571428"
       d="m 288.57143,398.07648 a 28.571428,28.571428 0 1 1 -57.14286,0 28.571428,28.571428 0 1 1 57.14286,0 z" />
    <path
       transform="matrix(0.81801169,0,0,0.77663859,-162.22688,-91.300278)"
       sodipodi:type="arc"
       style="fill:#0000ff;fill-opacity:1;stroke:#000000;stroke-width:0.1;stroke-linecap:round;stroke-linejoin:round;stroke-miterlimit:4;stroke-opacity:1;stroke-dasharray:none;stroke-dashoffset:0"
       id="path2987-9"
       sodipodi:cx="260"
       sodipodi:cy="398.07648"
       sodipodi:rx="28.571428"
       sodipodi:ry="28.571428"
       d="m 288.57143,398.07648 a 28.571428,28.571428 0 1 1 -57.14286,0 28.571428,28.571428 0 1 1 57.14286,0 z" />
    <path
       transform="matrix(0.81801169,0,0,0.77663859,10.256727,-91.300278)"
       sodipodi:type="arc"
       style="fill:#00ff00"
       id="path2987-5-8-0"
       sodipodi:cx="260"
       sodipodi:cy="398.07648"
       sodipodi:rx="28.571428"
       sodipodi:ry="28.571428"
       d="m 288.57143,398.07648 a 28.571428,28.571428 0 1 1 -57.14286,0 28.571428,28.571428 0 1 1 57.14286,0 z" />
    <path
       transform="matrix(0.81801169,0,0,0.77663859,95.329934,-91.300278)"
       sodipodi:type="arc"
       style="fill:#ff0000"
       id="path2987-5-5-4"
       sodipodi:cx="260"
       sodipodi:cy="398.07648"
       sodipodi:rx="28.571428"
       sodipodi:ry="28.571428"
       d="m 288.57143,398.07648 a 28.571428,28.571428 0 1 1 -57.14286,0 28.571428,28.571428 0 1 1 57.14286,0 z" />
    <rect
       style="fill:#f4d7d7;fill-opacity:1;stroke:#828284;stroke-width:4.5432229;stroke-miterlimit:4;stroke-opacity:1;stroke-dasharray:none"
       id="rect3028-1-2-8"
       width="361.09372"
       height="75.444893"
       x="2.3103261"
       y="262.78436" />
    <path
       transform="matrix(0.81801169,0,0,0.77663859,-75.985076,-9.8751833)"
       sodipodi:type="arc"
       style="fill:#ff0000;fill-opacity:1"
       id="path2987-5-1"
       sodipodi:cx="260"
       sodipodi:cy="398.07648"
       sodipodi:rx="28.571428"
       sodipodi:ry="28.571428"
       d="m 288.57143,398.07648 a 28.571428,28.571428 0 1 1 -57.14286,0 28.571428,28.571428 0 1 1 57.14286,0 z" />
    <path
       transform="matrix(0.81801169,0,0,0.77663859,-162.22688,-9.8751833)"
       sodipodi:type="arc"
       style="fill:#0000ff;fill-opacity:1;stroke:#000000;stroke-width:0.1;stroke-linecap:round;stroke-linejoin:round;stroke-miterlimit:4;stroke-opacity:1;stroke-dasharray:none;stroke-dashoffset:0"
       id="path2987-98"
       sodipodi:cx="260"
       sodipodi:cy="398.07648"
       sodipodi:rx="28.571428"
       sodipodi:ry="28.571428"
       d="m 288.57143,398.07648 a 28.571428,28.571428 0 1 1 -57.14286,0 28.571428,28.571428 0 1 1 57.14286,0 z" />
    <path
       transform="matrix(0.81801169,0,0,0.77663859,10.256727,-9.8751833)"
       sodipodi:type="arc"
       style="fill:#0000ff"
       id="path2987-5-8-1"
       sodipodi:cx="260"
       sodipodi:cy="398.07648"
       sodipodi:rx="28.571428"
       sodipodi:ry="28.571428"
       d="m 288.57143,398.07648 a 28.571428,28.571428 0 1 1 -57.14286,0 28.571428,28.571428 0 1 1 57.14286,0 z" />
    <path
       transform="matrix(0.81801169,0,0,0.77663859,95.329934,-9.8751833)"
       sodipodi:type="arc"
       style="fill:#00ff00"
       id="path2987-5-5-5"
       sodipodi:cx="260"
       sodipodi:cy="398.07648"
       sodipodi:rx="28.571428"
       sodipodi:ry="28.571428"
       d="m 288.57143,398.07648 a 28.571428,28.571428 0 1 1 -57.14286,0 28.571428,28.571428 0 1 1 57.14286,0 z" />
    <rect
       style="fill:#f4d7d7;fill-opacity:1;stroke:#828284;stroke-width:4.5432229;stroke-miterlimit:4;stroke-opacity:1;stroke-dasharray:none"
       id="rect3028-1-2-76"
       width="361.09372"
       height="75.444893"
       x="2.3103261"
       y="425.63452" />
    <path
       transform="matrix(0.81801169,0,0,0.77663859,-75.985076,152.97499)"
       sodipodi:type="arc"
       style="fill:#ff0000;fill-opacity:1"
       id="path2987-5-13"
       sodipodi:cx="260"
       sodipodi:cy="398.07648"
       sodipodi:rx="28.571428"
       sodipodi:ry="28.571428"
       d="m 288.57143,398.07648 a 28.571428,28.571428 0 1 1 -57.14286,0 28.571428,28.571428 0 1 1 57.14286,0 z" />
    <path
       transform="matrix(0.81801169,0,0,0.77663859,-162.22688,152.97499)"
       sodipodi:type="arc"
       style="fill:#0000ff;fill-opacity:1;stroke:#000000;stroke-width:0.1;stroke-linecap:round;stroke-linejoin:round;stroke-miterlimit:4;stroke-opacity:1;stroke-dasharray:none;stroke-dashoffset:0"
       id="path2987-0"
       sodipodi:cx="260"
       sodipodi:cy="398.07648"
       sodipodi:rx="28.571428"
       sodipodi:ry="28.571428"
       d="m 288.57143,398.07648 a 28.571428,28.571428 0 1 1 -57.14286,0 28.571428,28.571428 0 1 1 57.14286,0 z" />
    <path
       transform="matrix(0.81801169,0,0,0.77663859,10.256727,152.97499)"
       sodipodi:type="arc"
       style="fill:#00ff00"
       id="path2987-5-8-4"
       sodipodi:cx="260"
       sodipodi:cy="398.07648"
       sodipodi:rx="28.571428"
       sodipodi:ry="28.571428"
       d="m 288.57143,398.07648 a 28.571428,28.571428 0 1 1 -57.14286,0 28.571428,28.571428 0 1 1 57.14286,0 z" />
    <path
       transform="matrix(0.81801169,0,0,0.77663859,95.329934,152.97499)"
       sodipodi:type="arc"
       style="fill:#0000ff"
       id="path2987-5-5-1"
       sodipodi:cx="260"
       sodipodi:cy="398.07648"
       sodipodi:rx="28.571428"
       sodipodi:ry="28.571428"
       d="m 288.57143,398.07648 a 28.571428,28.571428 0 1 1 -57.14286,0 28.571428,28.571428 0 1 1 57.14286,0 z" />
    <rect
       style="fill:#f4d7d7;fill-opacity:1;stroke:#828284;stroke-width:4.5432229;stroke-miterlimit:4;stroke-opacity:1;stroke-dasharray:none"
       id="rect3028-1-2-6"
       width="361.09372"
       height="75.444893"
       x="2.3103261"
       y="344.20944" />
    <path
       transform="matrix(0.81801169,0,0,0.77663859,-75.985076,71.549906)"
       sodipodi:type="arc"
       style="fill:#00ff00;fill-opacity:1"
       id="path2987-5-3"
       sodipodi:cx="260"
       sodipodi:cy="398.07648"
       sodipodi:rx="28.571428"
       sodipodi:ry="28.571428"
       d="m 288.57143,398.07648 a 28.571428,28.571428 0 1 1 -57.14286,0 28.571428,28.571428 0 1 1 57.14286,0 z" />
    <path
       transform="matrix(0.81801169,0,0,0.77663859,-162.22688,71.549906)"
       sodipodi:type="arc"
       style="fill:#0000ff;fill-opacity:1;stroke:#000000;stroke-width:0.1;stroke-linecap:round;stroke-linejoin:round;stroke-miterlimit:4;stroke-opacity:1;stroke-dasharray:none;stroke-dashoffset:0"
       id="path2987-55"
       sodipodi:cx="260"
       sodipodi:cy="398.07648"
       sodipodi:rx="28.571428"
       sodipodi:ry="28.571428"
       d="m 288.57143,398.07648 a 28.571428,28.571428 0 1 1 -57.14286,0 28.571428,28.571428 0 1 1 57.14286,0 z" />
    <path
       transform="matrix(0.81801169,0,0,0.77663859,10.256727,71.549906)"
       sodipodi:type="arc"
       style="fill:#0000ff"
       id="path2987-5-8-7"
       sodipodi:cx="260"
       sodipodi:cy="398.07648"
       sodipodi:rx="28.571428"
       sodipodi:ry="28.571428"
       d="m 288.57143,398.07648 a 28.571428,28.571428 0 1 1 -57.14286,0 28.571428,28.571428 0 1 1 57.14286,0 z" />
    <path
       transform="matrix(0.81801169,0,0,0.77663859,95.329934,71.549906)"
       sodipodi:type="arc"
       style="fill:#ff0000"
       id="path2987-5-5-7"
       sodipodi:cx="260"
       sodipodi:cy="398.07648"
       sodipodi:rx="28.571428"
       sodipodi:ry="28.571428"
       d="m 288.57143,398.07648 a 28.571428,28.571428 0 1 1 -57.14286,0 28.571428,28.571428 0 1 1 57.14286,0 z" />
    <rect
       style="fill:#f4d7d7;fill-opacity:1;stroke:#828284;stroke-width:4.5432229;stroke-miterlimit:4;stroke-opacity:1;stroke-dasharray:none"
       id="rect3028-1-2-64"
       width="361.09372"
       height="75.444893"
       x="2.3103261"
       y="507.0596" />
    <path
       transform="matrix(0.81801169,0,0,0.77663859,-75.985076,234.40008)"
       sodipodi:type="arc"
       style="fill:#00ff00;fill-opacity:1"
       id="path2987-5-9"
       sodipodi:cx="260"
       sodipodi:cy="398.07648"
       sodipodi:rx="28.571428"
       sodipodi:ry="28.571428"
       d="m 288.57143,398.07648 a 28.571428,28.571428 0 1 1 -57.14286,0 28.571428,28.571428 0 1 1 57.14286,0 z" />
    <path
       transform="matrix(0.81801169,0,0,0.77663859,-162.22688,234.40008)"
       sodipodi:type="arc"
       style="fill:#0000ff;fill-opacity:1;stroke:#000000;stroke-width:0.1;stroke-linecap:round;stroke-linejoin:round;stroke-miterlimit:4;stroke-opacity:1;stroke-dasharray:none;stroke-dashoffset:0"
       id="path2987-4"
       sodipodi:cx="260"
       sodipodi:cy="398.07648"
       sodipodi:rx="28.571428"
       sodipodi:ry="28.571428"
       d="m 288.57143,398.07648 a 28.571428,28.571428 0 1 1 -57.14286,0 28.571428,28.571428 0 1 1 57.14286,0 z" />
    <path
       transform="matrix(0.81801169,0,0,0.77663859,10.256727,234.40008)"
       sodipodi:type="arc"
       style="fill:#ff0000"
       id="path2987-5-8-77"
       sodipodi:cx="260"
       sodipodi:cy="398.07648"
       sodipodi:rx="28.571428"
       sodipodi:ry="28.571428"
       d="m 288.57143,398.07648 a 28.571428,28.571428 0 1 1 -57.14286,0 28.571428,28.571428 0 1 1 57.14286,0 z" />
    <path
       transform="matrix(0.81801169,0,0,0.77663859,95.329934,234.40008)"
       sodipodi:type="arc"
       style="fill:#0000ff"
       id="path2987-5-5-9"
       sodipodi:cx="260"
       sodipodi:cy="398.07648"
       sodipodi:rx="28.571428"
       sodipodi:ry="28.571428"
       d="m 288.57143,398.07648 a 28.571428,28.571428 0 1 1 -57.14286,0 28.571428,28.571428 0 1 1 57.14286,0 z" />
    <text
       xml:space="preserve"
       style="font-size:40px;font-style:normal;font-weight:normal;line-height:125%;letter-spacing:0px;word-spacing:0px;fill:#000000;fill-opacity:1;stroke:none;font-family:Sans"
       x="325.71429"
       y="82.362183"
       id="text5660"
       sodipodi:linespacing="125%"><tspan
         sodipodi:role="line"
         id="tspan5662" /></text>
    <g
       id="content"
       transform="matrix(1.000000,0,0,-1.000000,-200.000000,750.000000)"
       xml:space="preserve"
       stroke="black"
       stroke-linecap="butt"
       stroke-linejoin="miter"
       stroke-miterlimit="10.433"
       stroke-dasharray="none"
       stroke-dashoffset="0"
       stroke-opacity="1"
       fill="none"
       fill-rule="evenodd"
       fill-opacity="1"
       font-style="normal"
       font-variant="normal"
       font-weight="normal"
       font-stretch="normal"
       font-size-adjust="none"
       letter-spacing="normal"
       word-spacing="normal"
       text-anchor="start"
       ns0:text="$\\alpha$"
       ns0:preamble="">
<path
   d="M228.18,709.47 L228.18,709.55 L228.18,709.62 L228.18,709.69 L228.17,709.75 L228.16,709.89 L228.14,710.01 L228.12,710.13 L228.09,710.24 L228.06,710.35 L228.03,710.45 L227.99,710.55 L227.95,710.64 L227.9,710.73 L227.85,710.81 L227.8,710.89 L227.75,710.96 L227.69,711.02 L227.63,711.09 L227.57,711.14 L227.5,711.2 L227.44,711.24 L227.37,711.29 L227.3,711.33 L227.23,711.37 L227.16,711.4 L227.09,711.43 L227.02,711.45 L226.95,711.47 L226.88,711.49 L226.8,711.5 L226.73,711.51 L226.66,711.52 L226.59,711.52 L226.52,711.53 L226.51,711.31 C227.5,711.31,227.5,710,227.5,709.22 C227.5,708.86,227.5,708.28,227.52,708.11 H227.52 C226.64,707.34,225.87,707.23,225.48,707.23 C224.88,707.23,224.58,707.68,224.58,708.32 C224.58,708.81,224.84,709.88,225.16,710.39 C225.62,711.12,226.16,711.31,226.51,711.31 L226.52,711.53 C225.16,711.53,223.84,710.1,223.84,708.7 C223.84,707.77,224.44,707.01,225.46,707.01 C226.08,707.01,226.8,707.24,227.56,707.85 C227.69,707.32,228.01,707.01,228.46,707.01 C228.99,707.01,229.3,707.56,229.3,707.72 C229.3,707.79,229.24,707.82,229.18,707.82 C229.11,707.82,229.08,707.79,229.05,707.72 C228.87,707.23,228.51,707.23,228.49,707.23 C228.18,707.23,228.18,708.01,228.18,708.25 C228.18,708.46,228.18,708.48,228.28,708.6 C229.22,709.77,229.43,710.93,229.43,710.94 C229.43,710.96,229.42,711.04,229.31,711.04 C229.21,711.04,229.21,711.01,229.16,710.83 C228.98,710.2,228.65,709.44,228.18,708.86 Z "
   stroke-width="0"
   fill="black"
   id="path3060" />
</g>    <rect
       style="fill:#f4d7d7;fill-opacity:1;stroke:#828284;stroke-width:4.5432229;stroke-miterlimit:4;stroke-opacity:1;stroke-dasharray:none"
       id="rect3028-1-2-4"
       width="361.09372"
       height="75.444893"
       x="377.40405"
       y="99.934181" />
    <path
       transform="matrix(0.81801169,0,0,0.77663859,299.10866,-172.72537)"
       sodipodi:type="arc"
       style="fill:#0000ff;fill-opacity:1"
       id="path2987-5-4"
       sodipodi:cx="260"
       sodipodi:cy="398.07648"
       sodipodi:rx="28.571428"
       sodipodi:ry="28.571428"
       d="m 288.57143,398.07648 a 28.571428,28.571428 0 1 1 -57.14286,0 28.571428,28.571428 0 1 1 57.14286,0 z" />
    <path
       transform="matrix(0.81801169,0,0,0.77663859,212.86686,-172.72537)"
       sodipodi:type="arc"
       style="fill:#ff0000;fill-opacity:1;stroke:#000000;stroke-width:0.10000000000000001;stroke-linecap:round;stroke-linejoin:round;stroke-miterlimit:4;stroke-opacity:1;stroke-dasharray:none;stroke-dashoffset:0"
       id="path2987-99"
       sodipodi:cx="260"
       sodipodi:cy="398.07648"
       sodipodi:rx="28.571428"
       sodipodi:ry="28.571428"
       d="m 288.57143,398.07648 a 28.571428,28.571428 0 1 1 -57.14286,0 28.571428,28.571428 0 1 1 57.14286,0 z" />
    <path
       transform="matrix(0.81801169,0,0,0.77663859,385.35046,-172.72537)"
       sodipodi:type="arc"
       style="fill:#0000ff"
       id="path2987-5-8-3"
       sodipodi:cx="260"
       sodipodi:cy="398.07648"
       sodipodi:rx="28.571428"
       sodipodi:ry="28.571428"
       d="m 288.57143,398.07648 a 28.571428,28.571428 0 1 1 -57.14286,0 28.571428,28.571428 0 1 1 57.14286,0 z" />
    <path
       transform="matrix(0.81801169,0,0,0.77663859,470.42367,-172.72537)"
       sodipodi:type="arc"
       style="fill:#00ff00"
       id="path2987-5-5-6"
       sodipodi:cx="260"
       sodipodi:cy="398.07648"
       sodipodi:rx="28.571428"
       sodipodi:ry="28.571428"
       d="m 288.57143,398.07648 a 28.571428,28.571428 0 1 1 -57.14286,0 28.571428,28.571428 0 1 1 57.14286,0 z" />
    <rect
       style="fill:#f4d7d7;fill-opacity:1;stroke:#828284;stroke-width:4.5432229;stroke-miterlimit:4;stroke-opacity:1;stroke-dasharray:none"
       id="rect3028-1-2-7-0"
       width="361.09372"
       height="75.444893"
       x="377.40405"
       y="181.35927" />
    <path
       transform="matrix(0.81801169,0,0,0.77663859,299.10866,-91.300285)"
       sodipodi:type="arc"
       style="fill:#0000ff;fill-opacity:1"
       id="path2987-5-6-5"
       sodipodi:cx="260"
       sodipodi:cy="398.07648"
       sodipodi:rx="28.571428"
       sodipodi:ry="28.571428"
       d="m 288.57143,398.07648 a 28.571428,28.571428 0 1 1 -57.14286,0 28.571428,28.571428 0 1 1 57.14286,0 z" />
    <path
       transform="matrix(0.81801169,0,0,0.77663859,212.86686,-91.300285)"
       sodipodi:type="arc"
       style="fill:#ff0000;fill-opacity:1;stroke:#000000;stroke-width:0.10000000000000001;stroke-linecap:round;stroke-linejoin:round;stroke-miterlimit:4;stroke-opacity:1;stroke-dasharray:none;stroke-dashoffset:0"
       id="path2987-9-0"
       sodipodi:cx="260"
       sodipodi:cy="398.07648"
       sodipodi:rx="28.571428"
       sodipodi:ry="28.571428"
       d="m 288.57143,398.07648 a 28.571428,28.571428 0 1 1 -57.14286,0 28.571428,28.571428 0 1 1 57.14286,0 z" />
    <path
       transform="matrix(0.81801169,0,0,0.77663859,385.35046,-91.300285)"
       sodipodi:type="arc"
       style="fill:#00ff00"
       id="path2987-5-8-0-2"
       sodipodi:cx="260"
       sodipodi:cy="398.07648"
       sodipodi:rx="28.571428"
       sodipodi:ry="28.571428"
       d="m 288.57143,398.07648 a 28.571428,28.571428 0 1 1 -57.14286,0 28.571428,28.571428 0 1 1 57.14286,0 z" />
    <path
       transform="matrix(0.81801169,0,0,0.77663859,470.42367,-91.300285)"
       sodipodi:type="arc"
       style="fill:#0000ff"
       id="path2987-5-5-4-9"
       sodipodi:cx="260"
       sodipodi:cy="398.07648"
       sodipodi:rx="28.571428"
       sodipodi:ry="28.571428"
       d="m 288.57143,398.07648 a 28.571428,28.571428 0 1 1 -57.14286,0 28.571428,28.571428 0 1 1 57.14286,0 z" />
    <rect
       style="fill:#f4d7d7;fill-opacity:1;stroke:#828284;stroke-width:4.5432229;stroke-miterlimit:4;stroke-opacity:1;stroke-dasharray:none"
       id="rect3028-1-2-8-4"
       width="361.09372"
       height="75.444893"
       x="377.40405"
       y="262.78436" />
    <path
       transform="matrix(0.81801169,0,0,0.77663859,299.10866,-9.8751853)"
       sodipodi:type="arc"
       style="fill:#00ff00;fill-opacity:1"
       id="path2987-5-1-3"
       sodipodi:cx="260"
       sodipodi:cy="398.07648"
       sodipodi:rx="28.571428"
       sodipodi:ry="28.571428"
       d="m 288.57143,398.07648 a 28.571428,28.571428 0 1 1 -57.14286,0 28.571428,28.571428 0 1 1 57.14286,0 z" />
    <path
       transform="matrix(0.81801169,0,0,0.77663859,212.86686,-9.8751853)"
       sodipodi:type="arc"
       style="fill:#ff0000;fill-opacity:1;stroke:#000000;stroke-width:0.10000000000000001;stroke-linecap:round;stroke-linejoin:round;stroke-miterlimit:4;stroke-opacity:1;stroke-dasharray:none;stroke-dashoffset:0"
       id="path2987-98-5"
       sodipodi:cx="260"
       sodipodi:cy="398.07648"
       sodipodi:rx="28.571428"
       sodipodi:ry="28.571428"
       d="m 288.57143,398.07648 a 28.571428,28.571428 0 1 1 -57.14286,0 28.571428,28.571428 0 1 1 57.14286,0 z" />
    <path
       transform="matrix(0.81801169,0,0,0.77663859,385.35046,-9.8751853)"
       sodipodi:type="arc"
       style="fill:#0000ff"
       id="path2987-5-8-1-1"
       sodipodi:cx="260"
       sodipodi:cy="398.07648"
       sodipodi:rx="28.571428"
       sodipodi:ry="28.571428"
       d="m 288.57143,398.07648 a 28.571428,28.571428 0 1 1 -57.14286,0 28.571428,28.571428 0 1 1 57.14286,0 z" />
    <path
       transform="matrix(0.81801169,0,0,0.77663859,470.42367,-9.8751853)"
       sodipodi:type="arc"
       style="fill:#0000ff"
       id="path2987-5-5-5-7"
       sodipodi:cx="260"
       sodipodi:cy="398.07648"
       sodipodi:rx="28.571428"
       sodipodi:ry="28.571428"
       d="m 288.57143,398.07648 a 28.571428,28.571428 0 1 1 -57.14286,0 28.571428,28.571428 0 1 1 57.14286,0 z" />
    <rect
       style="fill:#f4d7d7;fill-opacity:1;stroke:#828284;stroke-width:4.5432229;stroke-miterlimit:4;stroke-opacity:1;stroke-dasharray:none"
       id="rect3028-1-2-76-4"
       width="361.09372"
       height="75.444893"
       x="377.40405"
       y="425.63452" />
    <path
       transform="matrix(0.81801169,0,0,0.77663859,299.10866,152.97498)"
       sodipodi:type="arc"
       style="fill:#0000ff;fill-opacity:1"
       id="path2987-5-13-3"
       sodipodi:cx="260"
       sodipodi:cy="398.07648"
       sodipodi:rx="28.571428"
       sodipodi:ry="28.571428"
       d="m 288.57143,398.07648 a 28.571428,28.571428 0 1 1 -57.14286,0 28.571428,28.571428 0 1 1 57.14286,0 z" />
    <path
       transform="matrix(0.81801169,0,0,0.77663859,212.86686,152.97498)"
       sodipodi:type="arc"
       style="fill:#00ff00;fill-opacity:1;stroke:#000000;stroke-width:0.10000000000000001;stroke-linecap:round;stroke-linejoin:round;stroke-miterlimit:4;stroke-opacity:1;stroke-dasharray:none;stroke-dashoffset:0"
       id="path2987-0-1"
       sodipodi:cx="260"
       sodipodi:cy="398.07648"
       sodipodi:rx="28.571428"
       sodipodi:ry="28.571428"
       d="m 288.57143,398.07648 a 28.571428,28.571428 0 1 1 -57.14286,0 28.571428,28.571428 0 1 1 57.14286,0 z" />
    <path
       transform="matrix(0.81801169,0,0,0.77663859,385.35046,152.97498)"
       sodipodi:type="arc"
       style="fill:#ff0000"
       id="path2987-5-8-4-4"
       sodipodi:cx="260"
       sodipodi:cy="398.07648"
       sodipodi:rx="28.571428"
       sodipodi:ry="28.571428"
       d="m 288.57143,398.07648 a 28.571428,28.571428 0 1 1 -57.14286,0 28.571428,28.571428 0 1 1 57.14286,0 z" />
    <path
       transform="matrix(0.81801169,0,0,0.77663859,470.42367,152.97498)"
       sodipodi:type="arc"
       style="fill:#0000ff"
       id="path2987-5-5-1-6"
       sodipodi:cx="260"
       sodipodi:cy="398.07648"
       sodipodi:rx="28.571428"
       sodipodi:ry="28.571428"
       d="m 288.57143,398.07648 a 28.571428,28.571428 0 1 1 -57.14286,0 28.571428,28.571428 0 1 1 57.14286,0 z" />
    <rect
       style="fill:#f4d7d7;fill-opacity:1;stroke:#828284;stroke-width:4.5432229;stroke-miterlimit:4;stroke-opacity:1;stroke-dasharray:none"
       id="rect3028-1-2-6-9"
       width="361.09372"
       height="75.444893"
       x="377.40405"
       y="344.20944" />
    <path
       transform="matrix(0.81801169,0,0,0.77663859,299.10866,71.549905)"
       sodipodi:type="arc"
       style="fill:#0000ff;fill-opacity:1"
       id="path2987-5-3-4"
       sodipodi:cx="260"
       sodipodi:cy="398.07648"
       sodipodi:rx="28.571428"
       sodipodi:ry="28.571428"
       d="m 288.57143,398.07648 a 28.571428,28.571428 0 1 1 -57.14286,0 28.571428,28.571428 0 1 1 57.14286,0 z" />
    <path
       transform="matrix(0.81801169,0,0,0.77663859,212.86686,71.549905)"
       sodipodi:type="arc"
       style="fill:#00ff00;fill-opacity:1;stroke:#000000;stroke-width:0.10000000000000001;stroke-linecap:round;stroke-linejoin:round;stroke-miterlimit:4;stroke-opacity:1;stroke-dasharray:none;stroke-dashoffset:0"
       id="path2987-55-2"
       sodipodi:cx="260"
       sodipodi:cy="398.07648"
       sodipodi:rx="28.571428"
       sodipodi:ry="28.571428"
       d="m 288.57143,398.07648 a 28.571428,28.571428 0 1 1 -57.14286,0 28.571428,28.571428 0 1 1 57.14286,0 z" />
    <path
       transform="matrix(0.81801169,0,0,0.77663859,385.35046,71.549905)"
       sodipodi:type="arc"
       style="fill:#0000ff"
       id="path2987-5-8-7-2"
       sodipodi:cx="260"
       sodipodi:cy="398.07648"
       sodipodi:rx="28.571428"
       sodipodi:ry="28.571428"
       d="m 288.57143,398.07648 a 28.571428,28.571428 0 1 1 -57.14286,0 28.571428,28.571428 0 1 1 57.14286,0 z" />
    <path
       transform="matrix(0.81801169,0,0,0.77663859,470.42367,71.549905)"
       sodipodi:type="arc"
       style="fill:#ff0000"
       id="path2987-5-5-7-6"
       sodipodi:cx="260"
       sodipodi:cy="398.07648"
       sodipodi:rx="28.571428"
       sodipodi:ry="28.571428"
       d="m 288.57143,398.07648 a 28.571428,28.571428 0 1 1 -57.14286,0 28.571428,28.571428 0 1 1 57.14286,0 z" />
    <rect
       style="fill:#f4d7d7;fill-opacity:1;stroke:#828284;stroke-width:4.5432229;stroke-miterlimit:4;stroke-opacity:1;stroke-dasharray:none"
       id="rect3028-1-2-64-4"
       width="361.09372"
       height="75.444893"
       x="377.40405"
       y="507.0596" />
    <path
       transform="matrix(0.81801169,0,0,0.77663859,299.10866,234.40008)"
       sodipodi:type="arc"
       style="fill:#ff0000;fill-opacity:1"
       id="path2987-5-9-1"
       sodipodi:cx="260"
       sodipodi:cy="398.07648"
       sodipodi:rx="28.571428"
       sodipodi:ry="28.571428"
       d="m 288.57143,398.07648 a 28.571428,28.571428 0 1 1 -57.14286,0 28.571428,28.571428 0 1 1 57.14286,0 z" />
    <path
       transform="matrix(0.81801169,0,0,0.77663859,212.86686,234.40008)"
       sodipodi:type="arc"
       style="fill:#00ff00;fill-opacity:1;stroke:#000000;stroke-width:0.10000000000000001;stroke-linecap:round;stroke-linejoin:round;stroke-miterlimit:4;stroke-opacity:1;stroke-dasharray:none;stroke-dashoffset:0"
       id="path2987-4-2"
       sodipodi:cx="260"
       sodipodi:cy="398.07648"
       sodipodi:rx="28.571428"
       sodipodi:ry="28.571428"
       d="m 288.57143,398.07648 a 28.571428,28.571428 0 1 1 -57.14286,0 28.571428,28.571428 0 1 1 57.14286,0 z" />
    <path
       transform="matrix(0.81801169,0,0,0.77663859,385.35046,234.40008)"
       sodipodi:type="arc"
       style="fill:#0000ff"
       id="path2987-5-8-77-8"
       sodipodi:cx="260"
       sodipodi:cy="398.07648"
       sodipodi:rx="28.571428"
       sodipodi:ry="28.571428"
       d="m 288.57143,398.07648 a 28.571428,28.571428 0 1 1 -57.14286,0 28.571428,28.571428 0 1 1 57.14286,0 z" />
    <path
       transform="matrix(0.81801169,0,0,0.77663859,470.42367,234.40008)"
       sodipodi:type="arc"
       style="fill:#0000ff"
       id="path2987-5-5-9-8"
       sodipodi:cx="260"
       sodipodi:cy="398.07648"
       sodipodi:rx="28.571428"
       sodipodi:ry="28.571428"
       d="m 288.57143,398.07648 a 28.571428,28.571428 0 1 1 -57.14286,0 28.571428,28.571428 0 1 1 57.14286,0 z" />
    <g
       id="content-9"
       transform="matrix(1,0,0,-1,175.09374,749.99999)"
       xml:space="preserve"
       stroke-miterlimit="10.433"
       font-style="normal"
       font-variant="normal"
       font-weight="normal"
       font-stretch="normal"
       font-size-adjust="none"
       letter-spacing="normal"
       word-spacing="normal"
       ns0:text="$\\alpha$"
       ns0:preamble=""
       style="font-style:normal;font-variant:normal;font-weight:normal;font-stretch:normal;letter-spacing:normal;word-spacing:normal;text-anchor:start;fill:none;stroke:#000000;stroke-linecap:butt;stroke-linejoin:miter;stroke-miterlimit:10.43299961;stroke-opacity:1;stroke-dasharray:none;stroke-dashoffset:0">
<path
   d="m 228.18,709.47 0,0.08 0,0.07 0,0.07 -0.01,0.06 -0.01,0.14 -0.02,0.12 -0.02,0.12 -0.03,0.11 -0.03,0.11 -0.03,0.1 -0.04,0.1 -0.04,0.09 -0.05,0.09 -0.05,0.08 -0.05,0.08 -0.05,0.07 -0.06,0.06 -0.06,0.07 -0.06,0.05 -0.07,0.06 -0.06,0.04 -0.07,0.05 -0.07,0.04 -0.07,0.04 -0.07,0.03 -0.07,0.03 -0.07,0.02 -0.07,0.02 -0.07,0.02 -0.08,0.01 -0.07,0.01 -0.07,0.01 -0.07,0 -0.07,0.01 -0.01,-0.22 c 0.99,0 0.99,-1.31 0.99,-2.09 0,-0.36 0,-0.94 0.02,-1.11 h 0 c -0.88,-0.77 -1.65,-0.88 -2.04,-0.88 -0.6,0 -0.9,0.45 -0.9,1.09 0,0.49 0.26,1.56 0.58,2.07 0.46,0.73 1,0.92 1.35,0.92 l 0.01,0.22 c -1.36,0 -2.68,-1.43 -2.68,-2.83 0,-0.93 0.6,-1.69 1.62,-1.69 0.62,0 1.34,0.23 2.1,0.84 0.13,-0.53 0.45,-0.84 0.9,-0.84 0.53,0 0.84,0.55 0.84,0.71 0,0.07 -0.06,0.1 -0.12,0.1 -0.07,0 -0.1,-0.03 -0.13,-0.1 -0.18,-0.49 -0.54,-0.49 -0.56,-0.49 -0.31,0 -0.31,0.78 -0.31,1.02 0,0.21 0,0.23 0.1,0.35 0.94,1.17 1.15,2.33 1.15,2.34 0,0.02 -0.01,0.1 -0.12,0.1 -0.1,0 -0.1,-0.03 -0.15,-0.21 -0.18,-0.63 -0.51,-1.39 -0.98,-1.97 z"
   id="path3060-2"
   inkscape:connector-curvature="0"
   style="fill:#000000;stroke-width:0" />
</g>  </g>
  <rect
     style="fill:#e3dbdb;fill-opacity:1;fill-rule:nonzero;stroke:#000000;stroke-width:0.10000000000000001;stroke-linecap:round;stroke-linejoin:round;stroke-miterlimit:4;stroke-opacity:1;stroke-dasharray:none;stroke-dashoffset:0;filter:url(#filter3514)"
     id="rect3512"
     width="213.27579"
     height="56.024506"
     x="266.22723"
     y="313.99051" />
  <g
     id="g3375"
     transform="matrix(0.81111922,0,0,0.70814242,18.246437,98.851945)">
    <g
       word-spacing="normal"
       letter-spacing="normal"
       font-size-adjust="none"
       font-stretch="normal"
       font-weight="normal"
       font-variant="normal"
       font-style="normal"
       stroke-miterlimit="10.433"
       xml:space="preserve"
       transform="matrix(1.0629921,0,0,-1.0629921,-186.02362,789.27165)"
       id="g3377"
       style="font-style:normal;font-variant:normal;font-weight:normal;font-stretch:normal;letter-spacing:normal;word-spacing:normal;text-anchor:start;fill:none;stroke:#000000;stroke-linecap:butt;stroke-linejoin:miter;stroke-miterlimit:10.43299961;stroke-opacity:1;stroke-dasharray:none;stroke-dashoffset:0"><path
         id="path3379"
         d="m 476.57,389.77 0,0.01 0,0.02 0,0.02 0,0.02 0,0.01 -0.01,0.02 0,0.01 0,0.02 -0.01,0.01 0,0.02 -0.01,0.01 0,0.02 -0.01,0.01 -0.01,0.01 0,0.01 -0.01,0.02 -0.01,0.02 -0.02,0.03 -0.02,0.02 -0.01,0.03 -0.02,0.02 -0.02,0.03 -0.02,0.03 -0.01,0.02 c -2.3,2.44 -5.68,6.48 -7.78,14.6 -1.14,4.53 -1.59,9.66 -1.59,14.3 0,13.1 3.14,22.26 9.11,28.74 0.45,0.45 0.45,0.54 0.45,0.65 0,0.49 -0.39,0.49 -0.59,0.49 -0.75,0 -3.44,-2.99 -4.09,-3.73 -5.08,-6.03 -8.32,-15 -8.32,-26.1 0,-7.08 1.25,-17.09 7.77,-25.51 0.5,-0.6 3.74,-4.38 4.64,-4.38 0.2,0 0.59,0 0.59,0.5 z"
         inkscape:connector-curvature="0"
         style="fill:#000000;stroke-width:0" /><path
         id="path3381"
         d="m 528.45,433.72 v 1.25 h -3.88 v 15.56 c 0,0.73 0,0.97 -0.76,0.97 -0.42,0 -0.56,0 -0.91,-0.49 l -11.54,-16.04 v -1.25 h 10.25 l 0.24,1.25 h -9.2 l 9.2,12.76 v -12.76 l -0.24,-1.25 v -2.86 c 0,-1.19 0,-1.61 -2.83,-1.61 h -0.94 V 428 h 10.5 v 1.25 h -0.94 c -2.83,0 -2.83,0.42 -2.83,1.61 v 2.86 z"
         inkscape:connector-curvature="0"
         style="fill:#000000;stroke-width:0" /><path
         id="path3383"
         d="m 495.61,395.35 h -1.19 c -0.1,-0.77 -0.45,-2.83 -0.9,-3.18 -0.28,-0.21 -2.97,-0.21 -3.45,-0.21 h -6.42 c 3.66,3.25 4.88,4.22 6.97,5.86 2.58,2.06 4.99,4.22 4.99,7.54 0,4.21 -3.7,6.79 -8.16,6.79 -4.33,0 -7.25,-3.03 -7.25,-6.24 0,-1.78 1.5,-1.95 1.84,-1.95 0.84,0 1.85,0.59 1.85,1.85 0,0.62 -0.24,1.85 -2.05,1.85 1.08,2.47 3.45,3.24 5.09,3.24 3.48,0 5.3,-2.72 5.3,-5.54 0,-3.04 -2.16,-5.45 -3.28,-6.7 l -8.4,-8.3 c -0.35,-0.31 -0.35,-0.38 -0.35,-1.36 h 14.36 z"
         inkscape:connector-curvature="0"
         style="fill:#000000;stroke-width:0" /><path
         id="path3385"
         d="m 505.36,389.56 -0.01,-0.36 -0.01,-0.37 -0.03,-0.38 -0.05,-0.38 -0.02,-0.2 -0.04,-0.19 -0.04,-0.2 -0.04,-0.19 -0.05,-0.2 -0.05,-0.2 -0.07,-0.2 -0.06,-0.2 -0.08,-0.21 -0.08,-0.2 -0.09,-0.2 -0.1,-0.21 -0.11,-0.2 -0.11,-0.21 -0.13,-0.21 -0.13,-0.2 -0.14,-0.21 -0.15,-0.21 -0.16,-0.21 -0.18,-0.21 -0.18,-0.21 -0.19,-0.21 -0.21,-0.2 -0.21,-0.21 c -0.14,-0.14 -0.25,-0.25 -0.25,-0.42 0,-0.24 0.28,-0.49 0.49,-0.49 0.49,0 3.45,2.79 3.45,6.94 0,2.16 -0.83,3.8 -2.44,3.8 -1.15,0 -1.98,-0.91 -1.98,-1.99 0,-1.11 0.8,-2.02 2.02,-2.02 0.84,0 1.39,0.56 1.43,0.56 z"
         inkscape:connector-curvature="0"
         style="fill:#000000;stroke-width:0" /><path
         id="path3387"
         d="m 521.68,411.18 0,0.04 0,0.04 0,0.04 0,0.04 0,0.04 0,0.04 0,0.03 0,0.04 -0.01,0.03 0,0.03 0,0.04 0,0.03 -0.01,0.02 0,0.03 0,0.03 -0.01,0.03 0,0.02 0,0.02 -0.02,0.05 -0.01,0.04 -0.01,0.04 -0.02,0.03 -0.02,0.03 -0.02,0.03 -0.03,0.03 -0.02,0.02 -0.03,0.02 -0.04,0.02 -0.03,0.01 -0.04,0.01 -0.05,0.02 -0.05,0 -0.02,0.01 -0.03,0 -0.03,0.01 -0.02,0 -0.03,0 -0.03,0 -0.04,0 -0.03,0.01 -0.03,0 -0.04,0 -0.03,0 -0.04,0 -0.04,0 -0.04,0 -0.04,0 -0.04,0 -0.05,0 -0.04,0 c -2.24,-2.19 -5.41,-2.23 -6.84,-2.23 v -1.25 c 0.84,0 3.14,0 5.05,0.97 v -17.78 c 0,-1.15 0,-1.61 -3.48,-1.61 h -1.33 V 389 h 12.45 v 1.25 h -1.32 c -3.49,0 -3.49,0.46 -3.49,1.61 z"
         inkscape:connector-curvature="0"
         style="fill:#000000;stroke-width:0" /><path
         id="path3389"
         d="m 537.35,389.56 0,-0.36 -0.01,-0.37 -0.03,-0.38 -0.05,-0.38 -0.02,-0.2 -0.04,-0.19 -0.04,-0.2 -0.04,-0.19 -0.05,-0.2 -0.05,-0.2 -0.07,-0.2 -0.06,-0.2 -0.08,-0.21 -0.08,-0.2 -0.09,-0.2 -0.1,-0.21 -0.11,-0.2 -0.11,-0.21 -0.13,-0.21 -0.13,-0.2 -0.14,-0.21 -0.15,-0.21 -0.16,-0.21 -0.18,-0.21 -0.18,-0.21 -0.19,-0.21 -0.21,-0.2 -0.21,-0.21 c -0.14,-0.14 -0.24,-0.25 -0.24,-0.42 0,-0.24 0.27,-0.49 0.48,-0.49 0.49,0 3.45,2.79 3.45,6.94 0,2.16 -0.83,3.8 -2.43,3.8 -1.16,0 -1.99,-0.91 -1.99,-1.99 0,-1.11 0.8,-2.02 2.02,-2.02 0.84,0 1.39,0.56 1.42,0.56 z"
         inkscape:connector-curvature="0"
         style="fill:#000000;stroke-width:0" /><path
         id="path3391"
         d="m 553.68,411.18 0,0.04 0,0.04 0,0.04 0,0.04 0,0.04 0,0.04 0,0.03 0,0.04 -0.01,0.03 0,0.03 0,0.04 0,0.03 -0.01,0.02 0,0.03 0,0.03 -0.01,0.03 0,0.02 0,0.02 -0.02,0.05 -0.01,0.04 -0.01,0.04 -0.02,0.03 -0.02,0.03 -0.02,0.03 -0.03,0.03 -0.02,0.02 -0.03,0.02 -0.04,0.02 -0.03,0.01 -0.04,0.01 -0.05,0.02 -0.05,0 -0.02,0.01 -0.03,0 -0.03,0.01 -0.02,0 -0.03,0 -0.03,0 -0.04,0 -0.03,0.01 -0.03,0 -0.04,0 -0.03,0 -0.04,0 -0.04,0 -0.04,0 -0.04,0 -0.04,0 -0.05,0 -0.04,0 c -2.24,-2.19 -5.41,-2.23 -6.84,-2.23 v -1.25 c 0.84,0 3.14,0 5.05,0.97 v -17.78 c 0,-1.15 0,-1.61 -3.48,-1.61 h -1.33 V 389 h 12.45 v 1.25 h -1.32 c -3.49,0 -3.49,0.46 -3.49,1.61 z"
         inkscape:connector-curvature="0"
         style="fill:#000000;stroke-width:0" /><path
         id="path3393"
         d="m 577.19,419.11 -0.01,1.35 -0.06,1.43 -0.09,1.47 -0.14,1.53 -0.19,1.57 -0.25,1.6 -0.31,1.64 -0.39,1.65 -0.22,0.84 -0.24,0.83 -0.26,0.84 -0.28,0.85 -0.31,0.84 -0.32,0.84 -0.36,0.84 -0.37,0.84 -0.4,0.83 -0.43,0.84 -0.45,0.82 -0.48,0.83 -0.51,0.81 -0.54,0.81 -0.56,0.81 -0.6,0.79 c -0.49,0.6 -3.73,4.38 -4.63,4.38 -0.25,0 -0.6,-0.1 -0.6,-0.49 0,-0.2 0.1,-0.36 0.3,-0.5 2.39,-2.59 5.63,-6.63 7.67,-14.55 1.15,-4.53 1.6,-9.66 1.6,-14.29 0,-5.04 -0.45,-10.12 -1.75,-15 -1.89,-6.97 -4.83,-10.96 -7.37,-13.75 -0.45,-0.45 -0.45,-0.55 -0.45,-0.64 0,-0.4 0.35,-0.5 0.6,-0.5 0.74,0 3.49,3.03 4.09,3.73 5.08,6.03 8.31,15 8.31,26.11 z"
         inkscape:connector-curvature="0"
         style="fill:#000000;stroke-width:0" /><path
         id="path3395"
         d="m 632.22,422.29 0.14,0 0.15,0 0.15,0.01 0.07,0 0.07,0 0.07,0.01 0.08,0.01 0.07,0.01 0.07,0.01 0.06,0.02 0.07,0.01 0.07,0.02 0.06,0.02 0.06,0.03 0.06,0.03 0.05,0.03 0.06,0.03 0.05,0.04 0.04,0.04 0.05,0.05 0.03,0.05 0.02,0.03 0.02,0.02 0.02,0.03 0.01,0.03 0.02,0.03 0.01,0.04 0.01,0.03 0.01,0.04 0.01,0.03 0.01,0.04 0.01,0.04 0,0.04 0.01,0.04 0,0.04 0,0.05 0,0.05 c 0,0.99 -0.94,0.99 -1.64,0.99 h -29.84 c -0.7,0 -1.64,0 -1.64,-0.99 0,-1 0.94,-1 1.69,-1 z"
         inkscape:connector-curvature="0"
         style="fill:#000000;stroke-width:0" /><path
         id="path3397"
         d="m 632.27,412.62 0.13,0.01 0.14,0 0.14,0 0.07,0.01 0.07,0 0.07,0.01 0.07,0.01 0.07,0.01 0.07,0.01 0.06,0.01 0.07,0.02 0.06,0.02 0.06,0.02 0.06,0.02 0.06,0.03 0.06,0.03 0.05,0.04 0.05,0.04 0.04,0.04 0.05,0.04 0.02,0.03 0.02,0.03 0.01,0.02 0.02,0.03 0.02,0.03 0.01,0.03 0.02,0.03 0.01,0.03 0.01,0.04 0.01,0.03 0.01,0.04 0.01,0.04 0.01,0.04 0,0.04 0.01,0.04 0,0.04 0,0.05 0,0.04 c 0,1 -0.94,1 -1.69,1 h -29.74 c -0.75,0 -1.69,0 -1.69,-1 0,-1 0.94,-1 1.64,-1 z"
         inkscape:connector-curvature="0"
         style="fill:#000000;stroke-width:0" /><path
         id="path3399"
         d="m 665.65,437.88 0,0.05 -0.01,0.06 0,0.05 0,0.05 0,0.05 0,0.05 0,0.04 0,0.05 0,0.04 0,0.04 0,0.04 0,0.04 0,0.04 -0.01,0.04 0,0.03 0,0.04 -0.01,0.03 0,0.03 -0.01,0.06 -0.01,0.05 -0.02,0.05 -0.01,0.05 -0.02,0.04 -0.02,0.04 -0.03,0.04 -0.03,0.03 -0.03,0.02 -0.03,0.03 -0.04,0.02 -0.05,0.02 -0.02,0.01 -0.03,0.01 -0.02,0 -0.03,0.01 -0.03,0.01 -0.03,0 -0.03,0.01 -0.03,0 -0.03,0.01 -0.04,0 -0.04,0 -0.03,0 -0.04,0.01 -0.04,0 -0.04,0 -0.05,0 -0.04,0 -0.05,0 -0.05,0.01 -0.05,0 -0.05,0 -0.05,0 c -3.09,-3.19 -7.47,-3.19 -9.07,-3.19 v -1.55 c 1,0 3.94,0 6.53,1.3 v -25.81 c 0,-1.79 -0.15,-2.39 -4.63,-2.39 h -1.6 V 406 h 16.14 v 1.54 h -1.59 c -4.49,0 -4.63,0.55 -4.63,2.39 z"
         inkscape:connector-curvature="0"
         style="fill:#000000;stroke-width:0" /><path
         id="path3401"
         d="m 682.33,409.84 5.27,5.12 c 7.78,6.88 10.77,9.57 10.77,14.55 0,5.68 -4.49,9.67 -10.57,9.67 -5.62,0 -9.31,-4.59 -9.31,-9.02 0,-2.79 2.49,-2.79 2.64,-2.79 0.85,0 2.59,0.6 2.59,2.64 0,1.29 -0.9,2.59 -2.64,2.59 -0.4,0 -0.5,0 -0.65,-0.05 1.15,3.24 3.84,5.08 6.73,5.08 4.53,0 6.67,-4.03 6.67,-8.12 0,-3.98 -2.49,-7.92 -5.23,-11.01 l -9.56,-10.66 c -0.55,-0.54 -0.55,-0.64 -0.55,-1.84 h 18.48 l 1.4,8.67 h -1.25 c -0.25,-1.5 -0.6,-3.69 -1.1,-4.44 -0.34,-0.39 -3.63,-0.39 -4.73,-0.39 z"
         inkscape:connector-curvature="0"
         style="fill:#000000;stroke-width:0" /></g>  </g>
</svg>
