<?xml version="1.0" encoding="UTF-8" standalone="no"?>
<!-- Created with Inkscape (http://www.inkscape.org/) -->

<svg
   xmlns:dc="http://purl.org/dc/elements/1.1/"
   xmlns:cc="http://creativecommons.org/ns#"
   xmlns:rdf="http://www.w3.org/1999/02/22-rdf-syntax-ns#"
   xmlns:svg="http://www.w3.org/2000/svg"
   xmlns="http://www.w3.org/2000/svg"
   xmlns:sodipodi="http://sodipodi.sourceforge.net/DTD/sodipodi-0.dtd"
   xmlns:inkscape="http://www.inkscape.org/namespaces/inkscape"
   width="744.09448819"
   height="1052.3622047"
   id="svg3046"
   version="1.1"
   inkscape:version="0.48.0 r9654"
   sodipodi:docname="normal.svg">
  <sodipodi:namedview
     id="base"
     pagecolor="#ffffff"
     bordercolor="#666666"
     borderopacity="1.0"
     inkscape:pageopacity="0.0"
     inkscape:pageshadow="2"
     inkscape:zoom="1.4"
     inkscape:cx="263.3805"
     inkscape:cy="463.18617"
     inkscape:document-units="px"
     inkscape:current-layer="layer1"
     showgrid="false"
     inkscape:window-width="1680"
     inkscape:window-height="973"
     inkscape:window-x="0"
     inkscape:window-y="24"
     inkscape:window-maximized="1" />
  <defs
     id="defs3048">
    <marker
       inkscape:stockid="Arrow2Mstart"
       orient="auto"
       refY="0.0"
       refX="0.0"
       id="Arrow2Mstart"
       style="overflow:visible">
      <path
         id="path3869"
         style="font-size:12.0;fill-rule:evenodd;stroke-width:0.62500000;stroke-linejoin:round"
         d="M 8.7185878,4.0337352 L -2.2072895,0.016013256 L 8.7185884,-4.0017078 C 6.9730900,-1.6296469 6.9831476,1.6157441 8.7185878,4.0337352 z "
         transform="scale(0.6) translate(0,0)" />
    </marker>
    <marker
       inkscape:stockid="Arrow1Mstart"
       orient="auto"
       refY="0.0"
       refX="0.0"
       id="Arrow1Mstart"
       style="overflow:visible">
      <path
         id="path3851"
         d="M 0.0,0.0 L 5.0,-5.0 L -12.5,0.0 L 5.0,5.0 L 0.0,0.0 z "
         style="fill-rule:evenodd;stroke:#000000;stroke-width:1.0pt;marker-start:none"
         transform="scale(0.4) translate(10,0)" />
    </marker>
    <marker
       inkscape:stockid="Arrow2Mstart"
       orient="auto"
       refY="0"
       refX="0"
       id="Arrow2Mstart-1"
       style="overflow:visible">
      <path
         inkscape:connector-curvature="0"
         id="path3869-0"
         style="font-size:12px;fill-rule:evenodd;stroke-width:0.625;stroke-linejoin:round"
         d="M 8.7185878,4.0337352 -2.2072895,0.01601326 8.7185884,-4.0017078 c -1.7454984,2.3720609 -1.7354408,5.6174519 -6e-7,8.035443 z"
         transform="scale(0.6,0.6)" />
    </marker>
    <clipPath
       id="clipPath6017"
       clipPathUnits="userSpaceOnUse">
      <path
         id="path6019"
         d="m 929.168,5795.84 4464.162,0 0,-3522.51 -4464.162,0 0,3522.51 z" />
    </clipPath>
    <clipPath
       id="clipPath5803"
       clipPathUnits="userSpaceOnUse">
      <path
         id="path5805"
         d="m 705.832,5891.67 4754.998,0 0,-3739.17 -4754.998,0 0,3739.17 z" />
    </clipPath>
    <clipPath
       id="clipPath6711"
       clipPathUnits="userSpaceOnUse">
      <path
         id="path6713"
         d="m 929.168,5795.84 4464.162,0 0,-3522.51 -4464.162,0 0,3522.51 z" />
    </clipPath>
    <clipPath
       id="clipPath6487"
       clipPathUnits="userSpaceOnUse">
      <path
         id="path6489"
         d="m 705.832,5891.67 4754.998,0 0,-3739.17 -4754.998,0 0,3739.17 z" />
    </clipPath>
  </defs>
  <metadata
     id="metadata3051">
    <rdf:RDF>
      <cc:Work
         rdf:about="">
        <dc:format>image/svg+xml</dc:format>
        <dc:type
           rdf:resource="http://purl.org/dc/dcmitype/StillImage" />
        <dc:title />
      </cc:Work>
    </rdf:RDF>
  </metadata>
  <g
     inkscape:label="Layer 1"
     inkscape:groupmode="layer"
     id="layer1">
    <path
       style="fill:none;stroke:#000000;stroke-width:1.14132106;stroke-linecap:butt;stroke-linejoin:miter;stroke-miterlimit:4;stroke-opacity:1;stroke-dasharray:none;marker-start:url(#Arrow2Mstart)"
       d="m 154.28571,371.17055 2.85715,221.33449"
       id="path3054"
       inkscape:connector-curvature="0" />
    <path
       style="fill:none;stroke:#000000;stroke-width:1;stroke-linecap:butt;stroke-linejoin:miter;stroke-miterlimit:4;stroke-opacity:1;stroke-dasharray:none;marker-start:url(#Arrow2Mstart)"
       d="M 357.305,590.21932 69.82762,593.07647"
       id="path3054-1"
       inkscape:connector-curvature="0" />
    <path
       style="opacity:0.15163933;fill:#ffffff;fill-opacity:1;fill-rule:nonzero;stroke:none"
       d="m 157.69001,568.44165 c -0.24433,-12.53656 -0.54667,-28.01697 -0.67188,-34.4009 l -0.22764,-11.60714 1.8369,0.0141 c 11.3926,0.0878 27.24463,5.52628 58.26547,19.98977 40.36845,18.82183 57.63835,26.16998 76.12666,32.39107 18.02299,6.06451 37.19712,10.71018 52.26619,12.66349 3.83036,0.4965 6.96429,1.11675 6.96429,1.37833 0,0.48728 -41.77389,1.05563 -139.02217,1.89147 l -55.0936,0.47352 -0.44422,-22.79376 z"
       id="path5210"
       inkscape:connector-curvature="0" />
    <path
       style="opacity:0.15163933;fill:#ffffff;fill-opacity:1;fill-rule:nonzero;stroke:none"
       d="m 157.69001,568.44165 c -0.24433,-12.53656 -0.54667,-28.01697 -0.67188,-34.4009 l -0.22764,-11.60714 1.8369,0.0141 c 11.3926,0.0878 27.24463,5.52628 58.26547,19.98977 40.36845,18.82183 57.63835,26.16998 76.12666,32.39107 17.75909,5.97571 36.75586,10.59859 51.93149,12.63757 3.64626,0.48991 6.76721,1.11344 6.93543,1.38564 0.312,0.50481 -40.38602,1.06544 -138.65861,1.91008 l -55.0936,0.47352 -0.44422,-22.79376 z"
       id="path5212"
       inkscape:connector-curvature="0" />
    <path
       style="opacity:0.15163933;fill:#ffffff;fill-opacity:1;fill-rule:nonzero;stroke:none"
       d="m 157.69001,568.44165 c -0.24433,-12.53656 -0.54667,-28.01697 -0.67188,-34.4009 l -0.22764,-11.60714 1.8369,0.0141 c 11.3926,0.0878 27.24463,5.52628 58.26547,19.98977 40.36845,18.82183 57.63835,26.16998 76.12666,32.39107 17.75909,5.97571 36.75586,10.59859 51.93149,12.63757 3.64626,0.48991 6.76721,1.11344 6.93543,1.38564 0.312,0.50481 -40.38602,1.06544 -138.65861,1.91008 l -55.0936,0.47352 -0.44422,-22.79376 z"
       id="path5214"
       inkscape:connector-curvature="0" />
    <path
       style="opacity:0.15163933;fill:#ffffff;fill-opacity:1;fill-rule:nonzero;stroke:none"
       d="m 157.69001,568.44165 c -0.24433,-12.53656 -0.54667,-28.01697 -0.67188,-34.4009 l -0.22764,-11.60714 1.8369,0.0141 c 11.3926,0.0878 27.24463,5.52628 58.26547,19.98977 40.36845,18.82183 57.63835,26.16998 76.12666,32.39107 17.75909,5.97571 36.75586,10.59859 51.93149,12.63757 3.64626,0.48991 6.76721,1.11344 6.93543,1.38564 0.312,0.50481 -40.38602,1.06544 -138.65861,1.91008 l -55.0936,0.47352 -0.44422,-22.79376 z"
       id="path5216"
       inkscape:connector-curvature="0" />
    <g
       style="stroke:#000000;stroke-width:37.20135117;stroke-miterlimit:4;stroke-opacity:1;stroke-dasharray:none"
       transform="matrix(0.06720186,0,0,-0.06720186,-17.426485,741.58572)"
       id="g6707">
      <g
         style="stroke:#000000;stroke-width:37.20135117;stroke-miterlimit:4;stroke-opacity:1;stroke-dasharray:none"
         id="g6709"
         clip-path="url(#clipPath6711)">
        <path
           inkscape:connector-curvature="0"
           d="m 3724.17,4149.17 5,-19.17 5.83,-18.33 5.83,-19.17 5,-19.17 5.84,-18.33 5.83,-19.17 5.83,-19.16 5,-18.34 5.84,-19.16 5.83,-18.34 5,-19.16 5.83,-18.34 5.84,-18.33 5,-19.17 5.83,-18.33 5.83,-18.33 5.84,-18.34 5,-18.33 5.83,-18.33 5.83,-18.34 5,-17.5 5.84,-18.33 5.83,-18.33 5,-17.5 5.83,-18.34 5.84,-17.5 5,-17.5 5.83,-17.5 5.83,-17.5 5.84,-17.5 5,-17.5 5.83,-16.66 5.83,-17.5 5,-16.67 5.84,-17.5 5.83,-16.67 5,-16.66 5.83,-16.67 5.84,-15.83 5,-16.67 5.83,-15.83 5.83,-16.67 5.84,-15.83 5,-15.84 5.83,-15.83 5.83,-15.83 5,-15 5.84,-15.84 5.83,-15 5,-15 5.83,-15 5.84,-15 5.83,-15 5,-14.16 5.83,-15 5.84,-14.17 5,-14.17 5.83,-14.16 5.83,-14.17 5,-13.33 5.84,-14.17 5.83,-13.33 5,-13.34 5.83,-13.33 5.84,-13.33 5.83,-12.5 5,-13.34 5.83,-12.5 5.84,-12.5 5,-12.5 5.83,-12.5 5.83,-12.5 5,-11.66 5.84,-11.67 5.83,-11.67 5.83,-11.66 5,-11.67 5.84,-11.67 5.83,-10.83 5,-10.83 5.83,-10.84 5.84,-10.83 5,-10.83 5.83,-10.84 5.83,-10 5,-10 5.84,-10.83 5.83,-10 5.83,-9.17 5,-10 5.84,-9.16 5.83,-10 5,-9.17 5.83,-9.17 5.84,-9.16 5,-8.34 5.83,-9.16 5.83,-8.34 5.84,-8.33 5,-9.17 5.83,-7.5 5.83,-8.33 5,-8.33 5.84,-7.5 5.83,-8.34 5,-7.5 5.83,-7.5 5.84,-7.5 5,-6.66 5.83,-7.5 5.83,-7.5 5.84,-6.67 5,-6.67 5.83,-6.66 5.83,-6.67 5,-6.67 5.84,-5.83 5.83,-6.67 5,-5.83 5.83,-6.67 5.84,-5.83 5,-5.83 5.83,-5.84 5.83,-5 5.84,-5.83 5,-5.83 5.83,-5 5.83,-5 5,-5 5.84,-5.84 5.83,-4.16 5,-5 5.83,-5 5.84,-5 5.83,-4.17 5,-5 5.83,-4.17 5.84,-4.16 5,-4.17 5.83,-4.17 5.83,-4.16 5,-4.17 5.84,-4.17 5.83,-3.33 5,-4.17 5.83,-3.33 5.84,-3.33 5.83,-4.17 5,-3.33 5.83,-3.34 5.84,-3.33 5,-3.33 5.83,-3.34 5.83,-2.5 5,-3.33 5.84,-3.33 5.83,-2.5 5.83,-3.34 5,-2.5 5.84,-2.5 5.83,-2.5 5,-3.33 5.83,-2.5 5.84,-2.5 5,-2.5 5.83,-1.67 5.83,-2.5 5,-2.5 5.84,-2.5 5.83,-1.66 5.83,-2.5 5,-1.67 5.84,-2.5 5.83,-1.67 5,-1.66 5.83,-2.5 5.84,-1.67 5,-1.67 5.83,-1.66 5.83,-1.67 5,-1.67 5.84,-1.66 5.83,-1.67 5.83,-1.67 5,-1.66 5.84,-1.67 5.83,-0.83 5,-1.67 5.83,-1.67 5.84,-0.83 5,-1.67 5.83,-0.83 5.83,-1.67 5.84,-0.83 5,-1.67 5.83,-0.83 5.83,-0.83 5,-1.67 5.84,-0.83 5.83,-0.84 5,-0.83 5.83,-0.83 5.84,-1.67 5,-0.83 5.83,-0.84 5.83,-0.83 5.84,-0.83 5,-0.84 5.83,-0.83 5.83,-0.83 5,-0.84 5.84,-0.83 5.83,0 5,-0.83 5.83,-0.84 5.84,-0.83 5.83,-0.83 5,0 5.83,-0.84 5.84,-0.83 5,-0.83 5.83,0 5.83,-0.84 5,0 5.84,-0.83 5.83,-0.83 5,0 5.83,-0.84 5.84,0 5.83,-0.83 5,0 5.83,-0.83 5.84,0 5,-0.84 5.83,0 5.83,-0.83 5,0 5.84,-0.83 10.83,0 5.83,-0.84 11.67,0 5,-0.83 11.67,0 5,-0.83 11.66,0 5,-0.84 17.5,0 5,-0.83 16.67,0 5.83,-0.83 22.5,0 5,-0.84 28.34,0 5.83,-0.83 39.17,0 5,-0.83 55.83,0 5.83,-0.84 61.67,0"
           style="fill:none;stroke:#000000;stroke-width:37.20135117;stroke-linecap:butt;stroke-linejoin:round;stroke-miterlimit:4;stroke-opacity:1;stroke-dasharray:none"
           id="path6715" />
        <path
           inkscape:connector-curvature="0"
           d="m 2055.83,2714.17 5.84,9.16 5,8.34 5.83,9.16 5.83,9.17 5,9.17 5.84,10 5.83,9.16 5,10 5.83,9.17 5.84,10 5.83,10.83 5,10 5.83,10 5.84,10.84 5,10.83 5.83,10.83 5.83,10.84 5,10.83 5.84,10.83 5.83,11.67 5,11.67 5.83,11.66 5.84,11.67 5.83,11.67 5,11.66 5.83,12.5 5.84,12.5 5,12.5 5.83,12.5 5.83,12.5 5,13.34 5.84,12.5 5.83,13.33 5.83,13.33 5,13.34 5.84,13.33 5.83,14.17 5,13.33 5.83,14.17 5.84,14.16 5,14.17 5.83,14.17 5.83,15 5,14.16 5.84,15 5.83,15 5.83,15 5,15 5.84,15 5.83,15.84 5,15 5.83,15.83 5.84,15.83 5,15.84 5.83,15.83 5.83,16.67 5.84,15.83 5,16.67 5.83,15.83 5.83,16.67 5,16.66 5.84,16.67 5.83,17.5 5,16.67 5.83,17.5 5.84,16.66 5,17.5 5.83,17.5 5.83,17.5 5.84,17.5 5,17.5 5.83,17.5 5.83,18.34 5,17.5 5.84,18.33 5.83,18.33 5,17.5 5.83,18.34 5.84,18.33 5,18.33 5.83,18.34 5.83,18.33 5.84,18.33 5,19.17 5.83,18.33 5.83,18.34 5,19.16 5.84,18.34 5.83,19.16 5,18.34 5.83,19.16 5.84,19.17 5.83,18.33 5,19.17 5.83,19.17 5.84,18.33 5,19.17 5.83,19.16 5.83,19.17 5,18.33 5.84,19.17 5.83,19.17 5,18.33 5.83,19.17 5.84,19.16 5.83,18.34 5,19.16 5.83,18.34 5.84,19.16 5,18.34 5.83,19.16 5.83,18.34 5,18.33 5.84,18.33 5.83,18.34 5.83,18.33 5,18.33 5.84,18.34 5.83,18.33 5,17.5 5.83,18.33 5.84,17.5 5,18.34 5.83,17.5 5.83,17.5 5,17.5 5.84,16.66 5.83,17.5 5.83,16.67 5,17.5 5.84,16.67 5.83,16.66 5,16.67 5.83,15.83 5.84,16.67 5,15.83 5.83,15.84 5.83,15.83 5,15.83 5.84,15 5.83,15 5.83,15 5,15 5.84,15 5.83,14.17 5,14.17 5.83,14.16 5.84,14.17 5,13.33 5.83,13.34 5.83,13.33 5.84,13.33 5,12.5 5.83,12.5 5.83,12.5 5,12.5 5.84,11.67 5.83,11.67 5,11.66 5.83,10.84 5.84,10.83 5,10.83 5.83,10 5.83,10.84 5.84,9.16 5,10 5.83,9.17 5.83,9.17 5,9.16 5.84,8.34 5.83,8.33 5,7.5 5.83,8.33 5.84,7.5 5.83,6.67 5,6.67 5.83,6.66 5.84,6.67 5,5.83 5.83,5.84 5.83,5 5,5 5.84,5 5.83,4.16 5,4.17 5.83,4.17 5.84,3.33 5.83,3.33 5,3.34 5.83,2.5 5.84,2.5 5,1.66 5.83,1.67 5.83,1.67 5,0.83 5.84,0.83 5.83,0.84 10.83,0 5.84,-0.84 5.83,-0.83 5,-0.83 5.83,-1.67 5.84,-1.67 5,-1.66 5.83,-2.5 5.83,-2.5 5,-3.34 5.84,-3.33 5.83,-3.33 5.83,-4.17 5,-4.17 5.84,-4.16 5.83,-5 5,-5 5.83,-5 5.84,-5.84 5,-5.83 5.83,-6.67 5.83,-6.66 5,-6.67 5.84,-6.67 5.83,-7.5 5.83,-8.33 5,-7.5 5.84,-8.33 5.83,-8.34 5,-9.16 5.83,-9.17 5.84,-9.17 5,-10 5.83,-9.16 5.83,-10.84 5.84,-10 5,-10.83 5.83,-10.83 5.83,-10.84 5,-11.66 5.84,-11.67 5.83,-11.67 5,-12.5 5.83,-12.5 5.84,-12.5 5,-12.5 5.83,-13.33 5.83,-13.33 5.84,-13.34 5,-13.33 5.83,-14.17 5.83,-14.16 5,-14.17 5.84,-14.17 5.83,-15 5,-15 5.83,-15 5.84,-15 5.83,-15 5,-15.83 5.83,-15.83 5.84,-15.84 5,-15.83 5.83,-16.67 5.83,-15.83 5,-16.67 5.84,-16.66 5.83,-16.67 5,-17.5 5.83,-16.67 5.84,-17.5 5.83,-16.66 5,-17.5 5.83,-17.5 5.84,-17.5 5,-18.34 5.83,-17.5 5.83,-18.33 5,-17.5 5.84,-18.33 5.83,-18.34 5,-18.33 5.83,-18.33 5.84,-18.34 5.83,-18.33 5,-18.33 5.83,-18.34 5.84,-19.16 5,-18.34 5.83,-19.16 5.83,-18.34 5,-19.16 5.84,-18.34 5.83,-19.16 5.83,-19.17 5,-18.33 5.84,-19.17 5.83,-19.17 5,-18.33 5.83,-19.17 5.84,-19.16"
           style="fill:none;stroke:#000000;stroke-width:37.20135117;stroke-linecap:butt;stroke-linejoin:round;stroke-miterlimit:4;stroke-opacity:1;stroke-dasharray:none"
           id="path6717" />
        <path
           inkscape:connector-curvature="0"
           d="m 929.168,2275.83 60.832,0 5.832,0.84 55.838,0 5,0.83 39.16,0 5.84,0.83 28.33,0 5,0.84 22.5,0 5.83,0.83 16.67,0 5,0.83 17.5,0 5,0.84 11.67,0 5,0.83 11.66,0 5,0.83 11.67,0 5.83,0.84 10.84,0 5.83,0.83 5,0 5.83,0.83 5.84,0 5,0.84 5.83,0 5.83,0.83 5,0 5.84,0.83 5.83,0 5.83,0.84 5,0 5.84,0.83 5.83,0.83 5,0 5.83,0.84 5.84,0 5,0.83 5.83,0.83 5.83,0.84 5,0 5.84,0.83 5.83,0.83 5.83,0.84 5,0.83 5.84,0 5.83,0.83 5,0.84 5.83,0.83 5.84,0.83 5,0.84 5.83,0.83 5.83,0.83 5.84,0.84 5,0.83 5.83,1.67 5.83,0.83 5,0.83 5.84,0.84 5.83,0.83 5,1.67 5.83,0.83 5.84,0.83 5,1.67 5.83,0.83 5.83,1.67 5.84,0.83 5,1.67 5.83,0.83 5.83,1.67 5,1.67 5.84,0.83 5.83,1.67 5,1.66 5.83,1.67 5.84,1.67 5.83,1.66 5,1.67 5.83,1.67 5.84,1.66 5,1.67 5.83,1.67 5.83,2.5 5,1.66 5.84,1.67 5.83,2.5 5,1.67 5.83,2.5 5.84,1.66 5.83,2.5 5,2.5 5.83,2.5 5.84,1.67 5,2.5 5.83,2.5 5.83,2.5 5,3.33 5.84,2.5 5.83,2.5 5,2.5 5.83,3.34 5.84,2.5 5.83,3.33 5,3.33 5.83,2.5 5.84,3.34 5,3.33 5.83,3.33 5.83,3.34 5,3.33 5.84,4.17 5.83,3.33 5.83,3.33 5,4.17 5.84,3.33 5.83,4.17 5,4.17 5.83,4.16 5.84,4.17 5,4.17 5.83,4.16 5.83,4.17 5,5 5.84,4.17 5.83,5 5.83,5 5,5 5.84,4.16 5.83,5.84 5,5 5.83,5 5.84,5 5,5.83 5.83,5.83 5.83,5 5.84,5.84 5,5.83 5.83,5.83 5.83,6.67 5,5.83 5.84,6.67 5.83,5.83 5,6.67 5.83,6.67 5.84,6.66 5,6.67 5.83,6.67 5.83,7.5 5.84,7.5 5,6.66 5.83,7.5 5.83,7.5 5,7.5 5.84,8.34 5.83,7.5 5,8.33 5.83,8.33 5.84,7.5 5.83,9.17 5,8.33 5.83,8.34"
           style="fill:none;stroke:#000000;stroke-width:37.20135117;stroke-linecap:butt;stroke-linejoin:round;stroke-miterlimit:4;stroke-opacity:1;stroke-dasharray:none"
           id="path6719" />
      </g>
    </g>
  </g>
</svg>
