<?xml version="1.0" encoding="UTF-8" standalone="no"?>
<!-- Created with Inkscape (http://www.inkscape.org/) -->

<svg
   xmlns:dc="http://purl.org/dc/elements/1.1/"
   xmlns:cc="http://creativecommons.org/ns#"
   xmlns:rdf="http://www.w3.org/1999/02/22-rdf-syntax-ns#"
   xmlns:svg="http://www.w3.org/2000/svg"
   xmlns="http://www.w3.org/2000/svg"
   xmlns:sodipodi="http://sodipodi.sourceforge.net/DTD/sodipodi-0.dtd"
   xmlns:inkscape="http://www.inkscape.org/namespaces/inkscape"
   width="744.09448819"
   height="1052.3622047"
   id="svg3046"
   version="1.1"
   inkscape:version="0.48.0 r9654"
   sodipodi:docname="pdf.svg">
  <sodipodi:namedview
     id="base"
     pagecolor="#ffffff"
     bordercolor="#666666"
     borderopacity="1.0"
     inkscape:pageopacity="0.0"
     inkscape:pageshadow="2"
     inkscape:zoom="1.4"
     inkscape:cx="263.3805"
     inkscape:cy="463.18617"
     inkscape:document-units="px"
     inkscape:current-layer="layer1"
     showgrid="false"
     inkscape:window-width="1680"
     inkscape:window-height="973"
     inkscape:window-x="0"
     inkscape:window-y="24"
     inkscape:window-maximized="1" />
  <defs
     id="defs3048">
    <marker
       inkscape:stockid="Arrow2Mstart"
       orient="auto"
       refY="0.0"
       refX="0.0"
       id="Arrow2Mstart"
       style="overflow:visible">
      <path
         id="path3869"
         style="font-size:12.0;fill-rule:evenodd;stroke-width:0.62500000;stroke-linejoin:round"
         d="M 8.7185878,4.0337352 L -2.2072895,0.016013256 L 8.7185884,-4.0017078 C 6.9730900,-1.6296469 6.9831476,1.6157441 8.7185878,4.0337352 z "
         transform="scale(0.6) translate(0,0)" />
    </marker>
    <marker
       inkscape:stockid="Arrow1Mstart"
       orient="auto"
       refY="0.0"
       refX="0.0"
       id="Arrow1Mstart"
       style="overflow:visible">
      <path
         id="path3851"
         d="M 0.0,0.0 L 5.0,-5.0 L -12.5,0.0 L 5.0,5.0 L 0.0,0.0 z "
         style="fill-rule:evenodd;stroke:#000000;stroke-width:1.0pt;marker-start:none"
         transform="scale(0.4) translate(10,0)" />
    </marker>
    <marker
       inkscape:stockid="Arrow2Mstart"
       orient="auto"
       refY="0"
       refX="0"
       id="Arrow2Mstart-1"
       style="overflow:visible">
      <path
         inkscape:connector-curvature="0"
         id="path3869-0"
         style="font-size:12px;fill-rule:evenodd;stroke-width:0.625;stroke-linejoin:round"
         d="M 8.7185878,4.0337352 -2.2072895,0.01601326 8.7185884,-4.0017078 c -1.7454984,2.3720609 -1.7354408,5.6174519 -6e-7,8.035443 z"
         transform="scale(0.6,0.6)" />
    </marker>
  </defs>
  <metadata
     id="metadata3051">
    <rdf:RDF>
      <cc:Work
         rdf:about="">
        <dc:format>image/svg+xml</dc:format>
        <dc:type
           rdf:resource="http://purl.org/dc/dcmitype/StillImage" />
        <dc:title></dc:title>
      </cc:Work>
    </rdf:RDF>
  </metadata>
  <g
     inkscape:label="Layer 1"
     inkscape:groupmode="layer"
     id="layer1">
    <path
       style="fill:none;stroke:#000000;stroke-width:0.88789171;stroke-linecap:butt;stroke-linejoin:miter;stroke-miterlimit:4;stroke-opacity:1;stroke-dasharray:none;marker-start:url(#Arrow2Mstart)"
       d="m 154.28571,458.55172 2.85715,133.95332"
       id="path3054"
       inkscape:connector-curvature="0" />
    <path
       style="fill:none;stroke:#000000;stroke-width:1;stroke-linecap:butt;stroke-linejoin:miter;stroke-miterlimit:4;stroke-opacity:1;stroke-dasharray:none;marker-start:url(#Arrow2Mstart)"
       d="M 357.305,590.21932 69.82762,593.07647"
       id="path3054-1"
       inkscape:connector-curvature="0" />
    <path
       style="fill:none;stroke:#000000;stroke-width:2.5;stroke-linecap:butt;stroke-linejoin:miter;stroke-miterlimit:4;stroke-opacity:1;stroke-dasharray:none"
       d="m 120,592.36218 c 8.71457,-163.55258 114.49594,7.44713 274.28571,-4.28571"
       id="path5208"
       inkscape:connector-curvature="0"
       sodipodi:nodetypes="cc" />
    <path
       style="opacity:0.15163933;fill:#ffffff;fill-opacity:1;fill-rule:nonzero;stroke:none"
       d="m 157.69001,568.44165 c -0.24433,-12.53656 -0.54667,-28.01697 -0.67188,-34.4009 l -0.22764,-11.60714 1.8369,0.0141 c 11.3926,0.0878 27.24463,5.52628 58.26547,19.98977 40.36845,18.82183 57.63835,26.16998 76.12666,32.39107 18.02299,6.06451 37.19712,10.71018 52.26619,12.66349 3.83036,0.4965 6.96429,1.11675 6.96429,1.37833 0,0.48728 -41.77389,1.05563 -139.02217,1.89147 l -55.0936,0.47352 -0.44422,-22.79376 z"
       id="path5210"
       inkscape:connector-curvature="0" />
    <path
       style="opacity:0.15163933;fill:#ffffff;fill-opacity:1;fill-rule:nonzero;stroke:none"
       d="m 157.69001,568.44165 c -0.24433,-12.53656 -0.54667,-28.01697 -0.67188,-34.4009 l -0.22764,-11.60714 1.8369,0.0141 c 11.3926,0.0878 27.24463,5.52628 58.26547,19.98977 40.36845,18.82183 57.63835,26.16998 76.12666,32.39107 17.75909,5.97571 36.75586,10.59859 51.93149,12.63757 3.64626,0.48991 6.76721,1.11344 6.93543,1.38564 0.312,0.50481 -40.38602,1.06544 -138.65861,1.91008 l -55.0936,0.47352 -0.44422,-22.79376 z"
       id="path5212"
       inkscape:connector-curvature="0" />
    <path
       style="opacity:0.15163933;fill:#ffffff;fill-opacity:1;fill-rule:nonzero;stroke:none"
       d="m 157.69001,568.44165 c -0.24433,-12.53656 -0.54667,-28.01697 -0.67188,-34.4009 l -0.22764,-11.60714 1.8369,0.0141 c 11.3926,0.0878 27.24463,5.52628 58.26547,19.98977 40.36845,18.82183 57.63835,26.16998 76.12666,32.39107 17.75909,5.97571 36.75586,10.59859 51.93149,12.63757 3.64626,0.48991 6.76721,1.11344 6.93543,1.38564 0.312,0.50481 -40.38602,1.06544 -138.65861,1.91008 l -55.0936,0.47352 -0.44422,-22.79376 z"
       id="path5214"
       inkscape:connector-curvature="0" />
    <path
       style="opacity:0.15163933;fill:#ffffff;fill-opacity:1;fill-rule:nonzero;stroke:none"
       d="m 157.69001,568.44165 c -0.24433,-12.53656 -0.54667,-28.01697 -0.67188,-34.4009 l -0.22764,-11.60714 1.8369,0.0141 c 11.3926,0.0878 27.24463,5.52628 58.26547,19.98977 40.36845,18.82183 57.63835,26.16998 76.12666,32.39107 17.75909,5.97571 36.75586,10.59859 51.93149,12.63757 3.64626,0.48991 6.76721,1.11344 6.93543,1.38564 0.312,0.50481 -40.38602,1.06544 -138.65861,1.91008 l -55.0936,0.47352 -0.44422,-22.79376 z"
       id="path5216"
       inkscape:connector-curvature="0" />
    <path
       style="opacity:0.15163933;fill:#0000ff;fill-opacity:1;fill-rule:nonzero;stroke:none"
       d="m 212.8642,573.40671 c -0.0976,-9.41291 -0.21843,-21.03617 -0.26847,-25.82946 l -0.0909,-8.71507 -0.27619,0.0106 c 4.55213,0.066 20.13689,10.23031 35.09213,17.15192 17.09679,7.91276 25.38091,10.08194 47.85653,17.8052 6.48325,2.22783 4.91372,2.31529 4.92077,16.50906 0.002,4.02802 0.90031,0.20836 0.96752,0.41274 0.12466,0.37903 -38.06639,0.7374 -67.27288,0.17144 l -20.49843,0.35553 -0.43003,-17.87201 z"
       id="path5218"
       inkscape:connector-curvature="0"
       sodipodi:nodetypes="csccssscsccc" />
    <g
       transform="matrix(0.24734638,0,0,0.24734638,137.12465,515.37615)"
       id="g5277">
      <g
         style="font-style:normal;font-variant:normal;font-weight:normal;font-stretch:normal;letter-spacing:normal;word-spacing:normal;text-anchor:start;fill:none;stroke:#000000;stroke-linecap:butt;stroke-linejoin:miter;stroke-miterlimit:10.43299961;stroke-opacity:1;stroke-dasharray:none;stroke-dashoffset:0"
         word-spacing="normal"
         letter-spacing="normal"
         font-size-adjust="none"
         font-stretch="normal"
         font-weight="normal"
         font-variant="normal"
         font-style="normal"
         stroke-miterlimit="10.433"
         xml:space="preserve"
         transform="matrix(1.0629921,0,0,-1.0629921,-186.02362,789.27165)"
         id="content"><path
           style="fill:#000000;stroke-width:0"
           inkscape:connector-curvature="0"
           id="path5280"
           d="m 474.58,424.83 -0.08,0.17 -0.09,0.17 -0.1,0.16 -0.09,0.16 -0.1,0.16 -0.1,0.16 -0.11,0.15 -0.11,0.14 -0.11,0.15 -0.12,0.13 -0.12,0.14 -0.12,0.13 -0.13,0.12 -0.13,0.12 -0.14,0.11 -0.14,0.11 -0.14,0.11 -0.15,0.09 -0.15,0.1 -0.15,0.08 -0.16,0.08 -0.17,0.08 -0.17,0.07 -0.17,0.06 -0.17,0.05 -0.19,0.05 -0.18,0.04 -0.19,0.03 -0.19,0.03 -0.2,0.02 -0.21,0.01 -0.2,0.01 0.05,-1.1 c 3.24,0 3.93,-4.08 3.93,-4.38 0,-0.3 -0.1,-0.6 -0.15,-0.85 l -2.49,-9.76 c -0.25,-0.9 -0.25,-1 -0.99,-1.84 -2.19,-2.75 -4.24,-3.54 -5.63,-3.54 -2.49,0 -3.19,2.74 -3.19,4.68 0,2.49 1.59,8.62 2.74,10.91 1.54,2.94 3.78,4.78 5.78,4.78 l -0.05,1.1 c -5.83,0 -12.01,-7.32 -12.01,-14.6 0,-4.68 2.74,-7.97 6.63,-7.97 0.99,0 3.49,0.2 6.47,3.74 0.4,-2.09 2.14,-3.74 4.53,-3.74 1.75,0 2.9,1.15 3.69,2.74 0.85,1.79 1.5,4.83 1.5,4.93 0,0.5 -0.45,0.5 -0.6,0.5 -0.5,0 -0.55,-0.2 -0.7,-0.89 -0.85,-3.24 -1.74,-6.18 -3.78,-6.18 -1.35,0 -1.5,1.29 -1.5,2.29 0,1.09 0.1,1.49 0.65,3.69 0.55,2.09 0.65,2.59 1.1,4.48 l 1.79,6.97 c 0.35,1.4 0.35,1.5 0.35,1.7 0,0.84 -0.6,1.34 -1.45,1.34 -1.19,0 -1.94,-1.09 -2.09,-2.19 z" /></g>    </g>
    <g
       transform="matrix(0.25661232,0,0,0.25661232,220.04244,511.70199)"
       id="g5320">
      <g
         style="font-style:normal;font-variant:normal;font-weight:normal;font-stretch:normal;letter-spacing:normal;word-spacing:normal;text-anchor:start;fill:none;stroke:#000000;stroke-linecap:butt;stroke-linejoin:miter;stroke-miterlimit:10.43299961;stroke-opacity:1;stroke-dasharray:none;stroke-dashoffset:0"
         id="g5322"
         transform="matrix(1.0629921,0,0,-1.0629921,-186.02362,789.27165)"
         xml:space="preserve"
         stroke-miterlimit="10.433"
         font-style="normal"
         font-variant="normal"
         font-weight="normal"
         font-stretch="normal"
         font-size-adjust="none"
         letter-spacing="normal"
         word-spacing="normal"><path
           style="fill:#000000;stroke-width:0"
           inkscape:connector-curvature="0"
           d="m 467.91,440.02 0,0.01 0,0 0,0.01 0,0.01 -0.01,0.01 0,0.01 0,0.02 0,0.02 0,0.02 -0.01,0.02 0,0.02 -0.01,0.02 -0.01,0.03 -0.01,0.02 -0.01,0.03 -0.01,0.02 -0.01,0.02 -0.02,0.03 -0.02,0.02 -0.02,0.03 -0.02,0.02 -0.01,0.01 -0.02,0.01 -0.01,0.01 -0.01,0.01 -0.02,0.01 -0.01,0.01 -0.02,0.01 -0.02,0.01 -0.01,0.01 -0.02,0.01 -0.02,0.01 -0.02,0 -0.02,0.01 -0.02,0.01 -0.03,0 -0.02,0.01 -0.02,0 -0.03,0.01 -0.02,0 -0.03,0 -0.03,0.01 -0.02,0 -0.03,0 -0.03,0 c -1.15,0 -4.78,-0.4 -6.08,-0.5 -0.4,-0.05 -0.95,-0.1 -0.95,-1 0,-0.59 0.45,-0.59 1.2,-0.59 2.39,0 2.49,-0.35 2.49,-0.85 0,-0.35 -0.45,-2.04 -0.7,-3.09 l -4.08,-16.24 c -0.6,-2.49 -0.8,-3.28 -0.8,-5.03 0,-4.73 2.64,-7.82 6.33,-7.82 v 1.1 c -1.7,0 -3.34,1.34 -3.34,5.03 0,0.95 0,1.89 0.8,5.03 l 1.09,4.58 c 0.3,1.1 0.3,1.2 0.75,1.75 2.44,3.24 4.68,3.98 5.98,3.98 1.79,0 3.14,-1.49 3.14,-4.68 0,-2.94 -1.65,-8.67 -2.54,-10.56 -1.65,-3.34 -3.94,-5.13 -5.88,-5.13 v -1.1 c 5.88,0 12,7.43 12,14.6 0,4.53 -2.64,7.97 -6.62,7.97 -2.29,0 -4.34,-1.45 -5.83,-2.99 z"
           id="path5324" /></g>    </g>
    <g
       id="g5370"
       transform="matrix(0.31757106,0,0,0.31757106,90.53285,398.15063)">
      <g
         word-spacing="normal"
         letter-spacing="normal"
         font-size-adjust="none"
         font-stretch="normal"
         font-weight="normal"
         font-variant="normal"
         font-style="normal"
         stroke-miterlimit="10.433"
         xml:space="preserve"
         transform="matrix(1.0629921,0,0,-1.0629921,-186.02362,789.27165)"
         id="g5372"
         style="font-style:normal;font-variant:normal;font-weight:normal;font-stretch:normal;letter-spacing:normal;word-spacing:normal;text-anchor:start;fill:none;stroke:#000000;stroke-linecap:butt;stroke-linejoin:miter;stroke-miterlimit:10.43299961;stroke-opacity:1;stroke-dasharray:none;stroke-dashoffset:0"><path
           id="path5374"
           d="m 467.31,419.74 -0.15,1.3 v 13.44 c 0,1.65 0.1,2 2.44,2 h 4.43 c 7.92,0 7.92,-5.28 7.92,-7.72 0,-2.35 0,-7.72 -7.92,-7.72 h -6.87 l 0.15,-1.3 h 8.42 c 5.97,0 11.35,4.04 11.35,9.02 0,4.88 -4.93,9.26 -11.75,9.26 h -17.59 v -1.54 h 1.2 c 3.83,0 3.94,-0.55 3.94,-2.34 v -26.25 c 0,-1.8 -0.11,-2.35 -3.94,-2.35 h -1.2 V 404 h 14.7 v 1.54 h -1.2 c -3.83,0 -3.93,0.55 -3.93,2.35 z"
           inkscape:connector-curvature="0"
           style="fill:#000000;stroke-width:0" /><path
           id="path5376"
           d="m 497.32,420.54 v 5.48 l -6.93,-0.55 v -1.54 c 3.49,0 3.89,-0.35 3.89,-2.79 v -13.35 c 0,-2.25 -0.55,-2.25 -3.89,-2.25 V 404 h 12.01 v 1.54 h -1.04 c -3.69,0 -3.79,0.55 -3.79,2.35 v 7.66 c 0,4.94 2.09,9.37 5.88,9.37 0.34,0 0.44,0 0.54,-0.05 -0.15,-0.05 -1.14,-0.65 -1.14,-1.94 0,-1.39 1.04,-2.14 2.14,-2.14 0.9,0 2.14,0.59 2.14,2.19 0,1.59 -1.54,3.04 -3.68,3.04 -3.64,0 -5.43,-3.34 -6.13,-5.48 z"
           inkscape:connector-curvature="0"
           style="fill:#000000;stroke-width:0" /><path
           id="path5378"
           d="m 525.49,392.04 0,0.03 0,0.03 -0.01,0.01 0,0.02 0,0.01 -0.01,0.02 0,0.02 -0.01,0.01 -0.01,0.02 -0.01,0.02 -0.01,0.03 -0.01,0.02 -0.02,0.02 -0.02,0.03 -0.02,0.03 -0.02,0.03 -0.03,0.03 -0.03,0.04 -0.01,0.02 -0.02,0.02 -0.02,0.02 -0.02,0.02 -0.02,0.02 -0.02,0.03 -0.02,0.02 -0.02,0.02 -0.02,0.03 -0.03,0.02 -0.02,0.03 -0.03,0.03 -0.02,0.03 -0.03,0.03 -0.03,0.03 -0.03,0.03 -0.03,0.03 -0.03,0.03 -0.04,0.04 -0.03,0.03 -0.04,0.04 -0.03,0.03 -0.04,0.04 -0.04,0.04 c -6.23,6.28 -7.82,15.69 -7.82,23.31 0,8.67 1.9,17.34 8.02,23.57 0.65,0.59 0.65,0.69 0.65,0.84 0,0.35 -0.2,0.5 -0.5,0.5 -0.5,0 -4.98,-3.39 -7.92,-9.72 -2.54,-5.47 -3.14,-11 -3.14,-15.19 0,-3.88 0.55,-9.91 3.29,-15.54 2.99,-6.12 7.27,-9.36 7.77,-9.36 0.3,0 0.5,0.15 0.5,0.49 z"
           inkscape:connector-curvature="0"
           style="fill:#000000;stroke-width:0" /><path
           id="path5380"
           d="m 546.58,422.83 -0.08,0.17 -0.09,0.17 -0.1,0.16 -0.09,0.16 -0.1,0.16 -0.1,0.16 -0.11,0.15 -0.11,0.14 -0.11,0.15 -0.12,0.13 -0.12,0.14 -0.12,0.13 -0.13,0.12 -0.13,0.12 -0.14,0.11 -0.14,0.11 -0.14,0.11 -0.15,0.09 -0.15,0.1 -0.15,0.08 -0.16,0.08 -0.17,0.08 -0.17,0.07 -0.17,0.06 -0.17,0.05 -0.19,0.05 -0.18,0.04 -0.19,0.03 -0.19,0.03 -0.2,0.02 -0.21,0.01 -0.2,0.01 0.05,-1.1 c 3.23,0 3.93,-4.08 3.93,-4.38 0,-0.3 -0.1,-0.6 -0.15,-0.85 l -2.49,-9.76 c -0.25,-0.9 -0.25,-1 -0.99,-1.84 -2.19,-2.75 -4.24,-3.54 -5.63,-3.54 -2.49,0 -3.19,2.74 -3.19,4.68 0,2.49 1.59,8.62 2.74,10.91 1.54,2.94 3.78,4.78 5.78,4.78 l -0.05,1.1 c -5.83,0 -12.01,-7.32 -12.01,-14.6 0,-4.68 2.74,-7.97 6.63,-7.97 0.99,0 3.48,0.2 6.47,3.74 0.4,-2.09 2.14,-3.74 4.53,-3.74 1.75,0 2.9,1.15 3.69,2.74 0.85,1.79 1.5,4.83 1.5,4.93 0,0.5 -0.45,0.5 -0.6,0.5 -0.5,0 -0.55,-0.2 -0.7,-0.89 -0.85,-3.24 -1.74,-6.18 -3.78,-6.18 -1.35,0 -1.5,1.29 -1.5,2.29 0,1.09 0.1,1.49 0.65,3.69 0.55,2.09 0.65,2.59 1.1,4.48 l 1.79,6.97 c 0.35,1.4 0.35,1.5 0.35,1.7 0,0.84 -0.6,1.34 -1.45,1.34 -1.19,0 -1.94,-1.09 -2.09,-2.19 z"
           inkscape:connector-curvature="0"
           style="fill:#000000;stroke-width:0" /><path
           id="path5382"
           d="m 602.62,433.59 0.11,0.05 0.09,0.04 0.05,0.03 0.05,0.02 0.04,0.03 0.04,0.02 0.05,0.03 0.04,0.02 0.04,0.03 0.03,0.03 0.04,0.03 0.04,0.03 0.03,0.03 0.03,0.03 0.03,0.03 0.03,0.03 0.03,0.04 0.03,0.03 0.02,0.04 0.02,0.04 0.02,0.04 0.02,0.04 0.02,0.04 0.01,0.04 0.01,0.05 0.01,0.05 0.01,0.04 0.01,0.06 0,0.05 0,0.05 c 0,0.55 -0.4,1 -1,1 -0.25,0 -0.69,-0.2 -0.89,-0.3 l -27.55,-13 c -0.85,-0.4 -1,-0.75 -1,-1.15 0,-0.44 0.3,-0.79 1,-1.09 l 27.55,-12.95 c 0.64,-0.35 0.75,-0.35 0.89,-0.35 0.55,0 1,0.45 1,1 0,0.45 -0.2,0.74 -1.05,1.14 l -26.05,12.25 z"
           inkscape:connector-curvature="0"
           style="fill:#000000;stroke-width:0" /><path
           id="path5384"
           d="m 601.83,397.18 0.16,0 0.16,0 0.15,0 0.08,0.01 0.08,0 0.07,0.01 0.08,0.01 0.07,0.01 0.07,0.01 0.07,0.01 0.07,0.02 0.06,0.02 0.07,0.02 0.06,0.03 0.05,0.02 0.06,0.03 0.05,0.04 0.05,0.04 0.05,0.04 0.04,0.05 0.04,0.05 0.01,0.02 0.02,0.03 0.02,0.03 0.01,0.03 0.02,0.03 0.01,0.03 0.01,0.04 0.01,0.03 0.01,0.04 0.01,0.04 0,0.04 0.01,0.04 0,0.04 0.01,0.04 0,0.05 0,0.04 c 0,1 -1.05,1 -1.79,1 h -26.85 c -0.75,0 -1.8,0 -1.8,-1 0,-0.99 0.9,-0.99 1.75,-0.99 z"
           inkscape:connector-curvature="0"
           style="fill:#000000;stroke-width:0" /><path
           id="path5386"
           d="m 645.16,424.47 -4.18,9.92 c -0.16,0.4 -0.25,0.59 -0.25,0.65 0,0.29 0.84,1.24 2.93,1.44 0.5,0.05 1,0.1 1,0.95 0,0.59 -0.6,0.59 -0.75,0.59 h -11.85 c -0.3,0 -0.9,0 -0.9,-0.99 0,-0.55 0.5,-0.55 1.15,-0.55 2.99,0 3.28,-0.5 3.73,-1.6 l 5.88,-13.9 -10.51,-11.3 -0.65,-0.55 c -2.44,-2.64 -4.78,-3.43 -7.32,-3.59 -0.65,-0.04 -1.1,-0.04 -1.1,-0.99 0,-0.05 0,-0.55 0.65,-0.55 h 10.26 c 0.3,0 0.9,0 0.9,1 0,0.5 -0.5,0.54 -0.6,0.54 -0.45,0.05 -1.99,0.16 -1.99,1.55 0,0.8 0.75,1.59 1.35,2.24 l 5.07,5.38 4.49,4.88 5.03,-11.9 c 0.2,-0.55 0.25,-0.6 0.25,-0.7 0,-0.4 -0.95,-1.25 -2.89,-1.45 -0.55,-0.04 -1,-0.09 -1,-0.94 0,-0.6 0.55,-0.6 0.75,-0.6 h 11.81 c 0.35,0 0.94,0 0.94,0.95 0,0.59 -0.49,0.59 -0.89,0.59 -3.34,0.05 -3.44,0.2 -4.29,2.19 -1.94,4.64 -5.28,12.41 -6.42,15.4 3.39,3.48 8.62,9.41 10.21,10.81 1.44,1.19 3.33,2.39 6.33,2.54 0.64,0.05 1.09,0.05 1.09,0.99 0,0.05 0,0.55 -0.65,0.55 h -10.21 c -0.3,0 -0.94,0 -0.94,-0.99 0,-0.35 0.25,-0.5 0.59,-0.55 0.45,-0.05 2,-0.15 2,-1.55 0,-0.69 -0.55,-1.34 -0.95,-1.79 z"
           inkscape:connector-curvature="0"
           style="fill:#000000;stroke-width:0" /><path
           id="path5388"
           d="m 713.62,433.59 0.11,0.05 0.09,0.04 0.05,0.03 0.05,0.02 0.04,0.03 0.04,0.02 0.05,0.03 0.04,0.02 0.04,0.03 0.03,0.03 0.04,0.03 0.04,0.03 0.03,0.03 0.03,0.03 0.03,0.03 0.03,0.03 0.03,0.04 0.03,0.03 0.02,0.04 0.02,0.04 0.02,0.04 0.02,0.04 0.02,0.04 0.01,0.04 0.01,0.05 0.01,0.05 0.01,0.04 0.01,0.06 0,0.05 0,0.05 c 0,0.55 -0.4,1 -1,1 -0.25,0 -0.69,-0.2 -0.89,-0.3 l -27.55,-13 c -0.85,-0.4 -1,-0.75 -1,-1.15 0,-0.44 0.3,-0.79 1,-1.09 l 27.55,-12.95 c 0.64,-0.35 0.75,-0.35 0.89,-0.35 0.55,0 1,0.45 1,1 0,0.45 -0.2,0.74 -1.05,1.14 l -26.05,12.25 z"
           inkscape:connector-curvature="0"
           style="fill:#000000;stroke-width:0" /><path
           id="path5390"
           d="m 712.83,397.18 0.16,0 0.16,0 0.15,0 0.08,0.01 0.08,0 0.07,0.01 0.08,0.01 0.07,0.01 0.07,0.01 0.07,0.01 0.07,0.02 0.06,0.02 0.07,0.02 0.06,0.03 0.05,0.02 0.06,0.03 0.05,0.04 0.05,0.04 0.05,0.04 0.04,0.05 0.04,0.05 0.01,0.02 0.02,0.03 0.02,0.03 0.01,0.03 0.02,0.03 0.01,0.03 0.01,0.04 0.01,0.03 0.01,0.04 0.01,0.04 0,0.04 0.01,0.04 0,0.04 0.01,0.04 0,0.05 0,0.04 c 0,1 -1.05,1 -1.79,1 h -26.85 c -0.75,0 -1.8,0 -1.8,-1 0,-0.99 0.9,-0.99 1.75,-0.99 z"
           inkscape:connector-curvature="0"
           style="fill:#000000;stroke-width:0" /><path
           id="path5392"
           d="m 744.91,438.02 0,0.01 0,0 0,0.01 0,0.01 -0.01,0.01 0,0.01 0,0.02 0,0.02 0,0.02 -0.01,0.02 0,0.02 -0.01,0.02 -0.01,0.03 -0.01,0.02 -0.01,0.03 -0.01,0.02 -0.01,0.02 -0.02,0.03 -0.02,0.02 -0.02,0.03 -0.02,0.02 -0.01,0.01 -0.02,0.01 -0.01,0.01 -0.01,0.01 -0.02,0.01 -0.01,0.01 -0.02,0.01 -0.02,0.01 -0.01,0.01 -0.02,0.01 -0.02,0.01 -0.02,0 -0.02,0.01 -0.02,0.01 -0.03,0 -0.02,0.01 -0.02,0 -0.03,0.01 -0.02,0 -0.03,0 -0.03,0.01 -0.02,0 -0.03,0 -0.03,0 c -1.15,0 -4.78,-0.4 -6.08,-0.5 -0.4,-0.05 -0.95,-0.1 -0.95,-1 0,-0.59 0.45,-0.59 1.2,-0.59 2.39,0 2.49,-0.35 2.49,-0.85 0,-0.35 -0.45,-2.04 -0.7,-3.09 l -4.08,-16.24 c -0.6,-2.49 -0.8,-3.28 -0.8,-5.03 0,-4.73 2.64,-7.82 6.33,-7.82 v 1.1 c -1.7,0 -3.34,1.34 -3.34,5.03 0,0.95 0,1.89 0.8,5.03 l 1.09,4.58 c 0.3,1.1 0.3,1.2 0.75,1.75 2.44,3.24 4.68,3.98 5.98,3.98 1.79,0 3.14,-1.49 3.14,-4.68 0,-2.94 -1.65,-8.67 -2.54,-10.56 -1.65,-3.34 -3.94,-5.13 -5.88,-5.13 v -1.1 c 5.88,0 12,7.43 12,14.6 0,4.53 -2.64,7.97 -6.62,7.97 -2.29,0 -4.33,-1.45 -5.83,-2.99 z"
           inkscape:connector-curvature="0"
           style="fill:#000000;stroke-width:0" /><path
           id="path5394"
           d="m 768.4,416.45 -0.01,0.37 0,0.39 -0.01,0.39 -0.01,0.41 -0.04,0.84 -0.06,0.88 -0.09,0.92 -0.1,0.94 -0.14,0.98 -0.16,1 -0.2,1.02 -0.23,1.04 -0.27,1.05 -0.3,1.06 -0.35,1.06 -0.39,1.07 -0.22,0.53 -0.22,0.54 -0.24,0.53 -0.25,0.53 c -2.99,6.12 -7.27,9.36 -7.77,9.36 -0.3,0 -0.5,-0.2 -0.5,-0.5 0,-0.15 0,-0.25 0.94,-1.15 4.89,-4.92 7.73,-12.85 7.73,-23.26 0,-8.52 -1.85,-17.28 -8.02,-23.56 -0.65,-0.6 -0.65,-0.69 -0.65,-0.85 0,-0.29 0.2,-0.49 0.5,-0.49 0.5,0 4.98,3.38 7.92,9.71 2.54,5.48 3.14,11.01 3.14,15.19 z"
           inkscape:connector-curvature="0"
           style="fill:#000000;stroke-width:0" /><path
           id="path5396"
           d="m 821.22,420.29 0.14,0 0.15,0 0.15,0.01 0.07,0 0.07,0 0.07,0.01 0.08,0.01 0.07,0.01 0.07,0.01 0.06,0.02 0.07,0.01 0.07,0.02 0.06,0.02 0.06,0.03 0.06,0.03 0.05,0.03 0.06,0.03 0.05,0.04 0.04,0.04 0.05,0.05 0.03,0.05 0.02,0.03 0.02,0.02 0.02,0.03 0.01,0.03 0.02,0.03 0.01,0.04 0.01,0.03 0.01,0.04 0.01,0.03 0.01,0.04 0.01,0.04 0,0.04 0.01,0.04 0,0.04 0,0.05 0,0.05 c 0,0.99 -0.94,0.99 -1.64,0.99 h -29.84 c -0.7,0 -1.64,0 -1.64,-0.99 0,-1 0.94,-1 1.69,-1 z"
           inkscape:connector-curvature="0"
           style="fill:#000000;stroke-width:0" /><path
           id="path5398"
           d="m 821.27,410.62 0.13,0.01 0.14,0 0.14,0 0.07,0.01 0.07,0 0.07,0.01 0.07,0.01 0.07,0.01 0.07,0.01 0.06,0.01 0.07,0.02 0.06,0.02 0.06,0.02 0.06,0.02 0.06,0.03 0.06,0.03 0.05,0.04 0.05,0.04 0.04,0.04 0.05,0.04 0.02,0.03 0.02,0.03 0.01,0.02 0.02,0.03 0.02,0.03 0.01,0.03 0.02,0.03 0.01,0.03 0.01,0.04 0.01,0.03 0.01,0.04 0.01,0.04 0.01,0.04 0,0.04 0.01,0.04 0,0.04 0,0.05 0,0.04 c 0,1 -0.94,1 -1.69,1 h -29.74 c -0.75,0 -1.69,0 -1.69,-1 0,-1 0.94,-1 1.64,-1 z"
           inkscape:connector-curvature="0"
           style="fill:#000000;stroke-width:0" /><path
           id="path5400"
           d="m 853.55,400.16 -0.03,-0.37 -0.03,-0.37 -0.07,-0.72 -0.08,-0.68 -0.09,-0.65 -0.09,-0.61 -0.09,-0.59 -0.11,-0.55 -0.11,-0.53 -0.12,-0.49 -0.12,-0.47 -0.13,-0.44 -0.14,-0.41 -0.14,-0.38 -0.15,-0.36 -0.16,-0.34 -0.16,-0.3 -0.17,-0.29 -0.17,-0.26 -0.18,-0.24 -0.19,-0.22 -0.2,-0.19 -0.2,-0.18 -0.2,-0.15 -0.22,-0.14 -0.22,-0.12 -0.22,-0.1 -0.24,-0.08 -0.23,-0.06 -0.25,-0.05 -0.25,-0.04 -0.26,-0.02 -0.26,-0.01 c -0.65,0 -2.14,0.15 -3.19,1.05 1.45,0.2 1.85,1.34 1.85,2.04 0,1.45 -1.1,2.09 -2.05,2.09 -0.99,0 -2.09,-0.64 -2.09,-2.14 0,-2.39 2.49,-4.13 5.48,-4.13 4.73,0 7.12,4.33 8.22,8.82 0.65,2.59 2.44,17.08 2.84,22.61 l 0.94,12.4 c 0.7,9.17 2.39,10.41 4.64,10.41 0.5,0 2.04,-0.1 3.13,-1.04 -1.44,-0.2 -1.84,-1.35 -1.84,-2.04 0,-1.45 1.1,-2.1 2.04,-2.1 1,0 2.1,0.65 2.1,2.15 0,2.39 -2.5,4.13 -5.49,4.13 -4.73,0 -6.67,-4.83 -7.51,-8.62 -0.6,-2.74 -2.39,-16.79 -2.84,-22.81 z"
           inkscape:connector-curvature="0"
           style="fill:#000000;stroke-width:0" /><path
           id="path5402"
           d="m 882.21,455.15 0,0.01 0,0 0,0 0,0.01 0.01,0.01 0,0 0,0.01 0,0 0.01,0.02 0,0.02 0.01,0.02 0,0.01 0.01,0.02 0,0.03 0.01,0.02 0.01,0.02 0,0.02 0.01,0.03 0.01,0.04 0.01,0.05 0,0.03 0.01,0.02 0,0.02 0.01,0.02 0,0.02 0.01,0.02 0,0.02 0,0.01 0.01,0.01 0,0.01 0,0 0,0.01 0,0.01 0,0 0,0.01 0,0 0,0 0,0.01 0,0 0,0 c 0,0.18 -0.13,0.49 -0.56,0.49 -0.69,0 -3.58,-0.28 -4.46,-0.35 -0.28,-0.03 -0.76,-0.07 -0.76,-0.8 0,-0.49 0.48,-0.49 0.91,-0.49 1.67,0 1.67,-0.24 1.67,-0.52 0,-0.25 -0.35,-1.64 -0.56,-2.44 l -0.8,-3.21 c -0.31,-1.19 -2.23,-8.82 -2.3,-9.28 -0.18,-0.83 -0.18,-1.29 -0.18,-1.7 0,-3.53 2.23,-5.76 5.13,-5.76 l 0.03,0.98 c -1.71,0 -2.68,1.5 -2.68,3.55 0,1.29 0.31,2.48 1.29,6.42 0.21,0.66 0.21,0.73 0.87,1.5 1.33,1.53 2.89,2.3 4.15,2.3 1.36,0 2.54,-1.01 2.54,-3.38 0,-1.43 -0.76,-4.99 -1.81,-7.01 -0.84,-1.71 -2.58,-3.38 -4.36,-3.38 h 0 l -0.03,-0.98 c 4.35,0 8.99,4.74 8.99,9.9 0,4.08 -2.82,5.83 -5.23,5.83 -1.81,0 -3.35,-1.01 -4.39,-1.92 z"
           inkscape:connector-curvature="0"
           style="fill:#000000;stroke-width:0" /><path
           id="path5404"
           d="m 877.72,399.32 -0.07,0.11 -0.08,0.1 -0.07,0.11 -0.08,0.1 -0.08,0.1 -0.08,0.1 -0.09,0.09 -0.09,0.1 -0.09,0.09 -0.09,0.09 -0.1,0.08 -0.1,0.09 -0.1,0.08 -0.11,0.07 -0.11,0.08 -0.11,0.07 -0.11,0.07 -0.12,0.06 -0.12,0.06 -0.12,0.06 -0.12,0.05 -0.13,0.05 -0.13,0.05 -0.13,0.04 -0.14,0.04 -0.14,0.03 -0.14,0.02 -0.14,0.03 -0.15,0.02 -0.15,0.01 -0.15,0.01 -0.16,0 v -0.98 c 2.44,0 3.11,-2.65 3.11,-3.03 0,-0.14 -0.07,-0.39 -0.11,-0.49 l -1.64,-6.52 c -0.24,-0.98 -1.01,-1.68 -1.78,-2.34 -0.31,-0.28 -1.7,-1.39 -3.2,-1.39 -1.29,0 -2.55,0.91 -2.55,3.38 0,1.85 1.01,5.69 1.82,7.08 1.6,2.79 3.38,3.31 4.35,3.31 v 0.98 c -4.46,0 -8.99,-4.92 -8.99,-9.94 0,-3.38 2.27,-5.79 5.26,-5.79 1.88,0 3.56,1.08 4.95,2.44 0.67,-2.09 2.69,-2.44 3.59,-2.44 1.26,0 2.13,0.77 2.76,1.85 0.77,1.36 1.22,3.35 1.22,3.48 0,0.46 -0.45,0.46 -0.56,0.46 -0.49,0 -0.52,-0.14 -0.76,-1.08 -0.42,-1.68 -1.09,-3.73 -2.55,-3.73 -0.91,0 -1.15,0.76 -1.15,1.71 0,0.59 0.28,1.84 0.52,2.75 0.25,0.94 0.59,2.37 0.77,3.14 l 0.7,2.65 c 0.21,0.91 0.62,2.55 0.62,2.72 0,0.77 -0.62,1.11 -1.18,1.11 -0.59,0 -1.39,-0.41 -1.6,-1.39 z"
           inkscape:connector-curvature="0"
           style="fill:#000000;stroke-width:0" /><path
           id="path5406"
           d="m 919.28,423.93 h 4.29 c 0.99,0 1.49,0 1.49,0.99 0,0.55 -0.5,0.55 -1.34,0.55 h -4.14 l 1.04,5.68 c 0.2,1.05 0.9,4.58 1.2,5.18 0.45,0.94 1.3,1.69 2.34,1.69 0.2,0 1.5,0 2.44,-0.9 -2.19,-0.19 -2.69,-1.94 -2.69,-2.68 0,-1.15 0.9,-1.75 1.85,-1.75 1.29,0 2.74,1.1 2.74,2.99 0,2.29 -2.29,3.44 -4.34,3.44 -1.69,0 -4.83,-0.9 -6.32,-5.83 -0.3,-1.05 -0.45,-1.54 -1.65,-7.82 h -3.43 c -0.95,0 -1.5,0 -1.5,-0.95 0,-0.59 0.45,-0.59 1.4,-0.59 h 3.29 l -3.74,-19.68 c -0.9,-4.83 -1.74,-9.37 -4.33,-9.37 -0.2,0 -1.45,0 -2.4,0.9 2.29,0.15 2.74,1.94 2.74,2.69 0,1.15 -0.89,1.74 -1.84,1.74 -1.29,0 -2.74,-1.09 -2.74,-2.98 0,-2.25 2.19,-3.44 4.24,-3.44 2.73,0 4.72,2.94 5.62,4.83 1.6,3.14 2.74,9.17 2.79,9.51 z"
           inkscape:connector-curvature="0"
           style="fill:#000000;stroke-width:0" /><path
           id="path5408"
           d="m 947.49,392.04 0,0.03 0,0.03 -0.01,0.01 0,0.02 0,0.01 -0.01,0.02 0,0.02 -0.01,0.01 -0.01,0.02 -0.01,0.02 -0.01,0.03 -0.01,0.02 -0.02,0.02 -0.02,0.03 -0.02,0.03 -0.02,0.03 -0.03,0.03 -0.03,0.04 -0.01,0.02 -0.02,0.02 -0.02,0.02 -0.02,0.02 -0.02,0.02 -0.02,0.03 -0.02,0.02 -0.02,0.02 -0.02,0.03 -0.03,0.02 -0.02,0.03 -0.03,0.03 -0.02,0.03 -0.03,0.03 -0.03,0.03 -0.03,0.03 -0.03,0.03 -0.03,0.03 -0.04,0.04 -0.03,0.03 -0.04,0.04 -0.03,0.03 -0.04,0.04 -0.04,0.04 c -6.23,6.28 -7.82,15.69 -7.82,23.31 0,8.67 1.9,17.34 8.02,23.57 0.65,0.59 0.65,0.69 0.65,0.84 0,0.35 -0.2,0.5 -0.5,0.5 -0.5,0 -4.98,-3.39 -7.92,-9.72 -2.54,-5.47 -3.14,-11 -3.14,-15.19 0,-3.88 0.55,-9.91 3.29,-15.54 2.99,-6.12 7.27,-9.36 7.77,-9.36 0.3,0 0.5,0.15 0.5,0.49 z"
           inkscape:connector-curvature="0"
           style="fill:#000000;stroke-width:0" /><path
           id="path5410"
           d="m 966.64,419.04 0.03,0.13 0.03,0.15 0.05,0.17 0.04,0.18 0.06,0.19 0.06,0.21 0.06,0.21 0.07,0.23 0.08,0.23 0.09,0.24 0.1,0.25 0.1,0.24 0.11,0.25 0.12,0.25 0.13,0.25 0.14,0.25 0.15,0.24 0.15,0.24 0.17,0.23 0.18,0.22 0.18,0.22 0.2,0.2 0.21,0.19 0.22,0.18 0.23,0.16 0.25,0.14 0.12,0.07 0.13,0.06 0.13,0.05 0.14,0.05 0.14,0.05 0.14,0.04 0.14,0.03 0.15,0.03 0.15,0.02 0.16,0.02 0.16,0.01 0.16,0 c 0.25,0 1.45,0 2.49,-0.65 -1.4,-0.25 -2.39,-1.49 -2.39,-2.68 0,-0.8 0.55,-1.75 1.89,-1.75 1.1,0 2.69,0.9 2.69,2.89 0,2.59 -2.94,3.29 -4.63,3.29 -2.89,0 -4.64,-2.64 -5.23,-3.79 -1.24,3.29 -3.94,3.79 -5.38,3.79 -5.18,0 -8.02,-6.43 -8.02,-7.67 0,-0.5 0.5,-0.5 0.6,-0.5 0.39,0 0.54,0.1 0.64,0.54 1.7,5.29 4.99,6.53 6.68,6.53 0.94,0 2.69,-0.45 2.69,-3.33 0,-1.55 -0.85,-4.89 -2.69,-11.86 -0.8,-3.09 -2.54,-5.18 -4.73,-5.18 -0.3,0 -1.45,0 -2.49,0.65 1.24,0.25 2.34,1.29 2.34,2.69 0,1.34 -1.1,1.74 -1.85,1.74 -1.49,0 -2.73,-1.3 -2.73,-2.89 0,-2.29 2.48,-3.29 4.68,-3.29 3.28,0 5.08,3.49 5.22,3.79 0.61,-1.85 2.4,-3.79 5.39,-3.79 5.13,0 7.97,6.43 7.97,7.67 0,0.5 -0.45,0.5 -0.6,0.5 -0.45,0 -0.55,-0.2 -0.65,-0.55 -1.64,-5.33 -5.03,-6.52 -6.62,-6.52 -1.94,0 -2.74,1.59 -2.74,3.29 0,1.09 0.3,2.19 0.85,4.38 z"
           inkscape:connector-curvature="0"
           style="fill:#000000;stroke-width:0" /><path
           id="path5412"
           d="m 993.4,416.45 -0.01,0.37 0,0.39 -0.01,0.39 -0.01,0.41 -0.04,0.84 -0.06,0.88 -0.09,0.92 -0.1,0.94 -0.14,0.98 -0.16,1 -0.2,1.02 -0.23,1.04 -0.27,1.05 -0.3,1.06 -0.35,1.06 -0.39,1.07 -0.22,0.53 -0.22,0.54 -0.24,0.53 -0.25,0.53 c -2.99,6.12 -7.27,9.36 -7.77,9.36 -0.3,0 -0.5,-0.2 -0.5,-0.5 0,-0.15 0,-0.25 0.94,-1.15 4.89,-4.92 7.73,-12.85 7.73,-23.26 0,-8.52 -1.85,-17.28 -8.02,-23.56 -0.65,-0.6 -0.65,-0.69 -0.65,-0.85 0,-0.29 0.2,-0.49 0.5,-0.49 0.5,0 4.98,3.38 7.92,9.71 2.54,5.48 3.14,11.01 3.14,15.19 z"
           inkscape:connector-curvature="0"
           style="fill:#000000;stroke-width:0" /><path
           id="path5414"
           d="m 1023.7,438.02 0,0.01 0,0 0,0.01 0,0.01 0,0.01 0,0.01 0,0.02 0,0.02 0,0.02 0,0.02 0,0.02 0,0.02 0,0.03 0,0.02 -0.1,0.03 0,0.02 0,0.02 0,0.03 0,0.02 0,0.03 -0.1,0.02 0,0.01 0,0.01 0,0.01 0,0.01 0,0.01 0,0.01 -0.1,0.01 0,0.01 0,0.01 0,0.01 0,0.01 0,0 -0.1,0.01 0,0.01 0,0 0,0.01 -0.1,0 0,0.01 0,0 0,0 -0.1,0.01 0,0 0,0 -0.1,0 c -0.7,0 -5.4,-0.45 -6.3,-0.55 -0.4,-0.05 -0.7,-0.3 -0.7,-0.95 0,-0.59 0.5,-0.59 1.2,-0.59 2.4,0 2.5,-0.35 2.5,-0.85 l -0.1,-0.99 -3,-11.81 c -0.9,1.84 -2.4,3.19 -4.6,3.19 l 0,-1.1 c 3.3,0 4,-4.08 4,-4.38 0,-0.3 -0.1,-0.6 -0.2,-0.85 l -2.5,-9.76 c -0.2,-0.9 -0.2,-1 -1,-1.84 -2.1,-2.75 -4.2,-3.54 -5.6,-3.54 -2.5,0 -3.2,2.74 -3.2,4.68 0,2.49 1.6,8.62 2.8,10.91 1.5,2.94 3.7,4.78 5.7,4.78 l 0,1.1 c -5.8,0 -12.01,-7.32 -12.01,-14.6 0,-4.68 2.71,-7.97 6.61,-7.97 1,0 3.5,0.2 6.5,3.74 0.4,-2.09 2.1,-3.74 4.5,-3.74 1.8,0 2.9,1.15 3.7,2.74 0.9,1.79 1.5,4.83 1.5,4.93 0,0.5 -0.4,0.5 -0.6,0.5 -0.5,0 -0.5,-0.2 -0.7,-0.89 -0.8,-3.24 -1.7,-6.18 -3.8,-6.18 -1.3,0 -1.5,1.29 -1.5,2.29 0,1.2 0.1,1.54 0.3,2.39 z"
           inkscape:connector-curvature="0"
           style="fill:#000000;stroke-width:0" /><path
           id="path5416"
           d="m 1040.6,419.04 0.1,0.13 0,0.15 0,0.17 0.1,0.18 0,0.19 0.1,0.21 0.1,0.21 0,0.23 0.1,0.23 0.1,0.24 0.1,0.25 0.1,0.24 0.1,0.25 0.1,0.25 0.2,0.25 0.1,0.25 0.2,0.24 0.1,0.24 0.2,0.23 0.2,0.22 0.1,0.22 0.2,0.2 0.2,0.19 0.3,0.18 0.2,0.16 0.2,0.14 0.2,0.07 0.1,0.06 0.1,0.05 0.2,0.05 0.1,0.05 0.1,0.04 0.2,0.03 0.1,0.03 0.2,0.02 0.1,0.02 0.2,0.01 0.2,0 c 0.2,0 1.4,0 2.5,-0.65 -1.4,-0.25 -2.4,-1.49 -2.4,-2.68 0,-0.8 0.5,-1.75 1.9,-1.75 1.1,0 2.6,0.9 2.6,2.89 0,2.59 -2.9,3.29 -4.6,3.29 -2.9,0 -4.6,-2.64 -5.2,-3.79 -1.3,3.29 -4,3.79 -5.4,3.79 -5.2,0 -8,-6.43 -8,-7.67 0,-0.5 0.5,-0.5 0.6,-0.5 0.4,0 0.5,0.1 0.6,0.54 1.7,5.29 5,6.53 6.7,6.53 1,0 2.7,-0.45 2.7,-3.33 0,-1.55 -0.8,-4.89 -2.7,-11.86 -0.8,-3.09 -2.5,-5.18 -4.7,-5.18 -0.3,0 -1.5,0 -2.5,0.65 1.2,0.25 2.3,1.29 2.3,2.69 0,1.34 -1.1,1.74 -1.8,1.74 -1.5,0 -2.8,-1.3 -2.8,-2.89 0,-2.29 2.5,-3.29 4.7,-3.29 3.3,0 5.1,3.49 5.3,3.79 0.6,-1.85 2.4,-3.79 5.3,-3.79 5.2,0 8,6.43 8,7.67 0,0.5 -0.4,0.5 -0.6,0.5 -0.4,0 -0.5,-0.2 -0.6,-0.55 -1.7,-5.33 -5.1,-6.52 -6.7,-6.52 -1.9,0 -2.7,1.59 -2.7,3.29 0,1.09 0.3,2.19 0.8,4.38 z"
           inkscape:connector-curvature="0"
           style="fill:#000000;stroke-width:0" /></g>    </g>
    <path
       style="fill:none;stroke:#000000;stroke-width:1.16934025;stroke-linecap:butt;stroke-linejoin:miter;stroke-miterlimit:4;stroke-opacity:1;stroke-dasharray:none;marker-start:url(#Arrow2Mstart)"
       d="M 260.70636,558.09205 279.64409,520.4196"
       id="path3054-9"
       inkscape:connector-curvature="0" />
  </g>
</svg>
