<?xml version="1.0" encoding="UTF-8" standalone="no"?>
<!-- Created with Inkscape (http://www.inkscape.org/) -->

<svg
   xmlns:dc="http://purl.org/dc/elements/1.1/"
   xmlns:cc="http://creativecommons.org/ns#"
   xmlns:rdf="http://www.w3.org/1999/02/22-rdf-syntax-ns#"
   xmlns:svg="http://www.w3.org/2000/svg"
   xmlns="http://www.w3.org/2000/svg"
   xmlns:sodipodi="http://sodipodi.sourceforge.net/DTD/sodipodi-0.dtd"
   xmlns:inkscape="http://www.inkscape.org/namespaces/inkscape"
   width="744.09448819"
   height="1052.3622047"
   id="svg3046"
   version="1.1"
   inkscape:version="0.48.0 r9654"
   sodipodi:docname="unboundedPDF.svg">
  <sodipodi:namedview
     id="base"
     pagecolor="#ffffff"
     bordercolor="#666666"
     borderopacity="1.0"
     inkscape:pageopacity="0.0"
     inkscape:pageshadow="2"
     inkscape:zoom="1.4"
     inkscape:cx="312.80975"
     inkscape:cy="662.21372"
     inkscape:document-units="px"
     inkscape:current-layer="layer1"
     showgrid="false"
     inkscape:window-width="1680"
     inkscape:window-height="973"
     inkscape:window-x="0"
     inkscape:window-y="24"
     inkscape:window-maximized="1" />
  <defs
     id="defs3048">
    <marker
       inkscape:stockid="Arrow2Mstart"
       orient="auto"
       refY="0.0"
       refX="0.0"
       id="Arrow2Mstart"
       style="overflow:visible">
      <path
         id="path3869"
         style="font-size:12.0;fill-rule:evenodd;stroke-width:0.62500000;stroke-linejoin:round"
         d="M 8.7185878,4.0337352 L -2.2072895,0.016013256 L 8.7185884,-4.0017078 C 6.9730900,-1.6296469 6.9831476,1.6157441 8.7185878,4.0337352 z "
         transform="scale(0.6) translate(0,0)" />
    </marker>
    <marker
       inkscape:stockid="Arrow1Mstart"
       orient="auto"
       refY="0.0"
       refX="0.0"
       id="Arrow1Mstart"
       style="overflow:visible">
      <path
         id="path3851"
         d="M 0.0,0.0 L 5.0,-5.0 L -12.5,0.0 L 5.0,5.0 L 0.0,0.0 z "
         style="fill-rule:evenodd;stroke:#000000;stroke-width:1.0pt;marker-start:none"
         transform="scale(0.4) translate(10,0)" />
    </marker>
    <marker
       inkscape:stockid="Arrow2Mstart"
       orient="auto"
       refY="0"
       refX="0"
       id="Arrow2Mstart-1"
       style="overflow:visible">
      <path
         inkscape:connector-curvature="0"
         id="path3869-0"
         style="font-size:12px;fill-rule:evenodd;stroke-width:0.625;stroke-linejoin:round"
         d="M 8.7185878,4.0337352 -2.2072895,0.01601326 8.7185884,-4.0017078 c -1.7454984,2.3720609 -1.7354408,5.6174519 -6e-7,8.035443 z"
         transform="scale(0.6,0.6)" />
    </marker>
    <clipPath
       id="clipPath6017"
       clipPathUnits="userSpaceOnUse">
      <path
         id="path6019"
         d="m 929.168,5795.84 4464.162,0 0,-3522.51 -4464.162,0 0,3522.51 z" />
    </clipPath>
    <clipPath
       id="clipPath5803"
       clipPathUnits="userSpaceOnUse">
      <path
         id="path5805"
         d="m 705.832,5891.67 4754.998,0 0,-3739.17 -4754.998,0 0,3739.17 z" />
    </clipPath>
    <clipPath
       id="clipPath6711"
       clipPathUnits="userSpaceOnUse">
      <path
         id="path6713"
         d="m 929.168,5795.84 4464.162,0 0,-3522.51 -4464.162,0 0,3522.51 z" />
    </clipPath>
    <clipPath
       id="clipPath6487"
       clipPathUnits="userSpaceOnUse">
      <path
         id="path6489"
         d="m 705.832,5891.67 4754.998,0 0,-3739.17 -4754.998,0 0,3739.17 z" />
    </clipPath>
    <clipPath
       id="clipPath3333"
       clipPathUnits="userSpaceOnUse">
      <path
         id="path3335"
         d="m 929.168,5795.84 4464.162,0 0,-3522.51 -4464.162,0 0,3522.51 z" />
    </clipPath>
    <clipPath
       id="clipPath3099"
       clipPathUnits="userSpaceOnUse">
      <path
         id="path3101"
         d="m 761.668,5891.67 4699.162,0 0,-3739.17 -4699.162,0 0,3739.17 z" />
    </clipPath>
    <clipPath
       id="clipPath3813"
       clipPathUnits="userSpaceOnUse">
      <path
         id="path3815"
         d="m 929.168,5795.84 4464.162,0 0,-3522.51 -4464.162,0 0,3522.51 z" />
    </clipPath>
    <clipPath
       id="clipPath3629"
       clipPathUnits="userSpaceOnUse">
      <path
         id="path3631"
         d="m 789.168,5891.67 4671.662,0 0,-3739.17 -4671.662,0 0,3739.17 z" />
    </clipPath>
    <clipPath
       id="clipPath4137"
       clipPathUnits="userSpaceOnUse">
      <path
         id="path4139"
         d="m 929.168,5795.84 4464.162,0 0,-3522.51 -4464.162,0 0,3522.51 z" />
    </clipPath>
    <clipPath
       id="clipPath3953"
       clipPathUnits="userSpaceOnUse">
      <path
         id="path3955"
         d="m 789.168,5891.67 4671.662,0 0,-3739.17 -4671.662,0 0,3739.17 z" />
    </clipPath>
    <clipPath
       id="clipPath5524"
       clipPathUnits="userSpaceOnUse">
      <path
         id="path5526"
         d="m 929.168,5795.84 4464.162,0 0,-3522.51 -4464.162,0 0,3522.51 z" />
    </clipPath>
    <clipPath
       id="clipPath5340"
       clipPathUnits="userSpaceOnUse">
      <path
         id="path5342"
         d="m 789.168,5891.67 4645.002,0 0,-3739.17 -4645.002,0 0,3739.17 z" />
    </clipPath>
  </defs>
  <metadata
     id="metadata3051">
    <rdf:RDF>
      <cc:Work
         rdf:about="">
        <dc:format>image/svg+xml</dc:format>
        <dc:type
           rdf:resource="http://purl.org/dc/dcmitype/StillImage" />
        <dc:title />
      </cc:Work>
    </rdf:RDF>
  </metadata>
  <g
     inkscape:label="Layer 1"
     inkscape:groupmode="layer"
     id="layer1">
    <path
       style="fill:none;stroke:#000000;stroke-width:1.14132106;stroke-linecap:butt;stroke-linejoin:miter;stroke-miterlimit:4;stroke-opacity:1;stroke-dasharray:none;marker-start:url(#Arrow2Mstart)"
       d="m 154.28571,371.17055 2.85715,221.33449"
       id="path3054"
       inkscape:connector-curvature="0" />
    <path
       style="fill:none;stroke:#000000;stroke-width:1;stroke-linecap:butt;stroke-linejoin:miter;stroke-miterlimit:4;stroke-opacity:1;stroke-dasharray:none;marker-start:url(#Arrow2Mstart)"
       d="M 357.305,590.21932 69.82762,593.07647"
       id="path3054-1"
       inkscape:connector-curvature="0" />
    <path
       style="opacity:0.15163933;fill:#ffffff;fill-opacity:1;fill-rule:nonzero;stroke:none"
       d="m 157.69001,568.44165 c -0.24433,-12.53656 -0.54667,-28.01697 -0.67188,-34.4009 l -0.22764,-11.60714 1.8369,0.0141 c 11.3926,0.0878 27.24463,5.52628 58.26547,19.98977 40.36845,18.82183 57.63835,26.16998 76.12666,32.39107 18.02299,6.06451 37.19712,10.71018 52.26619,12.66349 3.83036,0.4965 6.96429,1.11675 6.96429,1.37833 0,0.48728 -41.77389,1.05563 -139.02217,1.89147 l -55.0936,0.47352 -0.44422,-22.79376 z"
       id="path5210"
       inkscape:connector-curvature="0" />
    <path
       style="opacity:0.15163933;fill:#ffffff;fill-opacity:1;fill-rule:nonzero;stroke:none"
       d="m 157.69001,568.44165 c -0.24433,-12.53656 -0.54667,-28.01697 -0.67188,-34.4009 l -0.22764,-11.60714 1.8369,0.0141 c 11.3926,0.0878 27.24463,5.52628 58.26547,19.98977 40.36845,18.82183 57.63835,26.16998 76.12666,32.39107 17.75909,5.97571 36.75586,10.59859 51.93149,12.63757 3.64626,0.48991 6.76721,1.11344 6.93543,1.38564 0.312,0.50481 -40.38602,1.06544 -138.65861,1.91008 l -55.0936,0.47352 -0.44422,-22.79376 z"
       id="path5212"
       inkscape:connector-curvature="0" />
    <path
       style="opacity:0.15163933;fill:#ffffff;fill-opacity:1;fill-rule:nonzero;stroke:none"
       d="m 157.69001,568.44165 c -0.24433,-12.53656 -0.54667,-28.01697 -0.67188,-34.4009 l -0.22764,-11.60714 1.8369,0.0141 c 11.3926,0.0878 27.24463,5.52628 58.26547,19.98977 40.36845,18.82183 57.63835,26.16998 76.12666,32.39107 17.75909,5.97571 36.75586,10.59859 51.93149,12.63757 3.64626,0.48991 6.76721,1.11344 6.93543,1.38564 0.312,0.50481 -40.38602,1.06544 -138.65861,1.91008 l -55.0936,0.47352 -0.44422,-22.79376 z"
       id="path5214"
       inkscape:connector-curvature="0" />
    <path
       style="opacity:0.15163933;fill:#ffffff;fill-opacity:1;fill-rule:nonzero;stroke:none"
       d="m 157.69001,568.44165 c -0.24433,-12.53656 -0.54667,-28.01697 -0.67188,-34.4009 l -0.22764,-11.60714 1.8369,0.0141 c 11.3926,0.0878 27.24463,5.52628 58.26547,19.98977 40.36845,18.82183 57.63835,26.16998 76.12666,32.39107 17.75909,5.97571 36.75586,10.59859 51.93149,12.63757 3.64626,0.48991 6.76721,1.11344 6.93543,1.38564 0.312,0.50481 -40.38602,1.06544 -138.65861,1.91008 l -55.0936,0.47352 -0.44422,-22.79376 z"
       id="path5216"
       inkscape:connector-curvature="0" />
    <g
       id="g3093"
       transform="matrix(0.125,0,0,-0.125,25.379719,1097.98)">
      <g
         id="g5522"
         clip-path="url(#clipPath5524)"
         transform="matrix(0.39784468,0,0,0.39784468,531.09484,3147.3095)"
         style="stroke:#000000;stroke-width:50.27087402;stroke-miterlimit:4;stroke-opacity:1;stroke-dasharray:none">
        <path
           inkscape:connector-curvature="0"
           d="m 1335,5646.67 40.83,-2648.34 40,-148.33 40.84,-72.5 40.83,-45.83 40,-32.5 40.83,-25 40.84,-20 40,-16.67 40.83,-14.17 40.83,-11.66 40,-10.84 40.84,-9.16 40.83,-8.34 40.83,-7.5 40,-6.66 40.84,-6.67 40.83,-5.83 40,-5 40.83,-5 40.84,-4.17 40,-5 40.83,-3.33 40.83,-4.17 40,-3.33 40.84,-3.34 40.83,-3.33 40.83,-3.33 40,-2.5 40.84,-3.34 40.83,-2.5 40,-2.5 40.83,-2.5 40.84,-2.5 40,-1.66 40.83,-2.5 40.83,-1.67 40,-2.5 40.84,-1.67 40.83,-1.66 40.83,-2.5 40,-1.67 40.84,-1.67 40.83,-1.66 40,-1.67 40.83,-0.83 40.84,-1.67 40,-1.67 40.83,-1.66 40.83,-0.84 40,-1.66 40.84,-0.84 40.83,-1.66 40.83,-0.84 40,-1.66 40.84,-0.84 40.83,-1.66 40,-0.84 40.83,-0.83 40.84,-1.67 40,-0.83 40.83,-0.83 40.83,-0.84 40,-0.83 40.84,-1.67 40.83,-0.83 40,-0.83 40.83,-0.84 40.84,-0.83 40.83,-0.83 40,-0.84 40.83,-0.83 40.84,-0.83 40,-0.84 40.83,-0.83 40.83,-0.83 40,-0.84 40.84,-0.83 40.83,0 40,-0.83 40.83,-0.84 40.84,-0.83 40.83,-0.83 40,-0.84 40.83,0 40.84,-0.83 40,-0.83 40.83,-0.84 40.83,-0.83 40,0 40.84,-0.83 40.83,-0.84 40,0 40.83,-0.83 40.84,-0.83 40.83,0 40,-0.84 40.83,-0.83 40.84,0 40,-0.83"
           style="fill:none;stroke:#000000;stroke-width:50.27087402;stroke-linecap:butt;stroke-linejoin:round;stroke-miterlimit:4;stroke-opacity:1;stroke-dasharray:none"
           id="path5528" />
      </g>
    </g>
    <g
       id="g6663"
       transform="matrix(0.45625684,0,0,0.45625684,44.51385,239.01143)">
      <g
         word-spacing="normal"
         letter-spacing="normal"
         font-size-adjust="none"
         font-stretch="normal"
         font-weight="normal"
         font-variant="normal"
         font-style="normal"
         stroke-miterlimit="10.433"
         xml:space="preserve"
         transform="matrix(1.0629921,0,0,-1.0629921,-186.02362,789.27165)"
         id="g6665"
         style="font-style:normal;font-variant:normal;font-weight:normal;font-stretch:normal;letter-spacing:normal;word-spacing:normal;text-anchor:start;fill:none;stroke:#000000;stroke-linecap:butt;stroke-linejoin:miter;stroke-miterlimit:10.43299961;stroke-opacity:1;stroke-dasharray:none;stroke-dashoffset:0"><path
           id="path6667"
           d="m 474.28,425.93 h 4.29 c 0.99,0 1.49,0 1.49,0.99 0,0.55 -0.5,0.55 -1.35,0.55 h -4.13 l 1.04,5.68 c 0.2,1.05 0.9,4.58 1.2,5.18 0.45,0.94 1.3,1.69 2.34,1.69 0.2,0 1.5,0 2.45,-0.9 -2.2,-0.19 -2.7,-1.94 -2.7,-2.68 0,-1.15 0.9,-1.75 1.85,-1.75 1.29,0 2.74,1.1 2.74,2.99 0,2.29 -2.29,3.44 -4.34,3.44 -1.69,0 -4.83,-0.9 -6.32,-5.83 -0.3,-1.05 -0.45,-1.54 -1.65,-7.82 h -3.43 c -0.95,0 -1.5,0 -1.5,-0.95 0,-0.59 0.45,-0.59 1.4,-0.59 h 3.29 l -3.74,-19.68 c -0.9,-4.83 -1.75,-9.37 -4.33,-9.37 -0.2,0 -1.45,0 -2.4,0.9 2.29,0.15 2.74,1.94 2.74,2.69 0,1.15 -0.89,1.74 -1.84,1.74 -1.29,0 -2.74,-1.09 -2.74,-2.98 0,-2.25 2.19,-3.44 4.24,-3.44 2.73,0 4.73,2.94 5.62,4.83 1.6,3.14 2.74,9.17 2.79,9.51 z"
           inkscape:connector-curvature="0"
           style="fill:#000000;stroke-width:0" /><path
           id="path6669"
           d="m 501.49,394.04 0,0.03 0,0.03 -0.01,0.01 0,0.02 0,0.01 -0.01,0.02 0,0.02 -0.01,0.01 -0.01,0.02 -0.01,0.02 -0.01,0.03 -0.01,0.02 -0.02,0.02 -0.02,0.03 -0.02,0.03 -0.02,0.03 -0.03,0.03 -0.03,0.04 -0.01,0.02 -0.02,0.02 -0.02,0.02 -0.02,0.02 -0.02,0.02 -0.02,0.03 -0.02,0.02 -0.02,0.02 -0.02,0.03 -0.03,0.02 -0.02,0.03 -0.03,0.03 -0.02,0.03 -0.03,0.03 -0.03,0.03 -0.03,0.03 -0.03,0.03 -0.03,0.03 -0.04,0.04 -0.03,0.03 -0.04,0.04 -0.03,0.03 -0.04,0.04 -0.04,0.04 c -6.23,6.28 -7.82,15.69 -7.82,23.31 0,8.67 1.89,17.34 8.02,23.57 0.65,0.59 0.65,0.69 0.65,0.84 0,0.35 -0.2,0.5 -0.5,0.5 -0.5,0 -4.98,-3.39 -7.92,-9.72 -2.54,-5.47 -3.14,-11 -3.14,-15.19 0,-3.88 0.55,-9.91 3.29,-15.54 2.99,-6.12 7.27,-9.36 7.77,-9.36 0.3,0 0.5,0.15 0.5,0.49 z"
           inkscape:connector-curvature="0"
           style="fill:#000000;stroke-width:0" /><path
           id="path6671"
           d="m 521.64,421.04 0.03,0.13 0.03,0.15 0.05,0.17 0.04,0.18 0.06,0.19 0.06,0.21 0.06,0.21 0.07,0.23 0.08,0.23 0.09,0.24 0.1,0.25 0.1,0.24 0.11,0.25 0.12,0.25 0.13,0.25 0.14,0.25 0.15,0.24 0.15,0.24 0.17,0.23 0.18,0.22 0.18,0.22 0.2,0.2 0.21,0.19 0.22,0.18 0.23,0.16 0.25,0.14 0.12,0.07 0.13,0.06 0.13,0.05 0.14,0.05 0.14,0.05 0.14,0.04 0.14,0.03 0.15,0.03 0.15,0.02 0.16,0.02 0.16,0.01 0.16,0 c 0.25,0 1.45,0 2.49,-0.65 -1.4,-0.25 -2.39,-1.49 -2.39,-2.68 0,-0.8 0.55,-1.75 1.89,-1.75 1.1,0 2.69,0.9 2.69,2.89 0,2.59 -2.94,3.29 -4.63,3.29 -2.89,0 -4.64,-2.64 -5.23,-3.79 -1.24,3.29 -3.94,3.79 -5.38,3.79 -5.18,0 -8.02,-6.43 -8.02,-7.67 0,-0.5 0.5,-0.5 0.6,-0.5 0.39,0 0.54,0.1 0.64,0.54 1.7,5.29 4.99,6.53 6.68,6.53 0.94,0 2.69,-0.45 2.69,-3.33 0,-1.55 -0.85,-4.89 -2.69,-11.86 -0.8,-3.09 -2.54,-5.18 -4.73,-5.18 -0.3,0 -1.45,0 -2.49,0.65 1.24,0.25 2.34,1.29 2.34,2.69 0,1.34 -1.1,1.74 -1.85,1.74 -1.49,0 -2.73,-1.3 -2.73,-2.89 0,-2.29 2.48,-3.29 4.68,-3.29 3.28,0 5.08,3.49 5.22,3.79 0.61,-1.85 2.4,-3.79 5.39,-3.79 5.13,0 7.97,6.43 7.97,7.67 0,0.5 -0.45,0.5 -0.6,0.5 -0.45,0 -0.55,-0.2 -0.65,-0.55 -1.64,-5.33 -5.03,-6.52 -6.62,-6.52 -1.94,0 -2.74,1.59 -2.74,3.29 0,1.09 0.3,2.19 0.85,4.38 z"
           inkscape:connector-curvature="0"
           style="fill:#000000;stroke-width:0" /><path
           id="path6673"
           d="m 547.4,418.45 -0.01,0.37 0,0.39 -0.01,0.39 -0.01,0.41 -0.04,0.84 -0.06,0.88 -0.09,0.92 -0.1,0.94 -0.14,0.98 -0.16,1 -0.2,1.02 -0.23,1.04 -0.27,1.05 -0.3,1.06 -0.35,1.06 -0.39,1.07 -0.22,0.53 -0.22,0.54 -0.24,0.53 -0.25,0.53 c -2.99,6.12 -7.27,9.36 -7.77,9.36 -0.3,0 -0.5,-0.2 -0.5,-0.5 0,-0.15 0,-0.25 0.94,-1.15 4.89,-4.92 7.73,-12.85 7.73,-23.26 0,-8.52 -1.85,-17.28 -8.02,-23.56 -0.65,-0.6 -0.65,-0.69 -0.65,-0.85 0,-0.29 0.2,-0.49 0.5,-0.49 0.5,0 4.98,3.38 7.92,9.71 2.54,5.48 3.14,11.01 3.14,15.19 z"
           inkscape:connector-curvature="0"
           style="fill:#000000;stroke-width:0" /><path
           id="path6675"
           d="m 600.22,422.29 0.14,0 0.15,0 0.15,0.01 0.07,0 0.07,0 0.07,0.01 0.08,0.01 0.07,0.01 0.07,0.01 0.06,0.02 0.07,0.01 0.07,0.02 0.06,0.02 0.06,0.03 0.06,0.03 0.05,0.03 0.06,0.03 0.05,0.04 0.04,0.04 0.05,0.05 0.03,0.05 0.02,0.03 0.02,0.02 0.02,0.03 0.01,0.03 0.02,0.03 0.01,0.04 0.01,0.03 0.01,0.04 0.01,0.03 0.01,0.04 0.01,0.04 0,0.04 0.01,0.04 0,0.04 0,0.05 0,0.05 c 0,0.99 -0.94,0.99 -1.64,0.99 h -29.84 c -0.7,0 -1.64,0 -1.64,-0.99 0,-1 0.94,-1 1.69,-1 z"
           inkscape:connector-curvature="0"
           style="fill:#000000;stroke-width:0" /><path
           id="path6677"
           d="m 600.27,412.62 0.13,0.01 0.14,0 0.14,0 0.07,0.01 0.07,0 0.07,0.01 0.07,0.01 0.07,0.01 0.07,0.01 0.06,0.01 0.07,0.02 0.06,0.02 0.06,0.02 0.06,0.02 0.06,0.03 0.06,0.03 0.05,0.04 0.05,0.04 0.04,0.04 0.05,0.04 0.02,0.03 0.02,0.03 0.01,0.02 0.02,0.03 0.02,0.03 0.01,0.03 0.02,0.03 0.01,0.03 0.01,0.04 0.01,0.03 0.01,0.04 0.01,0.04 0.01,0.04 0,0.04 0.01,0.04 0,0.04 0,0.05 0,0.04 c 0,1 -0.94,1 -1.69,1 h -29.74 c -0.75,0 -1.69,0 -1.69,-1 0,-1 0.94,-1 1.64,-1 z"
           inkscape:connector-curvature="0"
           style="fill:#000000;stroke-width:0" /><path
           id="path6679"
           d="m 642.61,432.35 h -1.19 c -0.1,-0.77 -0.45,-2.83 -0.9,-3.18 -0.28,-0.21 -2.97,-0.21 -3.45,-0.21 h -6.42 c 3.66,3.25 4.88,4.22 6.97,5.86 2.58,2.06 4.99,4.22 4.99,7.54 0,4.21 -3.7,6.79 -8.16,6.79 -4.33,0 -7.25,-3.03 -7.25,-6.24 0,-1.78 1.5,-1.95 1.84,-1.95 0.84,0 1.86,0.59 1.86,1.85 0,0.62 -0.25,1.85 -2.06,1.85 1.08,2.47 3.45,3.24 5.09,3.24 3.48,0 5.3,-2.72 5.3,-5.54 0,-3.04 -2.16,-5.45 -3.28,-6.7 l -8.4,-8.3 c -0.35,-0.31 -0.35,-0.38 -0.35,-1.36 h 14.36 z"
           inkscape:connector-curvature="0"
           style="fill:#000000;stroke-width:0" /><polyline
           id="polyline6681"
           points="625,418 644.92,418 644.92,420.04 625,420.04 "
           style="fill:#000000;fill-rule:nonzero;stroke-width:0" /><path
           id="path6683"
           d="m 634.52,400.64 0.25,0 0.25,-0.02 0.24,-0.02 0.24,-0.04 0.23,-0.05 0.23,-0.06 0.22,-0.07 0.22,-0.09 0.21,-0.09 0.2,-0.11 0.19,-0.11 0.19,-0.13 0.18,-0.13 0.18,-0.15 0.17,-0.16 0.15,-0.17 0.16,-0.18 0.14,-0.2 0.13,-0.2 0.13,-0.21 0.12,-0.23 0.11,-0.23 0.09,-0.25 0.09,-0.26 0.08,-0.27 0.07,-0.28 0.06,-0.29 0.05,-0.3 0.04,-0.31 0.03,-0.32 0.02,-0.33 0,-0.35 c 0,-4.32 -2.51,-5.61 -4.53,-5.61 -1.39,0 -4.46,0.38 -5.93,2.44 1.64,0.07 2.02,1.22 2.02,1.95 0,1.12 -0.83,1.92 -1.91,1.92 -0.98,0 -1.96,-0.59 -1.96,-2.02 0,-3.28 3.63,-5.41 7.85,-5.41 4.84,0 8.19,3.25 8.19,6.73 0,2.72 -2.23,5.44 -6.07,6.24 3.67,1.33 4.99,3.94 4.99,6.07 0,2.76 -3.17,4.81 -7.04,4.81 -3.87,0 -6.83,-1.88 -6.83,-4.67 0,-1.18 0.76,-1.85 1.81,-1.85 1.08,0 1.77,0.8 1.77,1.78 0,1.01 -0.69,1.75 -1.77,1.81 1.22,1.54 3.62,1.92 4.92,1.92 1.56,0 3.76,-0.76 3.76,-3.8 0,-1.46 -0.49,-3.07 -1.39,-4.15 -1.16,-1.32 -2.13,-1.39 -3.87,-1.5 -0.88,-0.07 -0.95,-0.07 -1.12,-0.1 -0.07,0 -0.35,-0.07 -0.35,-0.46 0,-0.49 0.31,-0.49 0.91,-0.49 z"
           inkscape:connector-curvature="0"
           style="fill:#000000;stroke-width:0" /><path
           id="path6685"
           d="m 667.64,421.04 0.03,0.13 0.03,0.15 0.05,0.17 0.04,0.18 0.06,0.19 0.06,0.21 0.06,0.21 0.07,0.23 0.08,0.23 0.09,0.24 0.1,0.25 0.1,0.24 0.11,0.25 0.12,0.25 0.13,0.25 0.14,0.25 0.15,0.24 0.15,0.24 0.17,0.23 0.18,0.22 0.18,0.22 0.2,0.2 0.21,0.19 0.22,0.18 0.23,0.16 0.25,0.14 0.12,0.07 0.13,0.06 0.13,0.05 0.14,0.05 0.14,0.05 0.14,0.04 0.14,0.03 0.15,0.03 0.15,0.02 0.16,0.02 0.16,0.01 0.16,0 c 0.25,0 1.45,0 2.49,-0.65 -1.4,-0.25 -2.39,-1.49 -2.39,-2.68 0,-0.8 0.55,-1.75 1.89,-1.75 1.1,0 2.69,0.9 2.69,2.89 0,2.59 -2.94,3.29 -4.63,3.29 -2.89,0 -4.64,-2.64 -5.23,-3.79 -1.24,3.29 -3.94,3.79 -5.38,3.79 -5.18,0 -8.02,-6.43 -8.02,-7.67 0,-0.5 0.5,-0.5 0.6,-0.5 0.39,0 0.54,0.1 0.64,0.54 1.7,5.29 4.99,6.53 6.68,6.53 0.94,0 2.69,-0.45 2.69,-3.33 0,-1.55 -0.85,-4.89 -2.69,-11.86 -0.8,-3.09 -2.54,-5.18 -4.73,-5.18 -0.3,0 -1.45,0 -2.49,0.65 1.24,0.25 2.34,1.29 2.34,2.69 0,1.34 -1.1,1.74 -1.85,1.74 -1.49,0 -2.73,-1.3 -2.73,-2.89 0,-2.29 2.48,-3.29 4.68,-3.29 3.28,0 5.08,3.49 5.22,3.79 0.61,-1.85 2.4,-3.79 5.39,-3.79 5.13,0 7.97,6.43 7.97,7.67 0,0.5 -0.45,0.5 -0.6,0.5 -0.45,0 -0.55,-0.2 -0.65,-0.55 -1.64,-5.33 -5.03,-6.52 -6.62,-6.52 -1.94,0 -2.74,1.59 -2.74,3.29 0,1.09 0.3,2.19 0.85,4.38 z"
           inkscape:connector-curvature="0"
           style="fill:#000000;stroke-width:0" /><path
           id="path6687"
           d="m 704.94,431.88 0.05,0 0.06,0 0.05,0 0.06,0 0.12,0 0.06,0.01 0.05,0 0.06,0.01 0.06,0 0.06,0.01 0.06,0.01 0.05,0.02 0.06,0.01 0.06,0.02 0.05,0.01 0.05,0.02 0.05,0.03 0.05,0.02 0.04,0.03 0.04,0.04 0.05,0.03 0.03,0.04 0.02,0.02 0.02,0.02 0.01,0.03 0.02,0.02 0.01,0.02 0.02,0.03 0.01,0.03 0.01,0.02 0.01,0.03 0.01,0.03 0.01,0.03 0,0.03 0.01,0.04 0.01,0.03 0,0.04 0,0.03 0.01,0.04 0,0.04 c 0,0.87 -0.81,0.87 -1.4,0.87 h -20.78 c -0.56,0 -1.39,0 -1.39,-0.84 0,-0.87 0.8,-0.87 1.39,-0.87 z"
           inkscape:connector-curvature="0"
           style="fill:#000000;stroke-width:0" /><path
           id="path6689"
           d="m 721.68,446.18 0,0.04 0,0.04 0,0.04 0,0.04 0,0.04 0,0.04 0,0.03 0,0.04 -0.01,0.03 0,0.03 0,0.04 0,0.03 -0.01,0.02 0,0.03 0,0.03 -0.01,0.03 0,0.02 0,0.02 -0.02,0.05 -0.01,0.04 -0.01,0.04 -0.02,0.03 -0.02,0.03 -0.02,0.03 -0.03,0.03 -0.02,0.02 -0.03,0.02 -0.04,0.02 -0.03,0.01 -0.04,0.01 -0.05,0.02 -0.05,0 -0.02,0.01 -0.03,0 -0.03,0.01 -0.02,0 -0.03,0 -0.03,0 -0.04,0 -0.03,0.01 -0.03,0 -0.04,0 -0.03,0 -0.04,0 -0.04,0 -0.04,0 -0.04,0 -0.04,0 -0.05,0 -0.04,0 c -2.24,-2.19 -5.41,-2.23 -6.84,-2.23 v -1.25 c 0.84,0 3.14,0 5.05,0.97 v -17.78 c 0,-1.15 0,-1.61 -3.48,-1.61 h -1.33 V 424 h 12.45 v 1.25 h -1.32 c -3.49,0 -3.49,0.46 -3.49,1.61 z"
           inkscape:connector-curvature="0"
           style="fill:#000000;stroke-width:0" /><path
           id="path6691"
           d="m 747.47,448.62 0.01,0.02 0.01,0.02 0.01,0.02 0.01,0.02 0,0.02 0.01,0.01 0.01,0.02 0.01,0.02 0.01,0.02 0,0.01 0.01,0.02 0.01,0.01 0.01,0.03 0.01,0.03 0.01,0.03 0.01,0.02 0.01,0.03 0.01,0.02 0.01,0.02 0,0.02 0.01,0.02 0,0.02 0.01,0.01 0,0.02 0.01,0.01 0,0.02 0,0.01 0,0.02 0.01,0.01 0,0.01 0,0.03 0,0.02 0,0.03 0,0.02 c 0,0.56 -0.45,0.87 -0.84,0.87 -0.59,0 -0.77,-0.42 -0.94,-0.87 l -13,-32.46 c -0.22,-0.46 -0.22,-0.53 -0.22,-0.66 0,-0.56 0.46,-0.88 0.84,-0.88 0.59,0 0.77,0.42 0.95,0.88 z"
           inkscape:connector-curvature="0"
           style="fill:#000000;stroke-width:0" /><path
           id="path6693"
           d="m 759.52,435.64 0.25,0 0.25,-0.02 0.24,-0.02 0.24,-0.04 0.23,-0.05 0.23,-0.06 0.22,-0.07 0.22,-0.09 0.21,-0.09 0.2,-0.11 0.19,-0.11 0.19,-0.13 0.18,-0.13 0.18,-0.15 0.17,-0.16 0.15,-0.17 0.16,-0.18 0.14,-0.2 0.13,-0.2 0.13,-0.21 0.12,-0.23 0.11,-0.23 0.09,-0.25 0.09,-0.26 0.08,-0.27 0.07,-0.28 0.06,-0.29 0.05,-0.3 0.04,-0.31 0.03,-0.32 0.02,-0.33 0,-0.35 c 0,-4.32 -2.51,-5.61 -4.53,-5.61 -1.39,0 -4.46,0.38 -5.93,2.44 1.64,0.07 2.02,1.22 2.02,1.95 0,1.12 -0.83,1.92 -1.91,1.92 -0.98,0 -1.96,-0.59 -1.96,-2.02 0,-3.28 3.63,-5.41 7.85,-5.41 4.84,0 8.19,3.25 8.19,6.73 0,2.72 -2.23,5.44 -6.07,6.24 3.67,1.33 4.99,3.94 4.99,6.07 0,2.76 -3.17,4.81 -7.04,4.81 -3.87,0 -6.83,-1.88 -6.83,-4.67 0,-1.18 0.76,-1.85 1.81,-1.85 1.08,0 1.77,0.8 1.77,1.78 0,1.01 -0.69,1.75 -1.77,1.81 1.22,1.54 3.62,1.92 4.92,1.92 1.56,0 3.76,-0.76 3.76,-3.8 0,-1.46 -0.49,-3.07 -1.39,-4.15 -1.16,-1.32 -2.13,-1.39 -3.87,-1.5 -0.88,-0.07 -0.95,-0.07 -1.12,-0.1 -0.07,0 -0.35,-0.07 -0.35,-0.46 0,-0.49 0.31,-0.49 0.91,-0.49 z"
           inkscape:connector-curvature="0"
           style="fill:#000000;stroke-width:0" /></g>    </g>
  </g>
</svg>
