<?xml version="1.0" encoding="UTF-8" standalone="no"?>
<!-- Created with Inkscape (http://www.inkscape.org/) -->

<svg
   xmlns:dc="http://purl.org/dc/elements/1.1/"
   xmlns:cc="http://creativecommons.org/ns#"
   xmlns:rdf="http://www.w3.org/1999/02/22-rdf-syntax-ns#"
   xmlns:svg="http://www.w3.org/2000/svg"
   xmlns="http://www.w3.org/2000/svg"
   xmlns:sodipodi="http://sodipodi.sourceforge.net/DTD/sodipodi-0.dtd"
   xmlns:inkscape="http://www.inkscape.org/namespaces/inkscape"
   width="744.09448819"
   height="1052.3622047"
   id="svg3046"
   version="1.1"
   inkscape:version="0.48.0 r9654"
   sodipodi:docname="weirdCDF.svg">
  <sodipodi:namedview
     id="base"
     pagecolor="#ffffff"
     bordercolor="#666666"
     borderopacity="1.0"
     inkscape:pageopacity="0.0"
     inkscape:pageshadow="2"
     inkscape:zoom="1.4"
     inkscape:cx="301.73009"
     inkscape:cy="602.43794"
     inkscape:document-units="px"
     inkscape:current-layer="layer1"
     showgrid="false"
     inkscape:window-width="1680"
     inkscape:window-height="973"
     inkscape:window-x="0"
     inkscape:window-y="24"
     inkscape:window-maximized="1" />
  <defs
     id="defs3048">
    <marker
       style="overflow:visible"
       id="DotS"
       refX="0.0"
       refY="0.0"
       orient="auto"
       inkscape:stockid="DotS">
      <path
         transform="scale(0.2) translate(7.4, 1)"
         style="fill-rule:evenodd;stroke:#000000;stroke-width:1.0pt;marker-start:none;marker-end:none"
         d="M -2.5,-1.0 C -2.5,1.7600000 -4.7400000,4.0 -7.5,4.0 C -10.260000,4.0 -12.5,1.7600000 -12.5,-1.0 C -12.5,-3.7600000 -10.260000,-6.0 -7.5,-6.0 C -4.7400000,-6.0 -2.5,-3.7600000 -2.5,-1.0 z "
         id="path9422" />
    </marker>
    <marker
       style="overflow:visible"
       id="DotM"
       refX="0.0"
       refY="0.0"
       orient="auto"
       inkscape:stockid="DotM">
      <path
         transform="scale(0.4) translate(7.4, 1)"
         style="fill-rule:evenodd;stroke:#000000;stroke-width:1.0pt;marker-start:none;marker-end:none"
         d="M -2.5,-1.0 C -2.5,1.7600000 -4.7400000,4.0 -7.5,4.0 C -10.260000,4.0 -12.5,1.7600000 -12.5,-1.0 C -12.5,-3.7600000 -10.260000,-6.0 -7.5,-6.0 C -4.7400000,-6.0 -2.5,-3.7600000 -2.5,-1.0 z "
         id="path9419" />
    </marker>
    <marker
       style="overflow:visible"
       id="Arrow2Mstart"
       refX="0.0"
       refY="0.0"
       orient="auto"
       inkscape:stockid="Arrow2Mstart">
      <path
         transform="scale(0.6) translate(0,0)"
         d="M 8.7185878,4.0337352 L -2.2072895,0.016013256 L 8.7185884,-4.0017078 C 6.9730900,-1.6296469 6.9831476,1.6157441 8.7185878,4.0337352 z "
         style="font-size:12.0;fill-rule:evenodd;stroke-width:0.62500000;stroke-linejoin:round"
         id="path3869" />
    </marker>
    <marker
       style="overflow:visible"
       id="Arrow1Mstart"
       refX="0.0"
       refY="0.0"
       orient="auto"
       inkscape:stockid="Arrow1Mstart">
      <path
         transform="scale(0.4) translate(10,0)"
         style="fill-rule:evenodd;stroke:#000000;stroke-width:1.0pt;marker-start:none"
         d="M 0.0,0.0 L 5.0,-5.0 L -12.5,0.0 L 5.0,5.0 L 0.0,0.0 z "
         id="path3851" />
    </marker>
    <marker
       style="overflow:visible"
       id="Arrow2Mstart-1"
       refX="0"
       refY="0"
       orient="auto"
       inkscape:stockid="Arrow2Mstart">
      <path
         transform="scale(0.6,0.6)"
         d="M 8.7185878,4.0337352 -2.2072895,0.01601326 8.7185884,-4.0017078 c -1.7454984,2.3720609 -1.7354408,5.6174519 -6e-7,8.035443 z"
         style="font-size:12px;fill-rule:evenodd;stroke-width:0.625;stroke-linejoin:round"
         id="path3869-0"
         inkscape:connector-curvature="0" />
    </marker>
    <clipPath
       clipPathUnits="userSpaceOnUse"
       id="clipPath6017">
      <path
         d="m 929.168,5795.84 4464.162,0 0,-3522.51 -4464.162,0 0,3522.51 z"
         id="path6019" />
    </clipPath>
    <clipPath
       clipPathUnits="userSpaceOnUse"
       id="clipPath5803">
      <path
         d="m 705.832,5891.67 4754.998,0 0,-3739.17 -4754.998,0 0,3739.17 z"
         id="path5805" />
    </clipPath>
    <clipPath
       clipPathUnits="userSpaceOnUse"
       id="clipPath6711">
      <path
         d="m 929.168,5795.84 4464.162,0 0,-3522.51 -4464.162,0 0,3522.51 z"
         id="path6713" />
    </clipPath>
    <clipPath
       clipPathUnits="userSpaceOnUse"
       id="clipPath6487">
      <path
         d="m 705.832,5891.67 4754.998,0 0,-3739.17 -4754.998,0 0,3739.17 z"
         id="path6489" />
    </clipPath>
    <clipPath
       clipPathUnits="userSpaceOnUse"
       id="clipPath3333">
      <path
         d="m 929.168,5795.84 4464.162,0 0,-3522.51 -4464.162,0 0,3522.51 z"
         id="path3335" />
    </clipPath>
    <clipPath
       clipPathUnits="userSpaceOnUse"
       id="clipPath3099">
      <path
         d="m 761.668,5891.67 4699.162,0 0,-3739.17 -4699.162,0 0,3739.17 z"
         id="path3101" />
    </clipPath>
    <clipPath
       clipPathUnits="userSpaceOnUse"
       id="clipPath3813">
      <path
         d="m 929.168,5795.84 4464.162,0 0,-3522.51 -4464.162,0 0,3522.51 z"
         id="path3815" />
    </clipPath>
    <clipPath
       clipPathUnits="userSpaceOnUse"
       id="clipPath3629">
      <path
         d="m 789.168,5891.67 4671.662,0 0,-3739.17 -4671.662,0 0,3739.17 z"
         id="path3631" />
    </clipPath>
    <clipPath
       clipPathUnits="userSpaceOnUse"
       id="clipPath4137">
      <path
         d="m 929.168,5795.84 4464.162,0 0,-3522.51 -4464.162,0 0,3522.51 z"
         id="path4139" />
    </clipPath>
    <clipPath
       clipPathUnits="userSpaceOnUse"
       id="clipPath3953">
      <path
         d="m 789.168,5891.67 4671.662,0 0,-3739.17 -4671.662,0 0,3739.17 z"
         id="path3955" />
    </clipPath>
    <clipPath
       clipPathUnits="userSpaceOnUse"
       id="clipPath5524">
      <path
         d="m 929.168,5795.84 4464.162,0 0,-3522.51 -4464.162,0 0,3522.51 z"
         id="path5526" />
    </clipPath>
    <clipPath
       clipPathUnits="userSpaceOnUse"
       id="clipPath5340">
      <path
         d="m 789.168,5891.67 4645.002,0 0,-3739.17 -4645.002,0 0,3739.17 z"
         id="path5342" />
    </clipPath>
    <marker
       style="overflow:visible"
       id="DotS-7"
       refX="0"
       refY="0"
       orient="auto"
       inkscape:stockid="DotS">
      <path
         transform="matrix(0.2,0,0,0.2,1.48,0.2)"
         style="fill-rule:evenodd;stroke:#000000;stroke-width:1pt;marker-start:none;marker-end:none"
         d="m -2.5,-1 c 0,2.76 -2.24,5 -5,5 -2.76,0 -5,-2.24 -5,-5 0,-2.76 2.24,-5 5,-5 2.76,0 5,2.24 5,5 z"
         id="path9422-8"
         inkscape:connector-curvature="0" />
    </marker>
  </defs>
  <metadata
     id="metadata3051">
    <rdf:RDF>
      <cc:Work
         rdf:about="">
        <dc:format>image/svg+xml</dc:format>
        <dc:type
           rdf:resource="http://purl.org/dc/dcmitype/StillImage" />
        <dc:title />
      </cc:Work>
    </rdf:RDF>
  </metadata>
  <g
     id="layer1"
     inkscape:groupmode="layer"
     inkscape:label="Layer 1">
    <path
       inkscape:connector-curvature="0"
       id="path3054"
       d="m 154.28571,371.17055 2.85715,221.33449"
       style="fill:none;stroke:#000000;stroke-width:1.14132106;stroke-linecap:butt;stroke-linejoin:miter;stroke-miterlimit:4;stroke-opacity:1;stroke-dasharray:none;marker-start:url(#Arrow2Mstart)" />
    <path
       inkscape:connector-curvature="0"
       id="path3054-1"
       d="M 357.305,590.21932 69.82762,593.07647"
       style="fill:none;stroke:#000000;stroke-width:1;stroke-linecap:butt;stroke-linejoin:miter;stroke-miterlimit:4;stroke-opacity:1;stroke-dasharray:none;marker-start:url(#Arrow2Mstart)" />
    <path
       inkscape:connector-curvature="0"
       id="path5210"
       d="m 157.69001,568.44165 c -0.24433,-12.53656 -0.54667,-28.01697 -0.67188,-34.4009 l -0.22764,-11.60714 1.8369,0.0141 c 11.3926,0.0878 27.24463,5.52628 58.26547,19.98977 40.36845,18.82183 57.63835,26.16998 76.12666,32.39107 18.02299,6.06451 37.19712,10.71018 52.26619,12.66349 3.83036,0.4965 6.96429,1.11675 6.96429,1.37833 0,0.48728 -41.77389,1.05563 -139.02217,1.89147 l -55.0936,0.47352 -0.44422,-22.79376 z"
       style="opacity:0.15163933;fill:#ffffff;fill-opacity:1;fill-rule:nonzero;stroke:none" />
    <path
       inkscape:connector-curvature="0"
       id="path5212"
       d="m 157.69001,568.44165 c -0.24433,-12.53656 -0.54667,-28.01697 -0.67188,-34.4009 l -0.22764,-11.60714 1.8369,0.0141 c 11.3926,0.0878 27.24463,5.52628 58.26547,19.98977 40.36845,18.82183 57.63835,26.16998 76.12666,32.39107 17.75909,5.97571 36.75586,10.59859 51.93149,12.63757 3.64626,0.48991 6.76721,1.11344 6.93543,1.38564 0.312,0.50481 -40.38602,1.06544 -138.65861,1.91008 l -55.0936,0.47352 -0.44422,-22.79376 z"
       style="opacity:0.15163933;fill:#ffffff;fill-opacity:1;fill-rule:nonzero;stroke:none" />
    <path
       inkscape:connector-curvature="0"
       id="path5214"
       d="m 157.69001,568.44165 c -0.24433,-12.53656 -0.54667,-28.01697 -0.67188,-34.4009 l -0.22764,-11.60714 1.8369,0.0141 c 11.3926,0.0878 27.24463,5.52628 58.26547,19.98977 40.36845,18.82183 57.63835,26.16998 76.12666,32.39107 17.75909,5.97571 36.75586,10.59859 51.93149,12.63757 3.64626,0.48991 6.76721,1.11344 6.93543,1.38564 0.312,0.50481 -40.38602,1.06544 -138.65861,1.91008 l -55.0936,0.47352 -0.44422,-22.79376 z"
       style="opacity:0.15163933;fill:#ffffff;fill-opacity:1;fill-rule:nonzero;stroke:none" />
    <path
       inkscape:connector-curvature="0"
       id="path5216"
       d="m 157.69001,568.44165 c -0.24433,-12.53656 -0.54667,-28.01697 -0.67188,-34.4009 l -0.22764,-11.60714 1.8369,0.0141 c 11.3926,0.0878 27.24463,5.52628 58.26547,19.98977 40.36845,18.82183 57.63835,26.16998 76.12666,32.39107 17.75909,5.97571 36.75586,10.59859 51.93149,12.63757 3.64626,0.48991 6.76721,1.11344 6.93543,1.38564 0.312,0.50481 -40.38602,1.06544 -138.65861,1.91008 l -55.0936,0.47352 -0.44422,-22.79376 z"
       style="opacity:0.15163933;fill:#ffffff;fill-opacity:1;fill-rule:nonzero;stroke:none" />
    <path
       inkscape:connector-curvature="0"
       id="path8787"
       d="m 77.142856,592.21933 50.714294,0"
       style="fill:#0000ff;stroke:#0000ff;stroke-width:2.50000000000000000;stroke-linecap:butt;stroke-linejoin:miter;stroke-miterlimit:4;stroke-opacity:1;stroke-dasharray:none" />
    <path
       inkscape:connector-curvature="0"
       id="path8787-3"
       d="m 127.49999,591.72459 50.7143,-25.86768"
       style="fill:#0000ff;stroke:#0000ff;stroke-width:2.50000000000000000;stroke-linecap:butt;stroke-linejoin:miter;stroke-miterlimit:4;stroke-opacity:1;stroke-dasharray:none;fill-opacity:1" />
    <path
       sodipodi:nodetypes="cc"
       inkscape:connector-curvature="0"
       id="path8787-8"
       d="m 179.64285,545.93362 50.7143,-3.57143"
       style="fill:#0000ff;stroke:#0000ff;stroke-width:2.5;stroke-linecap:butt;stroke-linejoin:miter;stroke-miterlimit:4;stroke-opacity:1;stroke-dasharray:none;marker-start:url(#DotS);marker-end:none" />
    <path
       sodipodi:nodetypes="cc"
       inkscape:connector-curvature="0"
       id="path8787-3-6"
       d="m 228.49999,542.43889 c 40.81334,3.23757 33.66171,-30.39064 51.42858,-38.72483"
       style="fill:none;stroke:#0000ff;stroke-width:2.5;stroke-linecap:butt;stroke-linejoin:miter;stroke-miterlimit:4;stroke-opacity:1;stroke-dasharray:none" />
    <path
       sodipodi:nodetypes="cc"
       inkscape:connector-curvature="0"
       id="path8787-3-6-6"
       d="m 324.74893,443.45553 c 5.1149,-27.74104 14.26828,-33.67916 30.528,-41.67312"
       style="fill:none;stroke:#0000ff;stroke-width:2.35855579;stroke-linecap:butt;stroke-linejoin:miter;stroke-miterlimit:4;stroke-opacity:1;stroke-dasharray:none" />
    <path
       sodipodi:nodetypes="cc"
       inkscape:connector-curvature="0"
       id="path8787-8-6"
       d="m 283.24445,489.31527 c 14.81145,-9.01789 35.29091,-25.80336 41.89668,-47.29903"
       style="fill:none;stroke:#0000ff;stroke-width:2.45113754;stroke-linecap:butt;stroke-linejoin:miter;stroke-miterlimit:4;stroke-opacity:1;stroke-dasharray:none;marker-start:url(#DotS);marker-end:none" />
    <path
       inkscape:connector-curvature="0"
       id="path8336"
       d="m 150.24515,401.69565 c 9.27836,0 9.27836,0 9.27836,0"
       style="fill:none;stroke:#000000;stroke-width:0.84949964px;stroke-linecap:butt;stroke-linejoin:miter;stroke-opacity:1" />
    <g
       id="g8425"
       transform="matrix(0.33761376,0,0,0.33761376,38.75927,286.98121)">
      <g
         word-spacing="normal"
         letter-spacing="normal"
         font-size-adjust="none"
         font-stretch="normal"
         font-weight="normal"
         font-variant="normal"
         font-style="normal"
         stroke-miterlimit="10.433"
         xml:space="preserve"
         transform="matrix(1.0629921,0,0,-1.0629921,-186.02362,789.27165)"
         id="g8427"
         style="font-style:normal;font-variant:normal;font-weight:normal;font-stretch:normal;letter-spacing:normal;word-spacing:normal;text-anchor:start;fill:none;stroke:#000000;stroke-linecap:butt;stroke-linejoin:miter;stroke-miterlimit:10.43299961;stroke-opacity:1;stroke-dasharray:none;stroke-dashoffset:0"><path
           id="path8429"
           d="m 470.64,437.88 0,0.05 0,0.06 0,0.05 0,0.05 0,0.05 0,0.05 0,0.04 0,0.05 0,0.04 0,0.04 0,0.04 0,0.04 0,0.04 -0.01,0.04 0,0.03 0,0.04 -0.01,0.03 0,0.03 -0.01,0.06 -0.01,0.05 -0.02,0.05 -0.01,0.05 -0.02,0.04 -0.02,0.04 -0.03,0.04 -0.03,0.03 -0.03,0.02 -0.03,0.03 -0.04,0.02 -0.05,0.02 -0.02,0.01 -0.03,0.01 -0.02,0 -0.03,0.01 -0.03,0.01 -0.03,0 -0.03,0.01 -0.03,0 -0.03,0.01 -0.04,0 -0.04,0 -0.03,0 -0.04,0.01 -0.04,0 -0.04,0 -0.05,0 -0.04,0 -0.05,0 -0.05,0.01 -0.05,0 -0.05,0 -0.05,0 c -3.09,-3.19 -7.47,-3.19 -9.07,-3.19 v -1.55 c 1,0 3.94,0 6.53,1.3 v -25.81 c 0,-1.79 -0.15,-2.39 -4.63,-2.39 h -1.6 V 406 h 16.14 v 1.54 h -1.59 c -4.49,0 -4.64,0.55 -4.64,2.39 z"
           inkscape:connector-curvature="0"
           style="fill:#000000;stroke-width:0" /></g>    </g>
    <path
       sodipodi:nodetypes="cc"
       inkscape:connector-curvature="0"
       id="path8787-7"
       d="m 354.69244,402.07648 16.20816,-0.25254"
       style="fill:#0000ff;stroke:#0000ff;stroke-width:2.5;stroke-linecap:butt;stroke-linejoin:miter;stroke-miterlimit:4;stroke-opacity:1;stroke-dasharray:none" />
    <path
       inkscape:connector-curvature="0"
       id="path10652"
       d="m 167.71429,402.0528 174.55009,-0.71429"
       style="fill:none;stroke:#000000;stroke-width:0.80725068;stroke-linecap:butt;stroke-linejoin:miter;stroke-miterlimit:4;stroke-opacity:1;stroke-dasharray:1.61450138, 1.61450138;stroke-dashoffset:0.80725069" />
    <g
       transform="matrix(0.42128482,0,0,0.42128482,-25.831784,230.66341)"
       id="g10713">
      <g
         style="font-style:normal;font-variant:normal;font-weight:normal;font-stretch:normal;letter-spacing:normal;word-spacing:normal;text-anchor:start;fill:none;stroke:#000000;stroke-linecap:butt;stroke-linejoin:miter;stroke-miterlimit:10.43299961;stroke-opacity:1;stroke-dasharray:none;stroke-dashoffset:0"
         word-spacing="normal"
         letter-spacing="normal"
         font-size-adjust="none"
         font-stretch="normal"
         font-weight="normal"
         font-variant="normal"
         font-style="normal"
         stroke-miterlimit="10.433"
         xml:space="preserve"
         transform="matrix(1.0629921,0,0,-1.0629921,-186.02362,789.27165)"
         id="content"><path
           style="fill:#000000;stroke-width:0"
           inkscape:connector-curvature="0"
           id="path10716"
           d="m 471.09,422.19 h 4.84 c 3.73,0 4.13,-0.8 4.13,-2.24 0,-0.35 0,-0.95 -0.35,-2.44 -0.1,-0.25 -0.15,-0.45 -0.15,-0.55 0,-0.4 0.3,-0.6 0.6,-0.6 0.5,0 0.5,0.15 0.75,1.05 l 2.73,10.8 c 0.16,0.56 0.16,0.65 0.16,0.8 0,0.1 -0.1,0.55 -0.6,0.55 -0.5,0 -0.55,-0.25 -0.75,-1.04 -1.04,-3.89 -2.19,-4.79 -6.43,-4.79 h -4.53 l 3.19,12.66 c 0.45,1.74 0.5,1.94 2.69,1.94 h 6.58 c 6.12,0 7.27,-1.65 7.27,-5.48 0,-1.15 0,-1.35 -0.15,-2.69 -0.1,-0.65 -0.1,-0.75 -0.1,-0.9 0,-0.25 0.15,-0.6 0.6,-0.6 0.54,0 0.59,0.3 0.7,1.25 l 0.99,8.62 c 0.15,1.34 -0.1,1.34 -1.35,1.34 h -24.4 c -1,0 -1.5,0 -1.5,-0.99 0,-0.55 0.45,-0.55 1.4,-0.55 1.84,0 3.23,0 3.23,-0.9 0,-0.2 0,-0.3 -0.25,-1.19 l -6.57,-26.35 c -0.5,-1.95 -0.6,-2.35 -4.53,-2.35 -0.85,0 -1.4,0 -1.4,-0.94 0,-0.6 0.6,-0.6 0.75,-0.6 h 14 c 0.45,0 1.04,0 1.04,0.95 0,0.39 -0.29,0.5 -0.29,0.55 -0.16,0.04 -0.25,0.04 -1.4,0.04 -1.1,0 -1.35,0 -2.59,0.1 -1.44,0.15 -1.6,0.35 -1.6,1 0,0.1 0,0.4 0.2,1.15 z" /><path
           style="fill:#000000;stroke-width:0"
           inkscape:connector-curvature="0"
           id="path10718"
           d="m 511.49,394.04 0,0.03 0,0.03 -0.01,0.01 0,0.02 0,0.01 -0.01,0.02 0,0.02 -0.01,0.01 -0.01,0.02 -0.01,0.02 -0.01,0.03 -0.01,0.02 -0.02,0.02 -0.02,0.03 -0.02,0.03 -0.02,0.03 -0.03,0.03 -0.03,0.04 -0.01,0.02 -0.02,0.02 -0.02,0.02 -0.02,0.02 -0.02,0.02 -0.02,0.03 -0.02,0.02 -0.02,0.02 -0.02,0.03 -0.03,0.02 -0.02,0.03 -0.03,0.03 -0.02,0.03 -0.03,0.03 -0.03,0.03 -0.03,0.03 -0.03,0.03 -0.03,0.03 -0.04,0.04 -0.03,0.03 -0.04,0.04 -0.03,0.03 -0.04,0.04 -0.04,0.04 c -6.23,6.28 -7.82,15.69 -7.82,23.31 0,8.67 1.89,17.34 8.02,23.57 0.65,0.59 0.65,0.69 0.65,0.84 0,0.35 -0.2,0.5 -0.5,0.5 -0.5,0 -4.98,-3.39 -7.92,-9.72 -2.54,-5.47 -3.14,-11 -3.14,-15.19 0,-3.88 0.55,-9.91 3.29,-15.54 2.99,-6.12 7.27,-9.36 7.77,-9.36 0.3,0 0.5,0.15 0.5,0.49 z" /><path
           style="fill:#000000;stroke-width:0"
           inkscape:connector-curvature="0"
           id="path10720"
           d="m 530.64,421.04 0.03,0.13 0.03,0.15 0.05,0.17 0.04,0.18 0.06,0.19 0.06,0.21 0.06,0.21 0.07,0.23 0.08,0.23 0.09,0.24 0.1,0.25 0.1,0.24 0.11,0.25 0.12,0.25 0.13,0.25 0.14,0.25 0.15,0.24 0.15,0.24 0.17,0.23 0.18,0.22 0.18,0.22 0.2,0.2 0.21,0.19 0.22,0.18 0.23,0.16 0.25,0.14 0.12,0.07 0.13,0.06 0.13,0.05 0.14,0.05 0.14,0.05 0.14,0.04 0.14,0.03 0.15,0.03 0.15,0.02 0.16,0.02 0.16,0.01 0.16,0 c 0.25,0 1.45,0 2.49,-0.65 -1.4,-0.25 -2.39,-1.49 -2.39,-2.68 0,-0.8 0.55,-1.75 1.89,-1.75 1.1,0 2.69,0.9 2.69,2.89 0,2.59 -2.94,3.29 -4.63,3.29 -2.89,0 -4.64,-2.64 -5.23,-3.79 -1.24,3.29 -3.94,3.79 -5.38,3.79 -5.18,0 -8.02,-6.43 -8.02,-7.67 0,-0.5 0.5,-0.5 0.6,-0.5 0.39,0 0.54,0.1 0.64,0.54 1.7,5.29 4.99,6.53 6.68,6.53 0.94,0 2.69,-0.45 2.69,-3.33 0,-1.55 -0.85,-4.89 -2.69,-11.86 -0.8,-3.09 -2.54,-5.18 -4.73,-5.18 -0.3,0 -1.45,0 -2.49,0.65 1.24,0.25 2.34,1.29 2.34,2.69 0,1.34 -1.1,1.74 -1.85,1.74 -1.49,0 -2.73,-1.3 -2.73,-2.89 0,-2.29 2.48,-3.29 4.68,-3.29 3.28,0 5.08,3.49 5.22,3.79 0.61,-1.85 2.4,-3.79 5.39,-3.79 5.13,0 7.97,6.43 7.97,7.67 0,0.5 -0.45,0.5 -0.6,0.5 -0.45,0 -0.55,-0.2 -0.65,-0.55 -1.64,-5.33 -5.03,-6.52 -6.62,-6.52 -1.94,0 -2.74,1.59 -2.74,3.29 0,1.09 0.3,2.19 0.85,4.38 z" /><path
           style="fill:#000000;stroke-width:0"
           inkscape:connector-curvature="0"
           id="path10722"
           d="m 556.4,418.45 -0.01,0.37 0,0.39 -0.01,0.39 -0.01,0.41 -0.04,0.84 -0.06,0.88 -0.09,0.92 -0.1,0.94 -0.14,0.98 -0.16,1 -0.2,1.02 -0.23,1.04 -0.27,1.05 -0.3,1.06 -0.35,1.06 -0.39,1.07 -0.22,0.53 -0.22,0.54 -0.24,0.53 -0.25,0.53 c -2.99,6.12 -7.27,9.36 -7.77,9.36 -0.3,0 -0.5,-0.2 -0.5,-0.5 0,-0.15 0,-0.25 0.94,-1.15 4.89,-4.92 7.73,-12.85 7.73,-23.26 0,-8.52 -1.85,-17.28 -8.02,-23.56 -0.65,-0.6 -0.65,-0.69 -0.65,-0.85 0,-0.29 0.2,-0.49 0.5,-0.49 0.5,0 4.98,3.38 7.92,9.71 2.54,5.48 3.14,11.01 3.14,15.19 z" /></g>    </g>
    <g
       id="g10998"
       transform="matrix(0.56899643,0,0,0.56899643,185.834,408.84918)">
      <g
         word-spacing="normal"
         letter-spacing="normal"
         font-size-adjust="none"
         font-stretch="normal"
         font-weight="normal"
         font-variant="normal"
         font-style="normal"
         stroke-miterlimit="10.433"
         xml:space="preserve"
         transform="matrix(1.0629921,0,0,-1.0629921,-186.02362,789.27165)"
         id="g11000"
         style="font-style:normal;font-variant:normal;font-weight:normal;font-stretch:normal;letter-spacing:normal;word-spacing:normal;text-anchor:start;fill:none;stroke:#000000;stroke-linecap:butt;stroke-linejoin:miter;stroke-miterlimit:10.43299961;stroke-opacity:1;stroke-dasharray:none;stroke-dashoffset:0"><path
           id="path11002"
           d="m 472.64,421.04 0.03,0.13 0.03,0.15 0.05,0.17 0.04,0.18 0.06,0.19 0.06,0.21 0.06,0.21 0.07,0.23 0.08,0.23 0.09,0.24 0.1,0.25 0.1,0.24 0.11,0.25 0.12,0.25 0.13,0.25 0.14,0.25 0.15,0.24 0.15,0.24 0.17,0.23 0.18,0.22 0.18,0.22 0.2,0.2 0.21,0.19 0.22,0.18 0.23,0.16 0.25,0.14 0.12,0.07 0.13,0.06 0.13,0.05 0.14,0.05 0.14,0.05 0.14,0.04 0.14,0.03 0.15,0.03 0.15,0.02 0.16,0.02 0.16,0.01 0.16,0 c 0.25,0 1.45,0 2.49,-0.65 -1.4,-0.25 -2.39,-1.49 -2.39,-2.68 0,-0.8 0.54,-1.75 1.89,-1.75 1.1,0 2.69,0.9 2.69,2.89 0,2.59 -2.94,3.29 -4.63,3.29 -2.89,0 -4.64,-2.64 -5.23,-3.79 -1.25,3.29 -3.94,3.79 -5.38,3.79 -5.18,0 -8.02,-6.43 -8.02,-7.67 0,-0.5 0.5,-0.5 0.6,-0.5 0.39,0 0.54,0.1 0.64,0.54 1.7,5.29 4.98,6.53 6.68,6.53 0.95,0 2.69,-0.45 2.69,-3.33 0,-1.55 -0.85,-4.89 -2.69,-11.86 -0.8,-3.09 -2.54,-5.18 -4.73,-5.18 -0.3,0 -1.45,0 -2.49,0.65 1.24,0.25 2.34,1.29 2.34,2.69 0,1.34 -1.1,1.74 -1.85,1.74 -1.49,0 -2.73,-1.3 -2.73,-2.89 0,-2.29 2.48,-3.29 4.68,-3.29 3.28,0 5.08,3.49 5.23,3.79 0.6,-1.85 2.39,-3.79 5.38,-3.79 5.13,0 7.97,6.43 7.97,7.67 0,0.5 -0.45,0.5 -0.6,0.5 -0.45,0 -0.55,-0.2 -0.65,-0.55 -1.64,-5.33 -5.03,-6.52 -6.62,-6.52 -1.95,0 -2.74,1.59 -2.74,3.29 0,1.09 0.29,2.19 0.85,4.38 z"
           inkscape:connector-curvature="0"
           style="fill:#000000;stroke-width:0" /></g>    </g>
  </g>
</svg>
